G04 #@! TF.GenerationSoftware,KiCad,Pcbnew,8.0.5*
G04 #@! TF.CreationDate,2024-11-14T17:14:10-08:00*
G04 #@! TF.ProjectId,Predator-Bot-V1,50726564-6174-46f7-922d-426f742d5631,0.01*
G04 #@! TF.SameCoordinates,Original*
G04 #@! TF.FileFunction,Copper,L2,Bot*
G04 #@! TF.FilePolarity,Positive*
%FSLAX46Y46*%
G04 Gerber Fmt 4.6, Leading zero omitted, Abs format (unit mm)*
G04 Created by KiCad (PCBNEW 8.0.5) date 2024-11-14 17:14:10*
%MOMM*%
%LPD*%
G01*
G04 APERTURE LIST*
G04 #@! TA.AperFunction,ComponentPad*
%ADD10C,0.630000*%
G04 #@! TD*
G04 #@! TA.AperFunction,SMDPad,CuDef*
%ADD11R,3.300000X2.600000*%
G04 #@! TD*
G04 #@! TA.AperFunction,ComponentPad*
%ADD12R,1.700000X1.700000*%
G04 #@! TD*
G04 #@! TA.AperFunction,ComponentPad*
%ADD13O,1.700000X1.700000*%
G04 #@! TD*
G04 #@! TA.AperFunction,ComponentPad*
%ADD14C,1.700000*%
G04 #@! TD*
G04 #@! TA.AperFunction,ComponentPad*
%ADD15C,2.200000*%
G04 #@! TD*
G04 #@! TA.AperFunction,ComponentPad*
%ADD16R,2.200000X2.200000*%
G04 #@! TD*
G04 #@! TA.AperFunction,ComponentPad*
%ADD17C,1.000000*%
G04 #@! TD*
G04 #@! TA.AperFunction,ComponentPad*
%ADD18C,3.000000*%
G04 #@! TD*
G04 #@! TA.AperFunction,ViaPad*
%ADD19C,1.250000*%
G04 #@! TD*
G04 #@! TA.AperFunction,ViaPad*
%ADD20C,0.600000*%
G04 #@! TD*
G04 #@! TA.AperFunction,ViaPad*
%ADD21C,1.500000*%
G04 #@! TD*
G04 #@! TA.AperFunction,ViaPad*
%ADD22C,0.500000*%
G04 #@! TD*
G04 #@! TA.AperFunction,ViaPad*
%ADD23C,1.000000*%
G04 #@! TD*
G04 #@! TA.AperFunction,ViaPad*
%ADD24C,0.700000*%
G04 #@! TD*
G04 #@! TA.AperFunction,Conductor*
%ADD25C,0.750000*%
G04 #@! TD*
G04 #@! TA.AperFunction,Conductor*
%ADD26C,0.500000*%
G04 #@! TD*
G04 #@! TA.AperFunction,Conductor*
%ADD27C,0.254000*%
G04 #@! TD*
G04 #@! TA.AperFunction,Conductor*
%ADD28C,0.300000*%
G04 #@! TD*
G04 APERTURE END LIST*
D10*
X115245000Y-106005000D03*
X113945000Y-106005000D03*
X112645000Y-106005000D03*
D11*
X113945000Y-106655000D03*
D10*
X115245000Y-107305000D03*
X113945000Y-107305000D03*
X112645000Y-107305000D03*
D12*
X125600000Y-74680000D03*
D13*
X125600000Y-77220000D03*
X125600000Y-79760000D03*
X125600000Y-82300000D03*
X125600000Y-84840000D03*
X125600000Y-87380000D03*
X125600000Y-89920000D03*
X125600000Y-92460000D03*
X125600000Y-95000000D03*
X125600000Y-97540000D03*
X125600000Y-100080000D03*
X125600000Y-102620000D03*
X125600000Y-105160000D03*
X125600000Y-107700000D03*
X125600000Y-110240000D03*
X125600000Y-112780000D03*
X125600000Y-115320000D03*
X125600000Y-117860000D03*
X151000000Y-117860000D03*
X151000000Y-115320000D03*
X151000000Y-112780000D03*
X151000000Y-110240000D03*
X151000000Y-107700000D03*
X151000000Y-105160000D03*
X151000000Y-102620000D03*
X151000000Y-100080000D03*
X151000000Y-97540000D03*
X151000000Y-95000000D03*
X151000000Y-92460000D03*
X151000000Y-89920000D03*
X151000000Y-87380000D03*
X151000000Y-84840000D03*
X151000000Y-82300000D03*
X151000000Y-79760000D03*
X151000000Y-77220000D03*
D14*
X151000000Y-74680000D03*
D15*
X107000000Y-125500000D03*
D16*
X104460000Y-125500000D03*
D17*
X186486526Y-105100000D03*
X186486526Y-107000000D03*
D16*
X174880000Y-117500000D03*
D15*
X177420000Y-117500000D03*
X179960000Y-117500000D03*
X182500000Y-117500000D03*
X117000000Y-66000000D03*
D16*
X119540000Y-66000000D03*
X163000000Y-73500000D03*
D15*
X160460000Y-73500000D03*
X157920000Y-73500000D03*
D18*
X171000000Y-74000000D03*
D15*
X107460000Y-66000000D03*
D16*
X110000000Y-66000000D03*
D10*
X115630000Y-83220000D03*
X114330000Y-83220000D03*
X113030000Y-83220000D03*
D11*
X114330000Y-83870000D03*
D10*
X115630000Y-84520000D03*
X114330000Y-84520000D03*
X113030000Y-84520000D03*
D18*
X177000000Y-74000000D03*
D15*
X118000000Y-125500000D03*
D16*
X115460000Y-125500000D03*
D15*
X165500000Y-117500000D03*
X162960000Y-117500000D03*
X160420000Y-117500000D03*
D16*
X157880000Y-117500000D03*
D19*
X171000000Y-114500000D03*
X171000000Y-119500000D03*
D20*
X111000000Y-73000000D03*
X113500000Y-73000000D03*
X113500000Y-95000000D03*
X116000000Y-91500000D03*
X118000000Y-118000000D03*
X114500000Y-118000000D03*
D21*
X111000000Y-87000000D03*
X106255000Y-98607500D03*
X118000000Y-87000000D03*
X109500000Y-110000000D03*
X111000000Y-81000000D03*
X109500000Y-102000000D03*
X118000000Y-83000000D03*
X111000000Y-89000000D03*
X118000000Y-85000000D03*
X118000000Y-104000000D03*
X109500000Y-104000000D03*
X118000000Y-102000000D03*
X118000000Y-110000000D03*
D20*
X178250000Y-102000000D03*
D21*
X118000000Y-89000000D03*
X109500000Y-106000000D03*
D22*
X179500000Y-90000000D03*
D21*
X118000000Y-106000000D03*
X111000000Y-83000000D03*
D20*
X181750000Y-102000000D03*
D21*
X106175000Y-96000000D03*
X168500000Y-124500000D03*
X111000000Y-79000000D03*
X118000000Y-81000000D03*
X109500000Y-108000000D03*
X157000000Y-79500000D03*
D22*
X178000000Y-92000000D03*
D21*
X111000000Y-85000000D03*
X118000000Y-108000000D03*
X193500000Y-105000000D03*
D23*
X166000000Y-108000000D03*
X163500000Y-101000000D03*
X165500000Y-101000000D03*
X159500000Y-104500000D03*
D24*
X172000000Y-96500000D03*
X177500000Y-96500000D03*
D23*
X159500000Y-99000000D03*
X170000000Y-108000000D03*
D25*
X159500000Y-99000000D02*
X159500000Y-104500000D01*
X171000000Y-114500000D02*
X171000000Y-119500000D01*
D26*
X165500000Y-101000000D02*
X163500000Y-101000000D01*
D27*
X113500000Y-73000000D02*
X111000000Y-73000000D01*
X114500000Y-118000000D02*
X118000000Y-118000000D01*
D26*
X113500000Y-95000000D02*
X116000000Y-95000000D01*
X116000000Y-95000000D02*
X116000000Y-91500000D01*
X178250000Y-102000000D02*
X181750000Y-102000000D01*
D28*
X178000000Y-92000000D02*
X179500000Y-90500000D01*
X179500000Y-90500000D02*
X179500000Y-90000000D01*
D26*
X170000000Y-108000000D02*
X166000000Y-108000000D01*
X177500000Y-96500000D02*
X172000000Y-96500000D01*
G04 #@! TA.AperFunction,Conductor*
G36*
X120000000Y-90500000D02*
G01*
X109500000Y-90500000D01*
X109500000Y-77500000D01*
X120000000Y-77500000D01*
X120000000Y-90500000D01*
G37*
G04 #@! TD.AperFunction*
G04 #@! TA.AperFunction,Conductor*
G36*
X120000000Y-112500000D02*
G01*
X108000000Y-112500000D01*
X108000000Y-100000000D01*
X120000000Y-100000000D01*
X120000000Y-112500000D01*
G37*
G04 #@! TD.AperFunction*
G04 #@! TA.AperFunction,Conductor*
G36*
X195943039Y-55519685D02*
G01*
X195988794Y-55572489D01*
X196000000Y-55624000D01*
X196000000Y-142376000D01*
X195980315Y-142443039D01*
X195927511Y-142488794D01*
X195876000Y-142500000D01*
X94124000Y-142500000D01*
X94056961Y-142480315D01*
X94011206Y-142427511D01*
X94000000Y-142376000D01*
X94000000Y-134868872D01*
X97999500Y-134868872D01*
X97999500Y-135131127D01*
X98026123Y-135333339D01*
X98033730Y-135391116D01*
X98101602Y-135644418D01*
X98101605Y-135644428D01*
X98201953Y-135886690D01*
X98201958Y-135886700D01*
X98333075Y-136113803D01*
X98492718Y-136321851D01*
X98492726Y-136321860D01*
X98678140Y-136507274D01*
X98678148Y-136507281D01*
X98886196Y-136666924D01*
X99113299Y-136798041D01*
X99113309Y-136798046D01*
X99355571Y-136898394D01*
X99355581Y-136898398D01*
X99608884Y-136966270D01*
X99868880Y-137000500D01*
X99868887Y-137000500D01*
X100131113Y-137000500D01*
X100131120Y-137000500D01*
X100391116Y-136966270D01*
X100644419Y-136898398D01*
X100886697Y-136798043D01*
X101113803Y-136666924D01*
X101321851Y-136507282D01*
X101321855Y-136507277D01*
X101321860Y-136507274D01*
X101507274Y-136321860D01*
X101507277Y-136321855D01*
X101507282Y-136321851D01*
X101666924Y-136113803D01*
X101798043Y-135886697D01*
X101898398Y-135644419D01*
X101966270Y-135391116D01*
X102000500Y-135131120D01*
X102000500Y-134868880D01*
X102000499Y-134868872D01*
X189499500Y-134868872D01*
X189499500Y-135131127D01*
X189526123Y-135333339D01*
X189533730Y-135391116D01*
X189601602Y-135644418D01*
X189601605Y-135644428D01*
X189701953Y-135886690D01*
X189701958Y-135886700D01*
X189833075Y-136113803D01*
X189992718Y-136321851D01*
X189992726Y-136321860D01*
X190178140Y-136507274D01*
X190178148Y-136507281D01*
X190386196Y-136666924D01*
X190613299Y-136798041D01*
X190613309Y-136798046D01*
X190855571Y-136898394D01*
X190855581Y-136898398D01*
X191108884Y-136966270D01*
X191368880Y-137000500D01*
X191368887Y-137000500D01*
X191631113Y-137000500D01*
X191631120Y-137000500D01*
X191891116Y-136966270D01*
X192144419Y-136898398D01*
X192386697Y-136798043D01*
X192613803Y-136666924D01*
X192821851Y-136507282D01*
X192821855Y-136507277D01*
X192821860Y-136507274D01*
X193007274Y-136321860D01*
X193007277Y-136321855D01*
X193007282Y-136321851D01*
X193166924Y-136113803D01*
X193298043Y-135886697D01*
X193398398Y-135644419D01*
X193466270Y-135391116D01*
X193500500Y-135131120D01*
X193500500Y-134868880D01*
X193466270Y-134608884D01*
X193398398Y-134355581D01*
X193398394Y-134355571D01*
X193298046Y-134113309D01*
X193298041Y-134113299D01*
X193166924Y-133886196D01*
X193007281Y-133678148D01*
X193007274Y-133678140D01*
X192821860Y-133492726D01*
X192821851Y-133492718D01*
X192613803Y-133333075D01*
X192386700Y-133201958D01*
X192386690Y-133201953D01*
X192144428Y-133101605D01*
X192144421Y-133101603D01*
X192144419Y-133101602D01*
X191891116Y-133033730D01*
X191833339Y-133026123D01*
X191631127Y-132999500D01*
X191631120Y-132999500D01*
X191368880Y-132999500D01*
X191368872Y-132999500D01*
X191137772Y-133029926D01*
X191108884Y-133033730D01*
X190855581Y-133101602D01*
X190855571Y-133101605D01*
X190613309Y-133201953D01*
X190613299Y-133201958D01*
X190386196Y-133333075D01*
X190178148Y-133492718D01*
X189992718Y-133678148D01*
X189833075Y-133886196D01*
X189701958Y-134113299D01*
X189701953Y-134113309D01*
X189601605Y-134355571D01*
X189601602Y-134355581D01*
X189533730Y-134608885D01*
X189499500Y-134868872D01*
X102000499Y-134868872D01*
X101966270Y-134608884D01*
X101898398Y-134355581D01*
X101898394Y-134355571D01*
X101798046Y-134113309D01*
X101798041Y-134113299D01*
X101666924Y-133886196D01*
X101507281Y-133678148D01*
X101507274Y-133678140D01*
X101321860Y-133492726D01*
X101321851Y-133492718D01*
X101113803Y-133333075D01*
X100886700Y-133201958D01*
X100886690Y-133201953D01*
X100644428Y-133101605D01*
X100644421Y-133101603D01*
X100644419Y-133101602D01*
X100391116Y-133033730D01*
X100333339Y-133026123D01*
X100131127Y-132999500D01*
X100131120Y-132999500D01*
X99868880Y-132999500D01*
X99868872Y-132999500D01*
X99637772Y-133029926D01*
X99608884Y-133033730D01*
X99355581Y-133101602D01*
X99355571Y-133101605D01*
X99113309Y-133201953D01*
X99113299Y-133201958D01*
X98886196Y-133333075D01*
X98678148Y-133492718D01*
X98492718Y-133678148D01*
X98333075Y-133886196D01*
X98201958Y-134113299D01*
X98201953Y-134113309D01*
X98101605Y-134355571D01*
X98101602Y-134355581D01*
X98033730Y-134608885D01*
X97999500Y-134868872D01*
X94000000Y-134868872D01*
X94000000Y-124352155D01*
X102860000Y-124352155D01*
X102860000Y-125250000D01*
X103969252Y-125250000D01*
X103947482Y-125287708D01*
X103910000Y-125427591D01*
X103910000Y-125572409D01*
X103947482Y-125712292D01*
X103969252Y-125750000D01*
X102860000Y-125750000D01*
X102860000Y-126647844D01*
X102866401Y-126707372D01*
X102866403Y-126707379D01*
X102916645Y-126842086D01*
X102916649Y-126842093D01*
X103002809Y-126957187D01*
X103002812Y-126957190D01*
X103117906Y-127043350D01*
X103117913Y-127043354D01*
X103252620Y-127093596D01*
X103252627Y-127093598D01*
X103312155Y-127099999D01*
X103312172Y-127100000D01*
X104017218Y-127100000D01*
X104084257Y-127119685D01*
X104130012Y-127172489D01*
X104139956Y-127241647D01*
X104110931Y-127305203D01*
X104084999Y-127325894D01*
X104085886Y-127327221D01*
X103949711Y-127418210D01*
X103949707Y-127418213D01*
X103838213Y-127529707D01*
X103838210Y-127529711D01*
X103750609Y-127660814D01*
X103750602Y-127660827D01*
X103690264Y-127806498D01*
X103690261Y-127806510D01*
X103659500Y-127961153D01*
X103659500Y-128118846D01*
X103690261Y-128273489D01*
X103690264Y-128273501D01*
X103750602Y-128419172D01*
X103750609Y-128419185D01*
X103838210Y-128550288D01*
X103838213Y-128550292D01*
X103949707Y-128661786D01*
X103949711Y-128661789D01*
X104080814Y-128749390D01*
X104080827Y-128749397D01*
X104226498Y-128809735D01*
X104226503Y-128809737D01*
X104381153Y-128840499D01*
X104381156Y-128840500D01*
X104381158Y-128840500D01*
X104538844Y-128840500D01*
X104538845Y-128840499D01*
X104693497Y-128809737D01*
X104839179Y-128749394D01*
X104970289Y-128661789D01*
X105081789Y-128550289D01*
X105169394Y-128419179D01*
X105229737Y-128273497D01*
X105260500Y-128118842D01*
X105260500Y-127961158D01*
X105260500Y-127961155D01*
X105260499Y-127961153D01*
X105229738Y-127806510D01*
X105229737Y-127806503D01*
X105229735Y-127806498D01*
X105169397Y-127660827D01*
X105169390Y-127660814D01*
X105081789Y-127529711D01*
X105081786Y-127529707D01*
X104970292Y-127418213D01*
X104970288Y-127418210D01*
X104834114Y-127327221D01*
X104835695Y-127324854D01*
X104794526Y-127284470D01*
X104779019Y-127216343D01*
X104802805Y-127150647D01*
X104858334Y-127108240D01*
X104902782Y-127100000D01*
X105607828Y-127100000D01*
X105607844Y-127099999D01*
X105667372Y-127093598D01*
X105667379Y-127093596D01*
X105802086Y-127043354D01*
X105802093Y-127043350D01*
X105917186Y-126957190D01*
X105974498Y-126880633D01*
X106030432Y-126838762D01*
X106100124Y-126833778D01*
X106138555Y-126849217D01*
X106271140Y-126930466D01*
X106336523Y-126957548D01*
X106503889Y-127026873D01*
X106671043Y-127067003D01*
X106731634Y-127101792D01*
X106763799Y-127163818D01*
X106757323Y-127233387D01*
X106714264Y-127288411D01*
X106689550Y-127302137D01*
X106620820Y-127330606D01*
X106620814Y-127330609D01*
X106489711Y-127418210D01*
X106489707Y-127418213D01*
X106378213Y-127529707D01*
X106378210Y-127529711D01*
X106290609Y-127660814D01*
X106290602Y-127660827D01*
X106230264Y-127806498D01*
X106230261Y-127806510D01*
X106199500Y-127961153D01*
X106199500Y-128118846D01*
X106230261Y-128273489D01*
X106230264Y-128273501D01*
X106290602Y-128419172D01*
X106290609Y-128419185D01*
X106378210Y-128550288D01*
X106378213Y-128550292D01*
X106489707Y-128661786D01*
X106489711Y-128661789D01*
X106620814Y-128749390D01*
X106620827Y-128749397D01*
X106766498Y-128809735D01*
X106766503Y-128809737D01*
X106921153Y-128840499D01*
X106921156Y-128840500D01*
X106921158Y-128840500D01*
X107078844Y-128840500D01*
X107078845Y-128840499D01*
X107233497Y-128809737D01*
X107379179Y-128749394D01*
X107510289Y-128661789D01*
X107621789Y-128550289D01*
X107709394Y-128419179D01*
X107769737Y-128273497D01*
X107800500Y-128118842D01*
X107800500Y-127961158D01*
X107800500Y-127961155D01*
X107800499Y-127961153D01*
X107769738Y-127806510D01*
X107769737Y-127806503D01*
X107769735Y-127806498D01*
X107709397Y-127660827D01*
X107709390Y-127660814D01*
X107621789Y-127529711D01*
X107621786Y-127529707D01*
X107510292Y-127418213D01*
X107510288Y-127418210D01*
X107379185Y-127330609D01*
X107379175Y-127330604D01*
X107310450Y-127302137D01*
X107256047Y-127258296D01*
X107233982Y-127192001D01*
X107251261Y-127124302D01*
X107302399Y-127076692D01*
X107328950Y-127067004D01*
X107496111Y-127026873D01*
X107728859Y-126930466D01*
X107943659Y-126798836D01*
X108135224Y-126635224D01*
X108298836Y-126443659D01*
X108430466Y-126228859D01*
X108526873Y-125996111D01*
X108585683Y-125751148D01*
X108605449Y-125500000D01*
X108585683Y-125248852D01*
X108526873Y-125003889D01*
X108504552Y-124950000D01*
X108430466Y-124771140D01*
X108298839Y-124556346D01*
X108298838Y-124556343D01*
X108261875Y-124513066D01*
X108135224Y-124364776D01*
X108120423Y-124352135D01*
X113859500Y-124352135D01*
X113859500Y-126647870D01*
X113859501Y-126647876D01*
X113865908Y-126707483D01*
X113916202Y-126842328D01*
X113916206Y-126842335D01*
X114002452Y-126957544D01*
X114002455Y-126957547D01*
X114117664Y-127043793D01*
X114117671Y-127043797D01*
X114252517Y-127094091D01*
X114252516Y-127094091D01*
X114259444Y-127094835D01*
X114312127Y-127100500D01*
X115016427Y-127100499D01*
X115083464Y-127120183D01*
X115129219Y-127172987D01*
X115139163Y-127242146D01*
X115110138Y-127305702D01*
X115085316Y-127327601D01*
X114949711Y-127418210D01*
X114949707Y-127418213D01*
X114838213Y-127529707D01*
X114838210Y-127529711D01*
X114750609Y-127660814D01*
X114750602Y-127660827D01*
X114690264Y-127806498D01*
X114690261Y-127806510D01*
X114659500Y-127961153D01*
X114659500Y-128118846D01*
X114690261Y-128273489D01*
X114690264Y-128273501D01*
X114750602Y-128419172D01*
X114750609Y-128419185D01*
X114838210Y-128550288D01*
X114838213Y-128550292D01*
X114949707Y-128661786D01*
X114949711Y-128661789D01*
X115080814Y-128749390D01*
X115080827Y-128749397D01*
X115226498Y-128809735D01*
X115226503Y-128809737D01*
X115381153Y-128840499D01*
X115381156Y-128840500D01*
X115381158Y-128840500D01*
X115538844Y-128840500D01*
X115538845Y-128840499D01*
X115693497Y-128809737D01*
X115839179Y-128749394D01*
X115970289Y-128661789D01*
X116081789Y-128550289D01*
X116169394Y-128419179D01*
X116229737Y-128273497D01*
X116260500Y-128118842D01*
X116260500Y-127961158D01*
X116260500Y-127961155D01*
X116260499Y-127961153D01*
X116229738Y-127806510D01*
X116229737Y-127806503D01*
X116229735Y-127806498D01*
X116169397Y-127660827D01*
X116169390Y-127660814D01*
X116081789Y-127529711D01*
X116081786Y-127529707D01*
X115970292Y-127418213D01*
X115970288Y-127418210D01*
X115834683Y-127327601D01*
X115789878Y-127273989D01*
X115781171Y-127204664D01*
X115811326Y-127141636D01*
X115870769Y-127104917D01*
X115903571Y-127100499D01*
X116607872Y-127100499D01*
X116667483Y-127094091D01*
X116802331Y-127043796D01*
X116917546Y-126957546D01*
X116974928Y-126880893D01*
X117030860Y-126839024D01*
X117100552Y-126834040D01*
X117138983Y-126849479D01*
X117271140Y-126930466D01*
X117336523Y-126957548D01*
X117503889Y-127026873D01*
X117671043Y-127067003D01*
X117731634Y-127101792D01*
X117763799Y-127163818D01*
X117757323Y-127233387D01*
X117714264Y-127288411D01*
X117689550Y-127302137D01*
X117620820Y-127330606D01*
X117620814Y-127330609D01*
X117489711Y-127418210D01*
X117489707Y-127418213D01*
X117378213Y-127529707D01*
X117378210Y-127529711D01*
X117290609Y-127660814D01*
X117290602Y-127660827D01*
X117230264Y-127806498D01*
X117230261Y-127806510D01*
X117199500Y-127961153D01*
X117199500Y-128118846D01*
X117230261Y-128273489D01*
X117230264Y-128273501D01*
X117290602Y-128419172D01*
X117290609Y-128419185D01*
X117378210Y-128550288D01*
X117378213Y-128550292D01*
X117489707Y-128661786D01*
X117489711Y-128661789D01*
X117620814Y-128749390D01*
X117620827Y-128749397D01*
X117766498Y-128809735D01*
X117766503Y-128809737D01*
X117921153Y-128840499D01*
X117921156Y-128840500D01*
X117921158Y-128840500D01*
X118078844Y-128840500D01*
X118078845Y-128840499D01*
X118233497Y-128809737D01*
X118379179Y-128749394D01*
X118510289Y-128661789D01*
X118621789Y-128550289D01*
X118709394Y-128419179D01*
X118769737Y-128273497D01*
X118800500Y-128118842D01*
X118800500Y-127961158D01*
X118800500Y-127961155D01*
X118800499Y-127961153D01*
X118769738Y-127806510D01*
X118769737Y-127806503D01*
X118769735Y-127806498D01*
X118709397Y-127660827D01*
X118709390Y-127660814D01*
X118621789Y-127529711D01*
X118621786Y-127529707D01*
X118510292Y-127418213D01*
X118510288Y-127418210D01*
X118379185Y-127330609D01*
X118379175Y-127330604D01*
X118310450Y-127302137D01*
X118256047Y-127258296D01*
X118233982Y-127192001D01*
X118251261Y-127124302D01*
X118302399Y-127076692D01*
X118328950Y-127067004D01*
X118496111Y-127026873D01*
X118728859Y-126930466D01*
X118943659Y-126798836D01*
X119135224Y-126635224D01*
X119298836Y-126443659D01*
X119430466Y-126228859D01*
X119526873Y-125996111D01*
X119585683Y-125751148D01*
X119605449Y-125500000D01*
X119585683Y-125248852D01*
X119526873Y-125003889D01*
X119504552Y-124950000D01*
X119430466Y-124771140D01*
X119298839Y-124556346D01*
X119298838Y-124556343D01*
X119261875Y-124513066D01*
X119135224Y-124364776D01*
X118968917Y-124222736D01*
X118943656Y-124201161D01*
X118943653Y-124201160D01*
X118728859Y-124069533D01*
X118496110Y-123973126D01*
X118251151Y-123914317D01*
X118000000Y-123894551D01*
X117748848Y-123914317D01*
X117503889Y-123973126D01*
X117271140Y-124069533D01*
X117138983Y-124150520D01*
X117071537Y-124168765D01*
X117004935Y-124147649D01*
X116974927Y-124119104D01*
X116917547Y-124042455D01*
X116917544Y-124042452D01*
X116802335Y-123956206D01*
X116802328Y-123956202D01*
X116667482Y-123905908D01*
X116667483Y-123905908D01*
X116607883Y-123899501D01*
X116607881Y-123899500D01*
X116607873Y-123899500D01*
X116607864Y-123899500D01*
X114312129Y-123899500D01*
X114312123Y-123899501D01*
X114252516Y-123905908D01*
X114117671Y-123956202D01*
X114117664Y-123956206D01*
X114002455Y-124042452D01*
X114002452Y-124042455D01*
X113916206Y-124157664D01*
X113916202Y-124157671D01*
X113865908Y-124292517D01*
X113859501Y-124352116D01*
X113859500Y-124352135D01*
X108120423Y-124352135D01*
X107968917Y-124222736D01*
X107943656Y-124201161D01*
X107943653Y-124201160D01*
X107728859Y-124069533D01*
X107496110Y-123973126D01*
X107251151Y-123914317D01*
X107000000Y-123894551D01*
X106748848Y-123914317D01*
X106503889Y-123973126D01*
X106271145Y-124069531D01*
X106138555Y-124150783D01*
X106071109Y-124169027D01*
X106004506Y-124147910D01*
X105974499Y-124119366D01*
X105917190Y-124042812D01*
X105917187Y-124042809D01*
X105802093Y-123956649D01*
X105802086Y-123956645D01*
X105667379Y-123906403D01*
X105667372Y-123906401D01*
X105607844Y-123900000D01*
X104710000Y-123900000D01*
X104710000Y-125009252D01*
X104672292Y-124987482D01*
X104532409Y-124950000D01*
X104387591Y-124950000D01*
X104247708Y-124987482D01*
X104210000Y-125009252D01*
X104210000Y-123900000D01*
X103312155Y-123900000D01*
X103252627Y-123906401D01*
X103252620Y-123906403D01*
X103117913Y-123956645D01*
X103117906Y-123956649D01*
X103002812Y-124042809D01*
X103002809Y-124042812D01*
X102916649Y-124157906D01*
X102916645Y-124157913D01*
X102866403Y-124292620D01*
X102866401Y-124292627D01*
X102860000Y-124352155D01*
X94000000Y-124352155D01*
X94000000Y-122878711D01*
X124449500Y-122878711D01*
X124449500Y-123121288D01*
X124481161Y-123361785D01*
X124543947Y-123596104D01*
X124636773Y-123820205D01*
X124636776Y-123820212D01*
X124758064Y-124030289D01*
X124758066Y-124030292D01*
X124758067Y-124030293D01*
X124905733Y-124222736D01*
X124905739Y-124222743D01*
X125077256Y-124394260D01*
X125077262Y-124394265D01*
X125269711Y-124541936D01*
X125479788Y-124663224D01*
X125703900Y-124756054D01*
X125938211Y-124818838D01*
X126118586Y-124842584D01*
X126178711Y-124850500D01*
X126178712Y-124850500D01*
X126421289Y-124850500D01*
X126469388Y-124844167D01*
X126661789Y-124818838D01*
X126896100Y-124756054D01*
X127120212Y-124663224D01*
X127330289Y-124541936D01*
X127522738Y-124394265D01*
X127694265Y-124222738D01*
X127841936Y-124030289D01*
X127963224Y-123820212D01*
X128056054Y-123596100D01*
X128118838Y-123361789D01*
X128150500Y-123121288D01*
X128150500Y-122878712D01*
X128150500Y-122878711D01*
X148449500Y-122878711D01*
X148449500Y-123121288D01*
X148481161Y-123361785D01*
X148543947Y-123596104D01*
X148636773Y-123820205D01*
X148636776Y-123820212D01*
X148758064Y-124030289D01*
X148758066Y-124030292D01*
X148758067Y-124030293D01*
X148905733Y-124222736D01*
X148905739Y-124222743D01*
X149077256Y-124394260D01*
X149077262Y-124394265D01*
X149269711Y-124541936D01*
X149479788Y-124663224D01*
X149703900Y-124756054D01*
X149938211Y-124818838D01*
X150118586Y-124842584D01*
X150178711Y-124850500D01*
X150178712Y-124850500D01*
X150421289Y-124850500D01*
X150469388Y-124844167D01*
X150661789Y-124818838D01*
X150896100Y-124756054D01*
X151120212Y-124663224D01*
X151330289Y-124541936D01*
X151522738Y-124394265D01*
X151694265Y-124222738D01*
X151841936Y-124030289D01*
X151963224Y-123820212D01*
X152056054Y-123596100D01*
X152118838Y-123361789D01*
X152150500Y-123121288D01*
X152150500Y-122878712D01*
X152118838Y-122638211D01*
X152056054Y-122403900D01*
X151963224Y-122179788D01*
X151841936Y-121969711D01*
X151694265Y-121777262D01*
X151694260Y-121777256D01*
X151522743Y-121605739D01*
X151522736Y-121605733D01*
X151330293Y-121458067D01*
X151330292Y-121458066D01*
X151330289Y-121458064D01*
X151120212Y-121336776D01*
X151120205Y-121336773D01*
X150896104Y-121243947D01*
X150661785Y-121181161D01*
X150421289Y-121149500D01*
X150421288Y-121149500D01*
X150178712Y-121149500D01*
X150178711Y-121149500D01*
X149938214Y-121181161D01*
X149703895Y-121243947D01*
X149479794Y-121336773D01*
X149479785Y-121336777D01*
X149269706Y-121458067D01*
X149077263Y-121605733D01*
X149077256Y-121605739D01*
X148905739Y-121777256D01*
X148905733Y-121777263D01*
X148758067Y-121969706D01*
X148636777Y-122179785D01*
X148636773Y-122179794D01*
X148543947Y-122403895D01*
X148481161Y-122638214D01*
X148449500Y-122878711D01*
X128150500Y-122878711D01*
X128118838Y-122638211D01*
X128056054Y-122403900D01*
X127963224Y-122179788D01*
X127841936Y-121969711D01*
X127694265Y-121777262D01*
X127694260Y-121777256D01*
X127522743Y-121605739D01*
X127522736Y-121605733D01*
X127330293Y-121458067D01*
X127330292Y-121458066D01*
X127330289Y-121458064D01*
X127120212Y-121336776D01*
X127120205Y-121336773D01*
X126896104Y-121243947D01*
X126661785Y-121181161D01*
X126421289Y-121149500D01*
X126421288Y-121149500D01*
X126178712Y-121149500D01*
X126178711Y-121149500D01*
X125938214Y-121181161D01*
X125703895Y-121243947D01*
X125479794Y-121336773D01*
X125479785Y-121336777D01*
X125269706Y-121458067D01*
X125077263Y-121605733D01*
X125077256Y-121605739D01*
X124905739Y-121777256D01*
X124905733Y-121777263D01*
X124758067Y-121969706D01*
X124636777Y-122179785D01*
X124636773Y-122179794D01*
X124543947Y-122403895D01*
X124481161Y-122638214D01*
X124449500Y-122878711D01*
X94000000Y-122878711D01*
X94000000Y-117999996D01*
X113694435Y-117999996D01*
X113694435Y-118000003D01*
X113714630Y-118179249D01*
X113714631Y-118179254D01*
X113774211Y-118349523D01*
X113833357Y-118443653D01*
X113870184Y-118502262D01*
X113997738Y-118629816D01*
X114088080Y-118686582D01*
X114121178Y-118707379D01*
X114150478Y-118725789D01*
X114320745Y-118785368D01*
X114320750Y-118785369D01*
X114499996Y-118805565D01*
X114500000Y-118805565D01*
X114500004Y-118805565D01*
X114679249Y-118785369D01*
X114679252Y-118785368D01*
X114679255Y-118785368D01*
X114849522Y-118725789D01*
X114975700Y-118646505D01*
X115041672Y-118627500D01*
X117458328Y-118627500D01*
X117524300Y-118646506D01*
X117621178Y-118707379D01*
X117650478Y-118725789D01*
X117820745Y-118785368D01*
X117820750Y-118785369D01*
X117999996Y-118805565D01*
X118000000Y-118805565D01*
X118000004Y-118805565D01*
X118179249Y-118785369D01*
X118179252Y-118785368D01*
X118179255Y-118785368D01*
X118349522Y-118725789D01*
X118502262Y-118629816D01*
X118629816Y-118502262D01*
X118725789Y-118349522D01*
X118785368Y-118179255D01*
X118794815Y-118095413D01*
X118805565Y-118000003D01*
X118805565Y-117999996D01*
X118785369Y-117820750D01*
X118785368Y-117820745D01*
X118760613Y-117750000D01*
X118725789Y-117650478D01*
X118629816Y-117497738D01*
X118502262Y-117370184D01*
X118475700Y-117353494D01*
X118349523Y-117274211D01*
X118179254Y-117214631D01*
X118179249Y-117214630D01*
X118000004Y-117194435D01*
X117999996Y-117194435D01*
X117820750Y-117214630D01*
X117820745Y-117214631D01*
X117650476Y-117274211D01*
X117524300Y-117353494D01*
X117458328Y-117372500D01*
X115041672Y-117372500D01*
X114975700Y-117353494D01*
X114849523Y-117274211D01*
X114679254Y-117214631D01*
X114679249Y-117214630D01*
X114500004Y-117194435D01*
X114499996Y-117194435D01*
X114320750Y-117214630D01*
X114320745Y-117214631D01*
X114150476Y-117274211D01*
X113997737Y-117370184D01*
X113870184Y-117497737D01*
X113774211Y-117650476D01*
X113714631Y-117820745D01*
X113714630Y-117820750D01*
X113694435Y-117999996D01*
X94000000Y-117999996D01*
X94000000Y-112500000D01*
X108000000Y-112500000D01*
X120000000Y-112500000D01*
X120000000Y-100000000D01*
X108000000Y-100000000D01*
X108000000Y-112500000D01*
X94000000Y-112500000D01*
X94000000Y-94999996D01*
X112694435Y-94999996D01*
X112694435Y-95000003D01*
X112714630Y-95179249D01*
X112714631Y-95179254D01*
X112774211Y-95349523D01*
X112855202Y-95478419D01*
X112870184Y-95502262D01*
X112997738Y-95629816D01*
X113074152Y-95677830D01*
X113143903Y-95721658D01*
X113150478Y-95725789D01*
X113320745Y-95785368D01*
X113320750Y-95785369D01*
X113499996Y-95805565D01*
X113500000Y-95805565D01*
X113500004Y-95805565D01*
X113679249Y-95785369D01*
X113679252Y-95785368D01*
X113679255Y-95785368D01*
X113759017Y-95757457D01*
X113799972Y-95750500D01*
X116073920Y-95750500D01*
X116171462Y-95731096D01*
X116218913Y-95721658D01*
X116355495Y-95665084D01*
X116478416Y-95582951D01*
X116582951Y-95478416D01*
X116665084Y-95355495D01*
X116721658Y-95218913D01*
X116750500Y-95073918D01*
X116750500Y-91799972D01*
X116757458Y-91759017D01*
X116785368Y-91679254D01*
X116785369Y-91679249D01*
X116805565Y-91500003D01*
X116805565Y-91499996D01*
X116785369Y-91320750D01*
X116785368Y-91320745D01*
X116725788Y-91150476D01*
X116629815Y-90997737D01*
X116502262Y-90870184D01*
X116349523Y-90774211D01*
X116179254Y-90714631D01*
X116179249Y-90714630D01*
X116000004Y-90694435D01*
X115999996Y-90694435D01*
X115820750Y-90714630D01*
X115820745Y-90714631D01*
X115650476Y-90774211D01*
X115497737Y-90870184D01*
X115370184Y-90997737D01*
X115274211Y-91150476D01*
X115214631Y-91320745D01*
X115214630Y-91320750D01*
X115194435Y-91499996D01*
X115194435Y-91500003D01*
X115214630Y-91679249D01*
X115214631Y-91679254D01*
X115242542Y-91759017D01*
X115249500Y-91799972D01*
X115249500Y-94125500D01*
X115229815Y-94192539D01*
X115177011Y-94238294D01*
X115125500Y-94249500D01*
X113799972Y-94249500D01*
X113759017Y-94242542D01*
X113679254Y-94214631D01*
X113679249Y-94214630D01*
X113500004Y-94194435D01*
X113499996Y-94194435D01*
X113320750Y-94214630D01*
X113320745Y-94214631D01*
X113150476Y-94274211D01*
X112997737Y-94370184D01*
X112870184Y-94497737D01*
X112774211Y-94650476D01*
X112714631Y-94820745D01*
X112714630Y-94820750D01*
X112694435Y-94999996D01*
X94000000Y-94999996D01*
X94000000Y-90500000D01*
X109500000Y-90500000D01*
X120000000Y-90500000D01*
X120000000Y-77500000D01*
X109500000Y-77500000D01*
X109500000Y-90500000D01*
X94000000Y-90500000D01*
X94000000Y-77219999D01*
X124244341Y-77219999D01*
X124244341Y-77220000D01*
X124264936Y-77455403D01*
X124264938Y-77455413D01*
X124326094Y-77683655D01*
X124326096Y-77683659D01*
X124326097Y-77683663D01*
X124425965Y-77897830D01*
X124425967Y-77897834D01*
X124561501Y-78091395D01*
X124561506Y-78091402D01*
X124728597Y-78258493D01*
X124728603Y-78258498D01*
X124914158Y-78388425D01*
X124957783Y-78443002D01*
X124964977Y-78512500D01*
X124933454Y-78574855D01*
X124914158Y-78591575D01*
X124728597Y-78721505D01*
X124561505Y-78888597D01*
X124425965Y-79082169D01*
X124425964Y-79082171D01*
X124326098Y-79296335D01*
X124326094Y-79296344D01*
X124264938Y-79524586D01*
X124264936Y-79524596D01*
X124244341Y-79759999D01*
X124244341Y-79760000D01*
X124264936Y-79995403D01*
X124264938Y-79995413D01*
X124326094Y-80223655D01*
X124326096Y-80223659D01*
X124326097Y-80223663D01*
X124425965Y-80437830D01*
X124425967Y-80437834D01*
X124561501Y-80631395D01*
X124561506Y-80631402D01*
X124728597Y-80798493D01*
X124728603Y-80798498D01*
X124914158Y-80928425D01*
X124957783Y-80983002D01*
X124964977Y-81052500D01*
X124933454Y-81114855D01*
X124914158Y-81131575D01*
X124728597Y-81261505D01*
X124561505Y-81428597D01*
X124425965Y-81622169D01*
X124425964Y-81622171D01*
X124326098Y-81836335D01*
X124326094Y-81836344D01*
X124264938Y-82064586D01*
X124264936Y-82064596D01*
X124244341Y-82299999D01*
X124244341Y-82300000D01*
X124264936Y-82535403D01*
X124264938Y-82535413D01*
X124326094Y-82763655D01*
X124326096Y-82763659D01*
X124326097Y-82763663D01*
X124425965Y-82977830D01*
X124425967Y-82977834D01*
X124561501Y-83171395D01*
X124561506Y-83171402D01*
X124728597Y-83338493D01*
X124728603Y-83338498D01*
X124914158Y-83468425D01*
X124957783Y-83523002D01*
X124964977Y-83592500D01*
X124933454Y-83654855D01*
X124914158Y-83671575D01*
X124728597Y-83801505D01*
X124561505Y-83968597D01*
X124425965Y-84162169D01*
X124425964Y-84162171D01*
X124326098Y-84376335D01*
X124326094Y-84376344D01*
X124264938Y-84604586D01*
X124264936Y-84604596D01*
X124244341Y-84839999D01*
X124244341Y-84840000D01*
X124264936Y-85075403D01*
X124264938Y-85075413D01*
X124326094Y-85303655D01*
X124326096Y-85303659D01*
X124326097Y-85303663D01*
X124376656Y-85412086D01*
X124425965Y-85517830D01*
X124425967Y-85517834D01*
X124561501Y-85711395D01*
X124561506Y-85711402D01*
X124728597Y-85878493D01*
X124728603Y-85878498D01*
X124914158Y-86008425D01*
X124957783Y-86063002D01*
X124964977Y-86132500D01*
X124933454Y-86194855D01*
X124914158Y-86211575D01*
X124728597Y-86341505D01*
X124561505Y-86508597D01*
X124425965Y-86702169D01*
X124425964Y-86702171D01*
X124326098Y-86916335D01*
X124326094Y-86916344D01*
X124264938Y-87144586D01*
X124264936Y-87144596D01*
X124244341Y-87379999D01*
X124244341Y-87380000D01*
X124264936Y-87615403D01*
X124264938Y-87615413D01*
X124326094Y-87843655D01*
X124326096Y-87843659D01*
X124326097Y-87843663D01*
X124425965Y-88057830D01*
X124425967Y-88057834D01*
X124561501Y-88251395D01*
X124561506Y-88251402D01*
X124728597Y-88418493D01*
X124728603Y-88418498D01*
X124914158Y-88548425D01*
X124957783Y-88603002D01*
X124964977Y-88672500D01*
X124933454Y-88734855D01*
X124914158Y-88751575D01*
X124728597Y-88881505D01*
X124561505Y-89048597D01*
X124425965Y-89242169D01*
X124425964Y-89242171D01*
X124326098Y-89456335D01*
X124326094Y-89456344D01*
X124264938Y-89684586D01*
X124264936Y-89684596D01*
X124244341Y-89919999D01*
X124244341Y-89920000D01*
X124264936Y-90155403D01*
X124264938Y-90155413D01*
X124326094Y-90383655D01*
X124326096Y-90383659D01*
X124326097Y-90383663D01*
X124425965Y-90597830D01*
X124425967Y-90597834D01*
X124507749Y-90714630D01*
X124549468Y-90774211D01*
X124561501Y-90791395D01*
X124561506Y-90791402D01*
X124728597Y-90958493D01*
X124728603Y-90958498D01*
X124914158Y-91088425D01*
X124957783Y-91143002D01*
X124964977Y-91212500D01*
X124933454Y-91274855D01*
X124914158Y-91291575D01*
X124728597Y-91421505D01*
X124561505Y-91588597D01*
X124425965Y-91782169D01*
X124425964Y-91782171D01*
X124326098Y-91996335D01*
X124326094Y-91996344D01*
X124264938Y-92224586D01*
X124264936Y-92224596D01*
X124244341Y-92459999D01*
X124244341Y-92460000D01*
X124264936Y-92695403D01*
X124264938Y-92695413D01*
X124326094Y-92923655D01*
X124326096Y-92923659D01*
X124326097Y-92923663D01*
X124425965Y-93137830D01*
X124425967Y-93137834D01*
X124561501Y-93331395D01*
X124561506Y-93331402D01*
X124728597Y-93498493D01*
X124728603Y-93498498D01*
X124914158Y-93628425D01*
X124957783Y-93683002D01*
X124964977Y-93752500D01*
X124933454Y-93814855D01*
X124914158Y-93831575D01*
X124728597Y-93961505D01*
X124561505Y-94128597D01*
X124425965Y-94322169D01*
X124425964Y-94322171D01*
X124326098Y-94536335D01*
X124326094Y-94536344D01*
X124264938Y-94764586D01*
X124264936Y-94764596D01*
X124244341Y-94999999D01*
X124244341Y-95000000D01*
X124264936Y-95235403D01*
X124264938Y-95235413D01*
X124326094Y-95463655D01*
X124326096Y-95463659D01*
X124326097Y-95463663D01*
X124420020Y-95665080D01*
X124425965Y-95677830D01*
X124425967Y-95677834D01*
X124515406Y-95805565D01*
X124556657Y-95864478D01*
X124561501Y-95871395D01*
X124561506Y-95871402D01*
X124728597Y-96038493D01*
X124728603Y-96038498D01*
X124914158Y-96168425D01*
X124957783Y-96223002D01*
X124964977Y-96292500D01*
X124933454Y-96354855D01*
X124914158Y-96371575D01*
X124728597Y-96501505D01*
X124561505Y-96668597D01*
X124425965Y-96862169D01*
X124425964Y-96862171D01*
X124326098Y-97076335D01*
X124326094Y-97076344D01*
X124264938Y-97304586D01*
X124264936Y-97304596D01*
X124244341Y-97539999D01*
X124244341Y-97540000D01*
X124264936Y-97775403D01*
X124264938Y-97775413D01*
X124326094Y-98003655D01*
X124326096Y-98003659D01*
X124326097Y-98003663D01*
X124357584Y-98071186D01*
X124425965Y-98217830D01*
X124425967Y-98217834D01*
X124561501Y-98411395D01*
X124561506Y-98411402D01*
X124728597Y-98578493D01*
X124728603Y-98578498D01*
X124914158Y-98708425D01*
X124957783Y-98763002D01*
X124964977Y-98832500D01*
X124933454Y-98894855D01*
X124914158Y-98911575D01*
X124728597Y-99041505D01*
X124561505Y-99208597D01*
X124425965Y-99402169D01*
X124425964Y-99402171D01*
X124326098Y-99616335D01*
X124326094Y-99616344D01*
X124264938Y-99844586D01*
X124264936Y-99844596D01*
X124244341Y-100079999D01*
X124244341Y-100080000D01*
X124264936Y-100315403D01*
X124264938Y-100315413D01*
X124326094Y-100543655D01*
X124326096Y-100543659D01*
X124326097Y-100543663D01*
X124425965Y-100757830D01*
X124425967Y-100757834D01*
X124561501Y-100951395D01*
X124561506Y-100951402D01*
X124728597Y-101118493D01*
X124728603Y-101118498D01*
X124914158Y-101248425D01*
X124957783Y-101303002D01*
X124964977Y-101372500D01*
X124933454Y-101434855D01*
X124914158Y-101451575D01*
X124728597Y-101581505D01*
X124561505Y-101748597D01*
X124425965Y-101942169D01*
X124425964Y-101942171D01*
X124326098Y-102156335D01*
X124326094Y-102156344D01*
X124264938Y-102384586D01*
X124264936Y-102384596D01*
X124244341Y-102619999D01*
X124244341Y-102620000D01*
X124264936Y-102855403D01*
X124264938Y-102855413D01*
X124326094Y-103083655D01*
X124326096Y-103083659D01*
X124326097Y-103083663D01*
X124425965Y-103297830D01*
X124425967Y-103297834D01*
X124561501Y-103491395D01*
X124561506Y-103491402D01*
X124728597Y-103658493D01*
X124728603Y-103658498D01*
X124914158Y-103788425D01*
X124957783Y-103843002D01*
X124964977Y-103912500D01*
X124933454Y-103974855D01*
X124914158Y-103991575D01*
X124728597Y-104121505D01*
X124561505Y-104288597D01*
X124425965Y-104482169D01*
X124425964Y-104482171D01*
X124326098Y-104696335D01*
X124326094Y-104696344D01*
X124264938Y-104924586D01*
X124264936Y-104924596D01*
X124244341Y-105159999D01*
X124244341Y-105160000D01*
X124264936Y-105395403D01*
X124264938Y-105395413D01*
X124326094Y-105623655D01*
X124326096Y-105623659D01*
X124326097Y-105623663D01*
X124342357Y-105658532D01*
X124425965Y-105837830D01*
X124425967Y-105837834D01*
X124561501Y-106031395D01*
X124561506Y-106031402D01*
X124728597Y-106198493D01*
X124728603Y-106198498D01*
X124914158Y-106328425D01*
X124957783Y-106383002D01*
X124964977Y-106452500D01*
X124933454Y-106514855D01*
X124914158Y-106531575D01*
X124728597Y-106661505D01*
X124561505Y-106828597D01*
X124425965Y-107022169D01*
X124425964Y-107022171D01*
X124326098Y-107236335D01*
X124326094Y-107236344D01*
X124264938Y-107464586D01*
X124264936Y-107464596D01*
X124244341Y-107699999D01*
X124244341Y-107700000D01*
X124264936Y-107935403D01*
X124264938Y-107935413D01*
X124326094Y-108163655D01*
X124326096Y-108163659D01*
X124326097Y-108163663D01*
X124425965Y-108377830D01*
X124425967Y-108377834D01*
X124561501Y-108571395D01*
X124561506Y-108571402D01*
X124728597Y-108738493D01*
X124728603Y-108738498D01*
X124914158Y-108868425D01*
X124957783Y-108923002D01*
X124964977Y-108992500D01*
X124933454Y-109054855D01*
X124914158Y-109071575D01*
X124728597Y-109201505D01*
X124561505Y-109368597D01*
X124425965Y-109562169D01*
X124425964Y-109562171D01*
X124326098Y-109776335D01*
X124326094Y-109776344D01*
X124264938Y-110004586D01*
X124264936Y-110004596D01*
X124244341Y-110239999D01*
X124244341Y-110240000D01*
X124264936Y-110475403D01*
X124264938Y-110475413D01*
X124326094Y-110703655D01*
X124326096Y-110703659D01*
X124326097Y-110703663D01*
X124425965Y-110917830D01*
X124425967Y-110917834D01*
X124561501Y-111111395D01*
X124561506Y-111111402D01*
X124728597Y-111278493D01*
X124728603Y-111278498D01*
X124914158Y-111408425D01*
X124957783Y-111463002D01*
X124964977Y-111532500D01*
X124933454Y-111594855D01*
X124914158Y-111611575D01*
X124728597Y-111741505D01*
X124561505Y-111908597D01*
X124425965Y-112102169D01*
X124425964Y-112102171D01*
X124326098Y-112316335D01*
X124326094Y-112316344D01*
X124264938Y-112544586D01*
X124264936Y-112544596D01*
X124244341Y-112779999D01*
X124244341Y-112780000D01*
X124264936Y-113015403D01*
X124264938Y-113015413D01*
X124326094Y-113243655D01*
X124326096Y-113243659D01*
X124326097Y-113243663D01*
X124404980Y-113412827D01*
X124425965Y-113457830D01*
X124425967Y-113457834D01*
X124561501Y-113651395D01*
X124561506Y-113651402D01*
X124728597Y-113818493D01*
X124728603Y-113818498D01*
X124914158Y-113948425D01*
X124957783Y-114003002D01*
X124964977Y-114072500D01*
X124933454Y-114134855D01*
X124914158Y-114151575D01*
X124728597Y-114281505D01*
X124561505Y-114448597D01*
X124425965Y-114642169D01*
X124425964Y-114642171D01*
X124326098Y-114856335D01*
X124326094Y-114856344D01*
X124264938Y-115084586D01*
X124264936Y-115084596D01*
X124244341Y-115319999D01*
X124244341Y-115320000D01*
X124264936Y-115555403D01*
X124264938Y-115555413D01*
X124326094Y-115783655D01*
X124326096Y-115783659D01*
X124326097Y-115783663D01*
X124377805Y-115894551D01*
X124425965Y-115997830D01*
X124425967Y-115997834D01*
X124561501Y-116191395D01*
X124561506Y-116191402D01*
X124728597Y-116358493D01*
X124728603Y-116358498D01*
X124914158Y-116488425D01*
X124957783Y-116543002D01*
X124964977Y-116612500D01*
X124933454Y-116674855D01*
X124914158Y-116691575D01*
X124728597Y-116821505D01*
X124561505Y-116988597D01*
X124425965Y-117182169D01*
X124425964Y-117182171D01*
X124326098Y-117396335D01*
X124326094Y-117396344D01*
X124264938Y-117624586D01*
X124264936Y-117624596D01*
X124244341Y-117859999D01*
X124244341Y-117860000D01*
X124264936Y-118095403D01*
X124264938Y-118095413D01*
X124326094Y-118323655D01*
X124326096Y-118323659D01*
X124326097Y-118323663D01*
X124382051Y-118443656D01*
X124425965Y-118537830D01*
X124425967Y-118537834D01*
X124534281Y-118692521D01*
X124561505Y-118731401D01*
X124728599Y-118898495D01*
X124812420Y-118957187D01*
X124922165Y-119034032D01*
X124922167Y-119034033D01*
X124922170Y-119034035D01*
X125136337Y-119133903D01*
X125364592Y-119195063D01*
X125552918Y-119211539D01*
X125599999Y-119215659D01*
X125600000Y-119215659D01*
X125600001Y-119215659D01*
X125639234Y-119212226D01*
X125835408Y-119195063D01*
X126063663Y-119133903D01*
X126277830Y-119034035D01*
X126471401Y-118898495D01*
X126638495Y-118731401D01*
X126774035Y-118537830D01*
X126873903Y-118323663D01*
X126935063Y-118095408D01*
X126955659Y-117860000D01*
X126935063Y-117624592D01*
X126873903Y-117396337D01*
X126774035Y-117182171D01*
X126688414Y-117059890D01*
X126638494Y-116988597D01*
X126471402Y-116821506D01*
X126471396Y-116821501D01*
X126285842Y-116691575D01*
X126242217Y-116636998D01*
X126235023Y-116567500D01*
X126266546Y-116505145D01*
X126285842Y-116488425D01*
X126394732Y-116412179D01*
X126471401Y-116358495D01*
X126638495Y-116191401D01*
X126774035Y-115997830D01*
X126873903Y-115783663D01*
X126935063Y-115555408D01*
X126955659Y-115320000D01*
X126935063Y-115084592D01*
X126873903Y-114856337D01*
X126774035Y-114642171D01*
X126674487Y-114500000D01*
X126638494Y-114448597D01*
X126471402Y-114281506D01*
X126471396Y-114281501D01*
X126285842Y-114151575D01*
X126242217Y-114096998D01*
X126235023Y-114027500D01*
X126266546Y-113965145D01*
X126285842Y-113948425D01*
X126347915Y-113904961D01*
X126471401Y-113818495D01*
X126638495Y-113651401D01*
X126774035Y-113457830D01*
X126873903Y-113243663D01*
X126935063Y-113015408D01*
X126955659Y-112780000D01*
X126935063Y-112544592D01*
X126873903Y-112316337D01*
X126774035Y-112102171D01*
X126638495Y-111908599D01*
X126638494Y-111908597D01*
X126471402Y-111741506D01*
X126471396Y-111741501D01*
X126285842Y-111611575D01*
X126242217Y-111556998D01*
X126235023Y-111487500D01*
X126266546Y-111425145D01*
X126285842Y-111408425D01*
X126308026Y-111392891D01*
X126471401Y-111278495D01*
X126638495Y-111111401D01*
X126774035Y-110917830D01*
X126873903Y-110703663D01*
X126935063Y-110475408D01*
X126955659Y-110240000D01*
X126935063Y-110004592D01*
X126873903Y-109776337D01*
X126774035Y-109562171D01*
X126638495Y-109368599D01*
X126638494Y-109368597D01*
X126471402Y-109201506D01*
X126471396Y-109201501D01*
X126285842Y-109071575D01*
X126242217Y-109016998D01*
X126235023Y-108947500D01*
X126266546Y-108885145D01*
X126285842Y-108868425D01*
X126332278Y-108835910D01*
X126471401Y-108738495D01*
X126638495Y-108571401D01*
X126774035Y-108377830D01*
X126873903Y-108163663D01*
X126935063Y-107935408D01*
X126955659Y-107700000D01*
X126935063Y-107464592D01*
X126873903Y-107236337D01*
X126774035Y-107022171D01*
X126768297Y-107013975D01*
X126638494Y-106828597D01*
X126471402Y-106661506D01*
X126471396Y-106661501D01*
X126285842Y-106531575D01*
X126242217Y-106476998D01*
X126235023Y-106407500D01*
X126266546Y-106345145D01*
X126285842Y-106328425D01*
X126341981Y-106289116D01*
X126471401Y-106198495D01*
X126638495Y-106031401D01*
X126774035Y-105837830D01*
X126873903Y-105623663D01*
X126935063Y-105395408D01*
X126955659Y-105160000D01*
X126935063Y-104924592D01*
X126873903Y-104696337D01*
X126774035Y-104482171D01*
X126708879Y-104389117D01*
X126638494Y-104288597D01*
X126471402Y-104121506D01*
X126471396Y-104121501D01*
X126285842Y-103991575D01*
X126242217Y-103936998D01*
X126235023Y-103867500D01*
X126266546Y-103805145D01*
X126285842Y-103788425D01*
X126308026Y-103772891D01*
X126471401Y-103658495D01*
X126638495Y-103491401D01*
X126774035Y-103297830D01*
X126873903Y-103083663D01*
X126935063Y-102855408D01*
X126955659Y-102620000D01*
X126935063Y-102384592D01*
X126873903Y-102156337D01*
X126774035Y-101942171D01*
X126764683Y-101928814D01*
X126638494Y-101748597D01*
X126471402Y-101581506D01*
X126471396Y-101581501D01*
X126285842Y-101451575D01*
X126242217Y-101396998D01*
X126235023Y-101327500D01*
X126266546Y-101265145D01*
X126285842Y-101248425D01*
X126360528Y-101196129D01*
X126471401Y-101118495D01*
X126638495Y-100951401D01*
X126774035Y-100757830D01*
X126873903Y-100543663D01*
X126935063Y-100315408D01*
X126955659Y-100080000D01*
X126935063Y-99844592D01*
X126873903Y-99616337D01*
X126774035Y-99402171D01*
X126638495Y-99208599D01*
X126638494Y-99208597D01*
X126471402Y-99041506D01*
X126471396Y-99041501D01*
X126285842Y-98911575D01*
X126242217Y-98856998D01*
X126235023Y-98787500D01*
X126266546Y-98725145D01*
X126285842Y-98708425D01*
X126308026Y-98692891D01*
X126471401Y-98578495D01*
X126638495Y-98411401D01*
X126774035Y-98217830D01*
X126873903Y-98003663D01*
X126935063Y-97775408D01*
X126955659Y-97540000D01*
X126935063Y-97304592D01*
X126873903Y-97076337D01*
X126774035Y-96862171D01*
X126644943Y-96677807D01*
X126638494Y-96668597D01*
X126471402Y-96501506D01*
X126471396Y-96501501D01*
X126285842Y-96371575D01*
X126242217Y-96316998D01*
X126235023Y-96247500D01*
X126266546Y-96185145D01*
X126285842Y-96168425D01*
X126309065Y-96152164D01*
X126471401Y-96038495D01*
X126638495Y-95871401D01*
X126774035Y-95677830D01*
X126873903Y-95463663D01*
X126935063Y-95235408D01*
X126955659Y-95000000D01*
X126935063Y-94764592D01*
X126873903Y-94536337D01*
X126774035Y-94322171D01*
X126740454Y-94274211D01*
X126638494Y-94128597D01*
X126471402Y-93961506D01*
X126471396Y-93961501D01*
X126285842Y-93831575D01*
X126242217Y-93776998D01*
X126235023Y-93707500D01*
X126266546Y-93645145D01*
X126285842Y-93628425D01*
X126308026Y-93612891D01*
X126471401Y-93498495D01*
X126638495Y-93331401D01*
X126774035Y-93137830D01*
X126873903Y-92923663D01*
X126935063Y-92695408D01*
X126955659Y-92460000D01*
X126935063Y-92224592D01*
X126873903Y-91996337D01*
X126774035Y-91782171D01*
X126757823Y-91759017D01*
X126638494Y-91588597D01*
X126471402Y-91421506D01*
X126471396Y-91421501D01*
X126285842Y-91291575D01*
X126242217Y-91236998D01*
X126235023Y-91167500D01*
X126266546Y-91105145D01*
X126285842Y-91088425D01*
X126415356Y-90997738D01*
X126471401Y-90958495D01*
X126638495Y-90791401D01*
X126774035Y-90597830D01*
X126873903Y-90383663D01*
X126935063Y-90155408D01*
X126955659Y-89920000D01*
X126935063Y-89684592D01*
X126873903Y-89456337D01*
X126774035Y-89242171D01*
X126638495Y-89048599D01*
X126638494Y-89048597D01*
X126471402Y-88881506D01*
X126471396Y-88881501D01*
X126285842Y-88751575D01*
X126242217Y-88696998D01*
X126235023Y-88627500D01*
X126266546Y-88565145D01*
X126285842Y-88548425D01*
X126308026Y-88532891D01*
X126471401Y-88418495D01*
X126638495Y-88251401D01*
X126774035Y-88057830D01*
X126873903Y-87843663D01*
X126935063Y-87615408D01*
X126955659Y-87380000D01*
X126935063Y-87144592D01*
X126873903Y-86916337D01*
X126774035Y-86702171D01*
X126638495Y-86508599D01*
X126638494Y-86508597D01*
X126471402Y-86341506D01*
X126471396Y-86341501D01*
X126285842Y-86211575D01*
X126242217Y-86156998D01*
X126235023Y-86087500D01*
X126266546Y-86025145D01*
X126285842Y-86008425D01*
X126308026Y-85992891D01*
X126471401Y-85878495D01*
X126638495Y-85711401D01*
X126774035Y-85517830D01*
X126873903Y-85303663D01*
X126935063Y-85075408D01*
X126955659Y-84840000D01*
X126935063Y-84604592D01*
X126873903Y-84376337D01*
X126774035Y-84162171D01*
X126638495Y-83968599D01*
X126638494Y-83968597D01*
X126471402Y-83801506D01*
X126471396Y-83801501D01*
X126285842Y-83671575D01*
X126242217Y-83616998D01*
X126235023Y-83547500D01*
X126266546Y-83485145D01*
X126285842Y-83468425D01*
X126404985Y-83385000D01*
X126471401Y-83338495D01*
X126638495Y-83171401D01*
X126774035Y-82977830D01*
X126873903Y-82763663D01*
X126935063Y-82535408D01*
X126955659Y-82300000D01*
X126935063Y-82064592D01*
X126873903Y-81836337D01*
X126774035Y-81622171D01*
X126638495Y-81428599D01*
X126638494Y-81428597D01*
X126471402Y-81261506D01*
X126471396Y-81261501D01*
X126285842Y-81131575D01*
X126242217Y-81076998D01*
X126235023Y-81007500D01*
X126266546Y-80945145D01*
X126285842Y-80928425D01*
X126308026Y-80912891D01*
X126471401Y-80798495D01*
X126638495Y-80631401D01*
X126774035Y-80437830D01*
X126873903Y-80223663D01*
X126935063Y-79995408D01*
X126955659Y-79760000D01*
X126935063Y-79524592D01*
X126873903Y-79296337D01*
X126774035Y-79082171D01*
X126638495Y-78888599D01*
X126638494Y-78888597D01*
X126471402Y-78721506D01*
X126471396Y-78721501D01*
X126285842Y-78591575D01*
X126242217Y-78536998D01*
X126235023Y-78467500D01*
X126266546Y-78405145D01*
X126285842Y-78388425D01*
X126308026Y-78372891D01*
X126471401Y-78258495D01*
X126638495Y-78091401D01*
X126774035Y-77897830D01*
X126873903Y-77683663D01*
X126935063Y-77455408D01*
X126955659Y-77220000D01*
X126935063Y-76984592D01*
X126873903Y-76756337D01*
X126774035Y-76542171D01*
X126638495Y-76348599D01*
X126516567Y-76226671D01*
X126483084Y-76165351D01*
X126488068Y-76095659D01*
X126529939Y-76039725D01*
X126560915Y-76022810D01*
X126692331Y-75973796D01*
X126807546Y-75887546D01*
X126893796Y-75772331D01*
X126944091Y-75637483D01*
X126950500Y-75577873D01*
X126950499Y-74679999D01*
X149644341Y-74679999D01*
X149644341Y-74680000D01*
X149664936Y-74915403D01*
X149664938Y-74915413D01*
X149726094Y-75143655D01*
X149726096Y-75143659D01*
X149726097Y-75143663D01*
X149805241Y-75313387D01*
X149825965Y-75357830D01*
X149825967Y-75357834D01*
X149961501Y-75551395D01*
X149961506Y-75551402D01*
X150128597Y-75718493D01*
X150128603Y-75718498D01*
X150314158Y-75848425D01*
X150357783Y-75903002D01*
X150364977Y-75972500D01*
X150333454Y-76034855D01*
X150314158Y-76051575D01*
X150128597Y-76181505D01*
X149961505Y-76348597D01*
X149825965Y-76542169D01*
X149825964Y-76542171D01*
X149726098Y-76756335D01*
X149726094Y-76756344D01*
X149664938Y-76984586D01*
X149664936Y-76984596D01*
X149644341Y-77219999D01*
X149644341Y-77220000D01*
X149664936Y-77455403D01*
X149664938Y-77455413D01*
X149726094Y-77683655D01*
X149726096Y-77683659D01*
X149726097Y-77683663D01*
X149825965Y-77897830D01*
X149825967Y-77897834D01*
X149961501Y-78091395D01*
X149961506Y-78091402D01*
X150128597Y-78258493D01*
X150128603Y-78258498D01*
X150314158Y-78388425D01*
X150357783Y-78443002D01*
X150364977Y-78512500D01*
X150333454Y-78574855D01*
X150314158Y-78591575D01*
X150128597Y-78721505D01*
X149961505Y-78888597D01*
X149825965Y-79082169D01*
X149825964Y-79082171D01*
X149726098Y-79296335D01*
X149726094Y-79296344D01*
X149664938Y-79524586D01*
X149664936Y-79524596D01*
X149644341Y-79759999D01*
X149644341Y-79760000D01*
X149664936Y-79995403D01*
X149664938Y-79995413D01*
X149726094Y-80223655D01*
X149726096Y-80223659D01*
X149726097Y-80223663D01*
X149825965Y-80437830D01*
X149825967Y-80437834D01*
X149961501Y-80631395D01*
X149961506Y-80631402D01*
X150128597Y-80798493D01*
X150128603Y-80798498D01*
X150314158Y-80928425D01*
X150357783Y-80983002D01*
X150364977Y-81052500D01*
X150333454Y-81114855D01*
X150314158Y-81131575D01*
X150128597Y-81261505D01*
X149961505Y-81428597D01*
X149825965Y-81622169D01*
X149825964Y-81622171D01*
X149726098Y-81836335D01*
X149726094Y-81836344D01*
X149664938Y-82064586D01*
X149664936Y-82064596D01*
X149644341Y-82299999D01*
X149644341Y-82300000D01*
X149664936Y-82535403D01*
X149664938Y-82535413D01*
X149726094Y-82763655D01*
X149726096Y-82763659D01*
X149726097Y-82763663D01*
X149825965Y-82977830D01*
X149825967Y-82977834D01*
X149961501Y-83171395D01*
X149961506Y-83171402D01*
X150128597Y-83338493D01*
X150128603Y-83338498D01*
X150314158Y-83468425D01*
X150357783Y-83523002D01*
X150364977Y-83592500D01*
X150333454Y-83654855D01*
X150314158Y-83671575D01*
X150128597Y-83801505D01*
X149961505Y-83968597D01*
X149825965Y-84162169D01*
X149825964Y-84162171D01*
X149726098Y-84376335D01*
X149726094Y-84376344D01*
X149664938Y-84604586D01*
X149664936Y-84604596D01*
X149644341Y-84839999D01*
X149644341Y-84840000D01*
X149664936Y-85075403D01*
X149664938Y-85075413D01*
X149726094Y-85303655D01*
X149726096Y-85303659D01*
X149726097Y-85303663D01*
X149776656Y-85412086D01*
X149825965Y-85517830D01*
X149825967Y-85517834D01*
X149961501Y-85711395D01*
X149961506Y-85711402D01*
X150128597Y-85878493D01*
X150128603Y-85878498D01*
X150314158Y-86008425D01*
X150357783Y-86063002D01*
X150364977Y-86132500D01*
X150333454Y-86194855D01*
X150314158Y-86211575D01*
X150128597Y-86341505D01*
X149961505Y-86508597D01*
X149825965Y-86702169D01*
X149825964Y-86702171D01*
X149726098Y-86916335D01*
X149726094Y-86916344D01*
X149664938Y-87144586D01*
X149664936Y-87144596D01*
X149644341Y-87379999D01*
X149644341Y-87380000D01*
X149664936Y-87615403D01*
X149664938Y-87615413D01*
X149726094Y-87843655D01*
X149726096Y-87843659D01*
X149726097Y-87843663D01*
X149825965Y-88057830D01*
X149825967Y-88057834D01*
X149961501Y-88251395D01*
X149961506Y-88251402D01*
X150128597Y-88418493D01*
X150128603Y-88418498D01*
X150314158Y-88548425D01*
X150357783Y-88603002D01*
X150364977Y-88672500D01*
X150333454Y-88734855D01*
X150314158Y-88751575D01*
X150128597Y-88881505D01*
X149961505Y-89048597D01*
X149825965Y-89242169D01*
X149825964Y-89242171D01*
X149726098Y-89456335D01*
X149726094Y-89456344D01*
X149664938Y-89684586D01*
X149664936Y-89684596D01*
X149644341Y-89919999D01*
X149644341Y-89920000D01*
X149664936Y-90155403D01*
X149664938Y-90155413D01*
X149726094Y-90383655D01*
X149726096Y-90383659D01*
X149726097Y-90383663D01*
X149825965Y-90597830D01*
X149825967Y-90597834D01*
X149907749Y-90714630D01*
X149949468Y-90774211D01*
X149961501Y-90791395D01*
X149961506Y-90791402D01*
X150128597Y-90958493D01*
X150128603Y-90958498D01*
X150314158Y-91088425D01*
X150357783Y-91143002D01*
X150364977Y-91212500D01*
X150333454Y-91274855D01*
X150314158Y-91291575D01*
X150128597Y-91421505D01*
X149961505Y-91588597D01*
X149825965Y-91782169D01*
X149825964Y-91782171D01*
X149726098Y-91996335D01*
X149726094Y-91996344D01*
X149664938Y-92224586D01*
X149664936Y-92224596D01*
X149644341Y-92459999D01*
X149644341Y-92460000D01*
X149664936Y-92695403D01*
X149664938Y-92695413D01*
X149726094Y-92923655D01*
X149726096Y-92923659D01*
X149726097Y-92923663D01*
X149825965Y-93137830D01*
X149825967Y-93137834D01*
X149961501Y-93331395D01*
X149961506Y-93331402D01*
X150128597Y-93498493D01*
X150128603Y-93498498D01*
X150314158Y-93628425D01*
X150357783Y-93683002D01*
X150364977Y-93752500D01*
X150333454Y-93814855D01*
X150314158Y-93831575D01*
X150128597Y-93961505D01*
X149961505Y-94128597D01*
X149825965Y-94322169D01*
X149825964Y-94322171D01*
X149726098Y-94536335D01*
X149726094Y-94536344D01*
X149664938Y-94764586D01*
X149664936Y-94764596D01*
X149644341Y-94999999D01*
X149644341Y-95000000D01*
X149664936Y-95235403D01*
X149664938Y-95235413D01*
X149726094Y-95463655D01*
X149726096Y-95463659D01*
X149726097Y-95463663D01*
X149820020Y-95665080D01*
X149825965Y-95677830D01*
X149825967Y-95677834D01*
X149915406Y-95805565D01*
X149956657Y-95864478D01*
X149961501Y-95871395D01*
X149961506Y-95871402D01*
X150128597Y-96038493D01*
X150128603Y-96038498D01*
X150314158Y-96168425D01*
X150357783Y-96223002D01*
X150364977Y-96292500D01*
X150333454Y-96354855D01*
X150314158Y-96371575D01*
X150128597Y-96501505D01*
X149961505Y-96668597D01*
X149825965Y-96862169D01*
X149825964Y-96862171D01*
X149726098Y-97076335D01*
X149726094Y-97076344D01*
X149664938Y-97304586D01*
X149664936Y-97304596D01*
X149644341Y-97539999D01*
X149644341Y-97540000D01*
X149664936Y-97775403D01*
X149664938Y-97775413D01*
X149726094Y-98003655D01*
X149726096Y-98003659D01*
X149726097Y-98003663D01*
X149757584Y-98071186D01*
X149825965Y-98217830D01*
X149825967Y-98217834D01*
X149961501Y-98411395D01*
X149961506Y-98411402D01*
X150128597Y-98578493D01*
X150128603Y-98578498D01*
X150314158Y-98708425D01*
X150357783Y-98763002D01*
X150364977Y-98832500D01*
X150333454Y-98894855D01*
X150314158Y-98911575D01*
X150128597Y-99041505D01*
X149961505Y-99208597D01*
X149825965Y-99402169D01*
X149825964Y-99402171D01*
X149726098Y-99616335D01*
X149726094Y-99616344D01*
X149664938Y-99844586D01*
X149664936Y-99844596D01*
X149644341Y-100079999D01*
X149644341Y-100080000D01*
X149664936Y-100315403D01*
X149664938Y-100315413D01*
X149726094Y-100543655D01*
X149726096Y-100543659D01*
X149726097Y-100543663D01*
X149825965Y-100757830D01*
X149825967Y-100757834D01*
X149961501Y-100951395D01*
X149961506Y-100951402D01*
X150128597Y-101118493D01*
X150128603Y-101118498D01*
X150314158Y-101248425D01*
X150357783Y-101303002D01*
X150364977Y-101372500D01*
X150333454Y-101434855D01*
X150314158Y-101451575D01*
X150128597Y-101581505D01*
X149961505Y-101748597D01*
X149825965Y-101942169D01*
X149825964Y-101942171D01*
X149726098Y-102156335D01*
X149726094Y-102156344D01*
X149664938Y-102384586D01*
X149664936Y-102384596D01*
X149644341Y-102619999D01*
X149644341Y-102620000D01*
X149664936Y-102855403D01*
X149664938Y-102855413D01*
X149726094Y-103083655D01*
X149726096Y-103083659D01*
X149726097Y-103083663D01*
X149825965Y-103297830D01*
X149825967Y-103297834D01*
X149961501Y-103491395D01*
X149961506Y-103491402D01*
X150128597Y-103658493D01*
X150128603Y-103658498D01*
X150314158Y-103788425D01*
X150357783Y-103843002D01*
X150364977Y-103912500D01*
X150333454Y-103974855D01*
X150314158Y-103991575D01*
X150128597Y-104121505D01*
X149961505Y-104288597D01*
X149825965Y-104482169D01*
X149825964Y-104482171D01*
X149726098Y-104696335D01*
X149726094Y-104696344D01*
X149664938Y-104924586D01*
X149664936Y-104924596D01*
X149644341Y-105159999D01*
X149644341Y-105160000D01*
X149664936Y-105395403D01*
X149664938Y-105395413D01*
X149726094Y-105623655D01*
X149726096Y-105623659D01*
X149726097Y-105623663D01*
X149742357Y-105658532D01*
X149825965Y-105837830D01*
X149825967Y-105837834D01*
X149961501Y-106031395D01*
X149961506Y-106031402D01*
X150128597Y-106198493D01*
X150128603Y-106198498D01*
X150314158Y-106328425D01*
X150357783Y-106383002D01*
X150364977Y-106452500D01*
X150333454Y-106514855D01*
X150314158Y-106531575D01*
X150128597Y-106661505D01*
X149961505Y-106828597D01*
X149825965Y-107022169D01*
X149825964Y-107022171D01*
X149726098Y-107236335D01*
X149726094Y-107236344D01*
X149664938Y-107464586D01*
X149664936Y-107464596D01*
X149644341Y-107699999D01*
X149644341Y-107700000D01*
X149664936Y-107935403D01*
X149664938Y-107935413D01*
X149726094Y-108163655D01*
X149726096Y-108163659D01*
X149726097Y-108163663D01*
X149825965Y-108377830D01*
X149825967Y-108377834D01*
X149961501Y-108571395D01*
X149961506Y-108571402D01*
X150128597Y-108738493D01*
X150128603Y-108738498D01*
X150314158Y-108868425D01*
X150357783Y-108923002D01*
X150364977Y-108992500D01*
X150333454Y-109054855D01*
X150314158Y-109071575D01*
X150128597Y-109201505D01*
X149961505Y-109368597D01*
X149825965Y-109562169D01*
X149825964Y-109562171D01*
X149726098Y-109776335D01*
X149726094Y-109776344D01*
X149664938Y-110004586D01*
X149664936Y-110004596D01*
X149644341Y-110239999D01*
X149644341Y-110240000D01*
X149664936Y-110475403D01*
X149664938Y-110475413D01*
X149726094Y-110703655D01*
X149726096Y-110703659D01*
X149726097Y-110703663D01*
X149825965Y-110917830D01*
X149825967Y-110917834D01*
X149961501Y-111111395D01*
X149961506Y-111111402D01*
X150128597Y-111278493D01*
X150128603Y-111278498D01*
X150314158Y-111408425D01*
X150357783Y-111463002D01*
X150364977Y-111532500D01*
X150333454Y-111594855D01*
X150314158Y-111611575D01*
X150128597Y-111741505D01*
X149961505Y-111908597D01*
X149825965Y-112102169D01*
X149825964Y-112102171D01*
X149726098Y-112316335D01*
X149726094Y-112316344D01*
X149664938Y-112544586D01*
X149664936Y-112544596D01*
X149644341Y-112779999D01*
X149644341Y-112780000D01*
X149664936Y-113015403D01*
X149664938Y-113015413D01*
X149726094Y-113243655D01*
X149726096Y-113243659D01*
X149726097Y-113243663D01*
X149804980Y-113412827D01*
X149825965Y-113457830D01*
X149825967Y-113457834D01*
X149961501Y-113651395D01*
X149961506Y-113651402D01*
X150128597Y-113818493D01*
X150128603Y-113818498D01*
X150314158Y-113948425D01*
X150357783Y-114003002D01*
X150364977Y-114072500D01*
X150333454Y-114134855D01*
X150314158Y-114151575D01*
X150128597Y-114281505D01*
X149961505Y-114448597D01*
X149825965Y-114642169D01*
X149825964Y-114642171D01*
X149726098Y-114856335D01*
X149726094Y-114856344D01*
X149664938Y-115084586D01*
X149664936Y-115084596D01*
X149644341Y-115319999D01*
X149644341Y-115320000D01*
X149664936Y-115555403D01*
X149664938Y-115555413D01*
X149726094Y-115783655D01*
X149726096Y-115783659D01*
X149726097Y-115783663D01*
X149777805Y-115894551D01*
X149825965Y-115997830D01*
X149825967Y-115997834D01*
X149961501Y-116191395D01*
X149961506Y-116191402D01*
X150128597Y-116358493D01*
X150128603Y-116358498D01*
X150314158Y-116488425D01*
X150357783Y-116543002D01*
X150364977Y-116612500D01*
X150333454Y-116674855D01*
X150314158Y-116691575D01*
X150128597Y-116821505D01*
X149961505Y-116988597D01*
X149825965Y-117182169D01*
X149825964Y-117182171D01*
X149726098Y-117396335D01*
X149726094Y-117396344D01*
X149664938Y-117624586D01*
X149664936Y-117624596D01*
X149644341Y-117859999D01*
X149644341Y-117860000D01*
X149664936Y-118095403D01*
X149664938Y-118095413D01*
X149726094Y-118323655D01*
X149726096Y-118323659D01*
X149726097Y-118323663D01*
X149782051Y-118443656D01*
X149825965Y-118537830D01*
X149825967Y-118537834D01*
X149934281Y-118692521D01*
X149961505Y-118731401D01*
X150128599Y-118898495D01*
X150212420Y-118957187D01*
X150322165Y-119034032D01*
X150322167Y-119034033D01*
X150322170Y-119034035D01*
X150536337Y-119133903D01*
X150764592Y-119195063D01*
X150952918Y-119211539D01*
X150999999Y-119215659D01*
X151000000Y-119215659D01*
X151000001Y-119215659D01*
X151039234Y-119212226D01*
X151235408Y-119195063D01*
X151463663Y-119133903D01*
X151677830Y-119034035D01*
X151871401Y-118898495D01*
X152038495Y-118731401D01*
X152174035Y-118537830D01*
X152273903Y-118323663D01*
X152335063Y-118095408D01*
X152355659Y-117860000D01*
X152335063Y-117624592D01*
X152273903Y-117396337D01*
X152174035Y-117182171D01*
X152088414Y-117059890D01*
X152038494Y-116988597D01*
X151871402Y-116821506D01*
X151871396Y-116821501D01*
X151685842Y-116691575D01*
X151642217Y-116636998D01*
X151635023Y-116567500D01*
X151666546Y-116505145D01*
X151685842Y-116488425D01*
X151794732Y-116412179D01*
X151871401Y-116358495D01*
X151877741Y-116352155D01*
X156280000Y-116352155D01*
X156280000Y-117250000D01*
X157389252Y-117250000D01*
X157367482Y-117287708D01*
X157330000Y-117427591D01*
X157330000Y-117572409D01*
X157367482Y-117712292D01*
X157389252Y-117750000D01*
X156280000Y-117750000D01*
X156280000Y-118647844D01*
X156286401Y-118707372D01*
X156286403Y-118707379D01*
X156336645Y-118842086D01*
X156336649Y-118842093D01*
X156422809Y-118957187D01*
X156422812Y-118957190D01*
X156537906Y-119043350D01*
X156537913Y-119043354D01*
X156672620Y-119093596D01*
X156672627Y-119093598D01*
X156732155Y-119099999D01*
X156732172Y-119100000D01*
X157630000Y-119100000D01*
X157630000Y-117990747D01*
X157667708Y-118012518D01*
X157807591Y-118050000D01*
X157952409Y-118050000D01*
X158092292Y-118012518D01*
X158130000Y-117990747D01*
X158130000Y-119100000D01*
X159027828Y-119100000D01*
X159027844Y-119099999D01*
X159087372Y-119093598D01*
X159087379Y-119093596D01*
X159222086Y-119043354D01*
X159222093Y-119043350D01*
X159337186Y-118957190D01*
X159394498Y-118880633D01*
X159450432Y-118838762D01*
X159520124Y-118833778D01*
X159558555Y-118849217D01*
X159691140Y-118930466D01*
X159923889Y-119026873D01*
X160168852Y-119085683D01*
X160420000Y-119105449D01*
X160671148Y-119085683D01*
X160916111Y-119026873D01*
X161148859Y-118930466D01*
X161363659Y-118798836D01*
X161555224Y-118635224D01*
X161595710Y-118587819D01*
X161654216Y-118549627D01*
X161724084Y-118549128D01*
X161783130Y-118586482D01*
X161784235Y-118587756D01*
X161818179Y-118627500D01*
X161824776Y-118635224D01*
X162016343Y-118798838D01*
X162016346Y-118798839D01*
X162231140Y-118930466D01*
X162463889Y-119026873D01*
X162708852Y-119085683D01*
X162960000Y-119105449D01*
X163211148Y-119085683D01*
X163456111Y-119026873D01*
X163688859Y-118930466D01*
X163903659Y-118798836D01*
X164095224Y-118635224D01*
X164135710Y-118587819D01*
X164194216Y-118549627D01*
X164264084Y-118549128D01*
X164323130Y-118586482D01*
X164324235Y-118587756D01*
X164358179Y-118627500D01*
X164364776Y-118635224D01*
X164556343Y-118798838D01*
X164556346Y-118798839D01*
X164771140Y-118930466D01*
X165003889Y-119026873D01*
X165248852Y-119085683D01*
X165500000Y-119105449D01*
X165751148Y-119085683D01*
X165996111Y-119026873D01*
X166228859Y-118930466D01*
X166443659Y-118798836D01*
X166635224Y-118635224D01*
X166798836Y-118443659D01*
X166930466Y-118228859D01*
X167026873Y-117996111D01*
X167085683Y-117751148D01*
X167105449Y-117500000D01*
X167085683Y-117248852D01*
X167026873Y-117003889D01*
X166951328Y-116821506D01*
X166930466Y-116771140D01*
X166798839Y-116556346D01*
X166798838Y-116556343D01*
X166708755Y-116450870D01*
X166635224Y-116364776D01*
X166508571Y-116256604D01*
X166443656Y-116201161D01*
X166443653Y-116201160D01*
X166228859Y-116069533D01*
X165996110Y-115973126D01*
X165751151Y-115914317D01*
X165500000Y-115894551D01*
X165248848Y-115914317D01*
X165003889Y-115973126D01*
X164771140Y-116069533D01*
X164556346Y-116201160D01*
X164556343Y-116201161D01*
X164364776Y-116364776D01*
X164324290Y-116412179D01*
X164265783Y-116450372D01*
X164195915Y-116450870D01*
X164136869Y-116413516D01*
X164135710Y-116412179D01*
X164095224Y-116364776D01*
X163968571Y-116256604D01*
X163903656Y-116201161D01*
X163903653Y-116201160D01*
X163688859Y-116069533D01*
X163456110Y-115973126D01*
X163211151Y-115914317D01*
X162960000Y-115894551D01*
X162708848Y-115914317D01*
X162463889Y-115973126D01*
X162231140Y-116069533D01*
X162016346Y-116201160D01*
X162016343Y-116201161D01*
X161824776Y-116364776D01*
X161784290Y-116412179D01*
X161725783Y-116450372D01*
X161655915Y-116450870D01*
X161596869Y-116413516D01*
X161595710Y-116412179D01*
X161555224Y-116364776D01*
X161428571Y-116256604D01*
X161363656Y-116201161D01*
X161363653Y-116201160D01*
X161148859Y-116069533D01*
X160916110Y-115973126D01*
X160671151Y-115914317D01*
X160420000Y-115894551D01*
X160168848Y-115914317D01*
X159923889Y-115973126D01*
X159691145Y-116069531D01*
X159558555Y-116150783D01*
X159491109Y-116169027D01*
X159424506Y-116147910D01*
X159394499Y-116119366D01*
X159337190Y-116042812D01*
X159337187Y-116042809D01*
X159222093Y-115956649D01*
X159222086Y-115956645D01*
X159087379Y-115906403D01*
X159087372Y-115906401D01*
X159027844Y-115900000D01*
X158130000Y-115900000D01*
X158130000Y-117009252D01*
X158092292Y-116987482D01*
X157952409Y-116950000D01*
X157807591Y-116950000D01*
X157667708Y-116987482D01*
X157630000Y-117009252D01*
X157630000Y-115900000D01*
X156732155Y-115900000D01*
X156672627Y-115906401D01*
X156672620Y-115906403D01*
X156537913Y-115956645D01*
X156537906Y-115956649D01*
X156422812Y-116042809D01*
X156422809Y-116042812D01*
X156336649Y-116157906D01*
X156336645Y-116157913D01*
X156286403Y-116292620D01*
X156286401Y-116292627D01*
X156280000Y-116352155D01*
X151877741Y-116352155D01*
X152038495Y-116191401D01*
X152174035Y-115997830D01*
X152273903Y-115783663D01*
X152335063Y-115555408D01*
X152355659Y-115320000D01*
X152335063Y-115084592D01*
X152273903Y-114856337D01*
X152174035Y-114642171D01*
X152074487Y-114500000D01*
X152074486Y-114499999D01*
X169869678Y-114499999D01*
X169869678Y-114500000D01*
X169888923Y-114707691D01*
X169888923Y-114707693D01*
X169888924Y-114707696D01*
X169931216Y-114856337D01*
X169946007Y-114908322D01*
X170038981Y-115095038D01*
X170099454Y-115175117D01*
X170124146Y-115240477D01*
X170124500Y-115249843D01*
X170124500Y-118750156D01*
X170104815Y-118817195D01*
X170099459Y-118824875D01*
X170077324Y-118854187D01*
X170038981Y-118904961D01*
X169946007Y-119091677D01*
X169888923Y-119292308D01*
X169869678Y-119499999D01*
X169869678Y-119500000D01*
X169888923Y-119707691D01*
X169888923Y-119707693D01*
X169888924Y-119707696D01*
X169946006Y-119908319D01*
X170038981Y-120095038D01*
X170164682Y-120261493D01*
X170318829Y-120402016D01*
X170496172Y-120511823D01*
X170690673Y-120587173D01*
X170895707Y-120625500D01*
X170895710Y-120625500D01*
X171104290Y-120625500D01*
X171104293Y-120625500D01*
X171309327Y-120587173D01*
X171503828Y-120511823D01*
X171681171Y-120402016D01*
X171835318Y-120261493D01*
X171961019Y-120095038D01*
X172053994Y-119908319D01*
X172111076Y-119707696D01*
X172130322Y-119500000D01*
X172111076Y-119292304D01*
X172053994Y-119091681D01*
X171961019Y-118904962D01*
X171900545Y-118824881D01*
X171875854Y-118759522D01*
X171875500Y-118750156D01*
X171875500Y-116352155D01*
X173280000Y-116352155D01*
X173280000Y-117250000D01*
X174389252Y-117250000D01*
X174367482Y-117287708D01*
X174330000Y-117427591D01*
X174330000Y-117572409D01*
X174367482Y-117712292D01*
X174389252Y-117750000D01*
X173280000Y-117750000D01*
X173280000Y-118647844D01*
X173286401Y-118707372D01*
X173286403Y-118707379D01*
X173336645Y-118842086D01*
X173336649Y-118842093D01*
X173422809Y-118957187D01*
X173422812Y-118957190D01*
X173537906Y-119043350D01*
X173537913Y-119043354D01*
X173672620Y-119093596D01*
X173672627Y-119093598D01*
X173732155Y-119099999D01*
X173732172Y-119100000D01*
X174630000Y-119100000D01*
X174630000Y-117990747D01*
X174667708Y-118012518D01*
X174807591Y-118050000D01*
X174952409Y-118050000D01*
X175092292Y-118012518D01*
X175130000Y-117990747D01*
X175130000Y-119100000D01*
X176027828Y-119100000D01*
X176027844Y-119099999D01*
X176087372Y-119093598D01*
X176087379Y-119093596D01*
X176222086Y-119043354D01*
X176222093Y-119043350D01*
X176337186Y-118957190D01*
X176394498Y-118880633D01*
X176450432Y-118838762D01*
X176520124Y-118833778D01*
X176558555Y-118849217D01*
X176691140Y-118930466D01*
X176923889Y-119026873D01*
X177168852Y-119085683D01*
X177420000Y-119105449D01*
X177671148Y-119085683D01*
X177916111Y-119026873D01*
X178148859Y-118930466D01*
X178363659Y-118798836D01*
X178555224Y-118635224D01*
X178595710Y-118587819D01*
X178654216Y-118549627D01*
X178724084Y-118549128D01*
X178783130Y-118586482D01*
X178784235Y-118587756D01*
X178818179Y-118627500D01*
X178824776Y-118635224D01*
X179016343Y-118798838D01*
X179016346Y-118798839D01*
X179231140Y-118930466D01*
X179463889Y-119026873D01*
X179708852Y-119085683D01*
X179960000Y-119105449D01*
X180211148Y-119085683D01*
X180456111Y-119026873D01*
X180688859Y-118930466D01*
X180903659Y-118798836D01*
X181095224Y-118635224D01*
X181135710Y-118587819D01*
X181194216Y-118549627D01*
X181264084Y-118549128D01*
X181323130Y-118586482D01*
X181324235Y-118587756D01*
X181358179Y-118627500D01*
X181364776Y-118635224D01*
X181556343Y-118798838D01*
X181556346Y-118798839D01*
X181771140Y-118930466D01*
X182003889Y-119026873D01*
X182248852Y-119085683D01*
X182500000Y-119105449D01*
X182751148Y-119085683D01*
X182996111Y-119026873D01*
X183228859Y-118930466D01*
X183443659Y-118798836D01*
X183635224Y-118635224D01*
X183798836Y-118443659D01*
X183930466Y-118228859D01*
X184026873Y-117996111D01*
X184085683Y-117751148D01*
X184105449Y-117500000D01*
X184085683Y-117248852D01*
X184026873Y-117003889D01*
X183951328Y-116821506D01*
X183930466Y-116771140D01*
X183798839Y-116556346D01*
X183798838Y-116556343D01*
X183708755Y-116450870D01*
X183635224Y-116364776D01*
X183508571Y-116256604D01*
X183443656Y-116201161D01*
X183443653Y-116201160D01*
X183228859Y-116069533D01*
X182996110Y-115973126D01*
X182751151Y-115914317D01*
X182500000Y-115894551D01*
X182248848Y-115914317D01*
X182003889Y-115973126D01*
X181771140Y-116069533D01*
X181556346Y-116201160D01*
X181556343Y-116201161D01*
X181364776Y-116364776D01*
X181324290Y-116412179D01*
X181265783Y-116450372D01*
X181195915Y-116450870D01*
X181136869Y-116413516D01*
X181135710Y-116412179D01*
X181095224Y-116364776D01*
X180968571Y-116256604D01*
X180903656Y-116201161D01*
X180903653Y-116201160D01*
X180688859Y-116069533D01*
X180456110Y-115973126D01*
X180211151Y-115914317D01*
X179960000Y-115894551D01*
X179708848Y-115914317D01*
X179463889Y-115973126D01*
X179231140Y-116069533D01*
X179016346Y-116201160D01*
X179016343Y-116201161D01*
X178824776Y-116364776D01*
X178784290Y-116412179D01*
X178725783Y-116450372D01*
X178655915Y-116450870D01*
X178596869Y-116413516D01*
X178595710Y-116412179D01*
X178555224Y-116364776D01*
X178428571Y-116256604D01*
X178363656Y-116201161D01*
X178363653Y-116201160D01*
X178148859Y-116069533D01*
X177916110Y-115973126D01*
X177671151Y-115914317D01*
X177420000Y-115894551D01*
X177168848Y-115914317D01*
X176923889Y-115973126D01*
X176691145Y-116069531D01*
X176558555Y-116150783D01*
X176491109Y-116169027D01*
X176424506Y-116147910D01*
X176394499Y-116119366D01*
X176337190Y-116042812D01*
X176337187Y-116042809D01*
X176222093Y-115956649D01*
X176222086Y-115956645D01*
X176087379Y-115906403D01*
X176087372Y-115906401D01*
X176027844Y-115900000D01*
X175130000Y-115900000D01*
X175130000Y-117009252D01*
X175092292Y-116987482D01*
X174952409Y-116950000D01*
X174807591Y-116950000D01*
X174667708Y-116987482D01*
X174630000Y-117009252D01*
X174630000Y-115900000D01*
X173732155Y-115900000D01*
X173672627Y-115906401D01*
X173672620Y-115906403D01*
X173537913Y-115956645D01*
X173537906Y-115956649D01*
X173422812Y-116042809D01*
X173422809Y-116042812D01*
X173336649Y-116157906D01*
X173336645Y-116157913D01*
X173286403Y-116292620D01*
X173286401Y-116292627D01*
X173280000Y-116352155D01*
X171875500Y-116352155D01*
X171875500Y-115249843D01*
X171895185Y-115182804D01*
X171900538Y-115175127D01*
X171961019Y-115095038D01*
X172053994Y-114908319D01*
X172111076Y-114707696D01*
X172130322Y-114500000D01*
X172111076Y-114292304D01*
X172053994Y-114091681D01*
X171961019Y-113904962D01*
X171835318Y-113738507D01*
X171681171Y-113597984D01*
X171503828Y-113488177D01*
X171503827Y-113488176D01*
X171361609Y-113433081D01*
X171309327Y-113412827D01*
X171104293Y-113374500D01*
X170895707Y-113374500D01*
X170690673Y-113412827D01*
X170690670Y-113412827D01*
X170690670Y-113412828D01*
X170496172Y-113488176D01*
X170496171Y-113488177D01*
X170318827Y-113597985D01*
X170164683Y-113738505D01*
X170038981Y-113904961D01*
X169946007Y-114091677D01*
X169888923Y-114292308D01*
X169869678Y-114499999D01*
X152074486Y-114499999D01*
X152038494Y-114448597D01*
X151871402Y-114281506D01*
X151871396Y-114281501D01*
X151685842Y-114151575D01*
X151642217Y-114096998D01*
X151635023Y-114027500D01*
X151666546Y-113965145D01*
X151685842Y-113948425D01*
X151747915Y-113904961D01*
X151871401Y-113818495D01*
X152038495Y-113651401D01*
X152174035Y-113457830D01*
X152273903Y-113243663D01*
X152335063Y-113015408D01*
X152355659Y-112780000D01*
X152335063Y-112544592D01*
X152273903Y-112316337D01*
X152174035Y-112102171D01*
X152038495Y-111908599D01*
X152038494Y-111908597D01*
X151871402Y-111741506D01*
X151871396Y-111741501D01*
X151685842Y-111611575D01*
X151642217Y-111556998D01*
X151635023Y-111487500D01*
X151666546Y-111425145D01*
X151685842Y-111408425D01*
X151708026Y-111392891D01*
X151871401Y-111278495D01*
X152038495Y-111111401D01*
X152174035Y-110917830D01*
X152273903Y-110703663D01*
X152335063Y-110475408D01*
X152355659Y-110240000D01*
X152335063Y-110004592D01*
X152273903Y-109776337D01*
X152174035Y-109562171D01*
X152038495Y-109368599D01*
X152038494Y-109368597D01*
X151871402Y-109201506D01*
X151871396Y-109201501D01*
X151685842Y-109071575D01*
X151642217Y-109016998D01*
X151635023Y-108947500D01*
X151666546Y-108885145D01*
X151685842Y-108868425D01*
X151732278Y-108835910D01*
X151871401Y-108738495D01*
X152038495Y-108571401D01*
X152174035Y-108377830D01*
X152273903Y-108163663D01*
X152317756Y-108000000D01*
X164994659Y-108000000D01*
X165013975Y-108196129D01*
X165071188Y-108384733D01*
X165164086Y-108558532D01*
X165164090Y-108558539D01*
X165289116Y-108710883D01*
X165441460Y-108835909D01*
X165441467Y-108835913D01*
X165615266Y-108928811D01*
X165615269Y-108928811D01*
X165615273Y-108928814D01*
X165803868Y-108986024D01*
X166000000Y-109005341D01*
X166196132Y-108986024D01*
X166384727Y-108928814D01*
X166395601Y-108923002D01*
X166558532Y-108835913D01*
X166558538Y-108835910D01*
X166628313Y-108778647D01*
X166692623Y-108751334D01*
X166706978Y-108750500D01*
X169293022Y-108750500D01*
X169360061Y-108770185D01*
X169371687Y-108778647D01*
X169441460Y-108835909D01*
X169441467Y-108835913D01*
X169615266Y-108928811D01*
X169615269Y-108928811D01*
X169615273Y-108928814D01*
X169803868Y-108986024D01*
X170000000Y-109005341D01*
X170196132Y-108986024D01*
X170384727Y-108928814D01*
X170395601Y-108923002D01*
X170558532Y-108835913D01*
X170558538Y-108835910D01*
X170710883Y-108710883D01*
X170835910Y-108558538D01*
X170921530Y-108398354D01*
X170928811Y-108384733D01*
X170928811Y-108384732D01*
X170928814Y-108384727D01*
X170986024Y-108196132D01*
X171005341Y-108000000D01*
X170986024Y-107803868D01*
X170928814Y-107615273D01*
X170928811Y-107615269D01*
X170928811Y-107615266D01*
X170835913Y-107441467D01*
X170835909Y-107441460D01*
X170710883Y-107289116D01*
X170558539Y-107164090D01*
X170558532Y-107164086D01*
X170384733Y-107071188D01*
X170384727Y-107071186D01*
X170196132Y-107013976D01*
X170196129Y-107013975D01*
X170000000Y-106994659D01*
X169803870Y-107013975D01*
X169615266Y-107071188D01*
X169441467Y-107164086D01*
X169441460Y-107164090D01*
X169371687Y-107221353D01*
X169307377Y-107248666D01*
X169293022Y-107249500D01*
X166706978Y-107249500D01*
X166639939Y-107229815D01*
X166628313Y-107221353D01*
X166558539Y-107164090D01*
X166558532Y-107164086D01*
X166384733Y-107071188D01*
X166384727Y-107071186D01*
X166196132Y-107013976D01*
X166196129Y-107013975D01*
X166000000Y-106994659D01*
X165803870Y-107013975D01*
X165615266Y-107071188D01*
X165441467Y-107164086D01*
X165441460Y-107164090D01*
X165289116Y-107289116D01*
X165164090Y-107441460D01*
X165164086Y-107441467D01*
X165071188Y-107615266D01*
X165013975Y-107803870D01*
X164994659Y-108000000D01*
X152317756Y-108000000D01*
X152335063Y-107935408D01*
X152355659Y-107700000D01*
X152335063Y-107464592D01*
X152273903Y-107236337D01*
X152174035Y-107022171D01*
X152168297Y-107013975D01*
X152038494Y-106828597D01*
X151871402Y-106661506D01*
X151871396Y-106661501D01*
X151685842Y-106531575D01*
X151642217Y-106476998D01*
X151635023Y-106407500D01*
X151666546Y-106345145D01*
X151685842Y-106328425D01*
X151741981Y-106289116D01*
X151871401Y-106198495D01*
X152038495Y-106031401D01*
X152174035Y-105837830D01*
X152273903Y-105623663D01*
X152335063Y-105395408D01*
X152355659Y-105160000D01*
X152335063Y-104924592D01*
X152273903Y-104696337D01*
X152174035Y-104482171D01*
X152108879Y-104389117D01*
X152038494Y-104288597D01*
X151871402Y-104121506D01*
X151871396Y-104121501D01*
X151685842Y-103991575D01*
X151642217Y-103936998D01*
X151635023Y-103867500D01*
X151666546Y-103805145D01*
X151685842Y-103788425D01*
X151708026Y-103772891D01*
X151871401Y-103658495D01*
X152038495Y-103491401D01*
X152174035Y-103297830D01*
X152273903Y-103083663D01*
X152335063Y-102855408D01*
X152355659Y-102620000D01*
X152335063Y-102384592D01*
X152273903Y-102156337D01*
X152174035Y-101942171D01*
X152164683Y-101928814D01*
X152038494Y-101748597D01*
X151871402Y-101581506D01*
X151871396Y-101581501D01*
X151685842Y-101451575D01*
X151642217Y-101396998D01*
X151635023Y-101327500D01*
X151666546Y-101265145D01*
X151685842Y-101248425D01*
X151760528Y-101196129D01*
X151871401Y-101118495D01*
X152038495Y-100951401D01*
X152174035Y-100757830D01*
X152273903Y-100543663D01*
X152335063Y-100315408D01*
X152355659Y-100080000D01*
X152335063Y-99844592D01*
X152273903Y-99616337D01*
X152174035Y-99402171D01*
X152038495Y-99208599D01*
X152038494Y-99208597D01*
X151871402Y-99041506D01*
X151871396Y-99041501D01*
X151812126Y-99000000D01*
X158494659Y-99000000D01*
X158513975Y-99196129D01*
X158571187Y-99384730D01*
X158609858Y-99457076D01*
X158624500Y-99515530D01*
X158624500Y-103984469D01*
X158609858Y-104042922D01*
X158571188Y-104115267D01*
X158513975Y-104303870D01*
X158494659Y-104500000D01*
X158513975Y-104696129D01*
X158571188Y-104884733D01*
X158664086Y-105058532D01*
X158664090Y-105058539D01*
X158789116Y-105210883D01*
X158941460Y-105335909D01*
X158941467Y-105335913D01*
X159115266Y-105428811D01*
X159115269Y-105428811D01*
X159115273Y-105428814D01*
X159303868Y-105486024D01*
X159500000Y-105505341D01*
X159696132Y-105486024D01*
X159884727Y-105428814D01*
X160058538Y-105335910D01*
X160210883Y-105210883D01*
X160301883Y-105100000D01*
X185481185Y-105100000D01*
X185500501Y-105296129D01*
X185557714Y-105484733D01*
X185650612Y-105658532D01*
X185650616Y-105658539D01*
X185775642Y-105810883D01*
X185927986Y-105935909D01*
X185927990Y-105935911D01*
X185936840Y-105940642D01*
X185986684Y-105989605D01*
X186002144Y-106057743D01*
X185978312Y-106123422D01*
X185936840Y-106159358D01*
X185927990Y-106164088D01*
X185927986Y-106164090D01*
X185775642Y-106289116D01*
X185650616Y-106441460D01*
X185650612Y-106441467D01*
X185557714Y-106615266D01*
X185500501Y-106803870D01*
X185481185Y-107000000D01*
X185500501Y-107196129D01*
X185557714Y-107384733D01*
X185650612Y-107558532D01*
X185650616Y-107558539D01*
X185775642Y-107710883D01*
X185927986Y-107835909D01*
X185927993Y-107835913D01*
X186101792Y-107928811D01*
X186101795Y-107928811D01*
X186101799Y-107928814D01*
X186290394Y-107986024D01*
X186486526Y-108005341D01*
X186682658Y-107986024D01*
X186871253Y-107928814D01*
X187045064Y-107835910D01*
X187197409Y-107710883D01*
X187322436Y-107558538D01*
X187385012Y-107441467D01*
X187415337Y-107384733D01*
X187415337Y-107384732D01*
X187415340Y-107384727D01*
X187472550Y-107196132D01*
X187491867Y-107000000D01*
X187472550Y-106803868D01*
X187415340Y-106615273D01*
X187415337Y-106615269D01*
X187415337Y-106615266D01*
X187322439Y-106441467D01*
X187322435Y-106441460D01*
X187197409Y-106289116D01*
X187045065Y-106164091D01*
X187045064Y-106164090D01*
X187036213Y-106159359D01*
X186986369Y-106110398D01*
X186970907Y-106042261D01*
X186994737Y-105976581D01*
X187036212Y-105940641D01*
X187045064Y-105935910D01*
X187197409Y-105810883D01*
X187322436Y-105658538D01*
X187415340Y-105484727D01*
X187472550Y-105296132D01*
X187491867Y-105100000D01*
X187472550Y-104903868D01*
X187415340Y-104715273D01*
X187415337Y-104715269D01*
X187415337Y-104715266D01*
X187322439Y-104541467D01*
X187322435Y-104541460D01*
X187197409Y-104389116D01*
X187045065Y-104264090D01*
X187045058Y-104264086D01*
X186871259Y-104171188D01*
X186871253Y-104171186D01*
X186707478Y-104121505D01*
X186682655Y-104113975D01*
X186486526Y-104094659D01*
X186290396Y-104113975D01*
X186101792Y-104171188D01*
X185927993Y-104264086D01*
X185927986Y-104264090D01*
X185775642Y-104389116D01*
X185650616Y-104541460D01*
X185650612Y-104541467D01*
X185557714Y-104715266D01*
X185500501Y-104903870D01*
X185481185Y-105100000D01*
X160301883Y-105100000D01*
X160335910Y-105058538D01*
X160428814Y-104884727D01*
X160486024Y-104696132D01*
X160505341Y-104500000D01*
X160486024Y-104303868D01*
X160428814Y-104115273D01*
X160390142Y-104042922D01*
X160375500Y-103984469D01*
X160375500Y-101000000D01*
X162494659Y-101000000D01*
X162513975Y-101196129D01*
X162571188Y-101384733D01*
X162664086Y-101558532D01*
X162664090Y-101558539D01*
X162789116Y-101710883D01*
X162941460Y-101835909D01*
X162941467Y-101835913D01*
X163115266Y-101928811D01*
X163115269Y-101928811D01*
X163115273Y-101928814D01*
X163303868Y-101986024D01*
X163500000Y-102005341D01*
X163696132Y-101986024D01*
X163884727Y-101928814D01*
X164058538Y-101835910D01*
X164128313Y-101778647D01*
X164192623Y-101751334D01*
X164206978Y-101750500D01*
X164793022Y-101750500D01*
X164860061Y-101770185D01*
X164871687Y-101778647D01*
X164941460Y-101835909D01*
X164941467Y-101835913D01*
X165115266Y-101928811D01*
X165115269Y-101928811D01*
X165115273Y-101928814D01*
X165303868Y-101986024D01*
X165500000Y-102005341D01*
X165696132Y-101986024D01*
X165884727Y-101928814D01*
X166058538Y-101835910D01*
X166210883Y-101710883D01*
X166335910Y-101558538D01*
X166428814Y-101384727D01*
X166486024Y-101196132D01*
X166505341Y-101000000D01*
X166486024Y-100803868D01*
X166428814Y-100615273D01*
X166428811Y-100615269D01*
X166428811Y-100615266D01*
X166335913Y-100441467D01*
X166335909Y-100441460D01*
X166210883Y-100289116D01*
X166058539Y-100164090D01*
X166058532Y-100164086D01*
X165884733Y-100071188D01*
X165884727Y-100071186D01*
X165696132Y-100013976D01*
X165696129Y-100013975D01*
X165500000Y-99994659D01*
X165303870Y-100013975D01*
X165115266Y-100071188D01*
X164941467Y-100164086D01*
X164941460Y-100164090D01*
X164871687Y-100221353D01*
X164807377Y-100248666D01*
X164793022Y-100249500D01*
X164206978Y-100249500D01*
X164139939Y-100229815D01*
X164128313Y-100221353D01*
X164058539Y-100164090D01*
X164058532Y-100164086D01*
X163884733Y-100071188D01*
X163884727Y-100071186D01*
X163696132Y-100013976D01*
X163696129Y-100013975D01*
X163500000Y-99994659D01*
X163303870Y-100013975D01*
X163115266Y-100071188D01*
X162941467Y-100164086D01*
X162941460Y-100164090D01*
X162789116Y-100289116D01*
X162664090Y-100441460D01*
X162664086Y-100441467D01*
X162571188Y-100615266D01*
X162513975Y-100803870D01*
X162494659Y-101000000D01*
X160375500Y-101000000D01*
X160375500Y-99515530D01*
X160390142Y-99457076D01*
X160428812Y-99384730D01*
X160428814Y-99384727D01*
X160486024Y-99196132D01*
X160505341Y-99000000D01*
X160486024Y-98803868D01*
X160428814Y-98615273D01*
X160428811Y-98615269D01*
X160428811Y-98615266D01*
X160335913Y-98441467D01*
X160335909Y-98441460D01*
X160210883Y-98289116D01*
X160058539Y-98164090D01*
X160058532Y-98164086D01*
X159884733Y-98071188D01*
X159884727Y-98071186D01*
X159696132Y-98013976D01*
X159696129Y-98013975D01*
X159500000Y-97994659D01*
X159303870Y-98013975D01*
X159115266Y-98071188D01*
X158941467Y-98164086D01*
X158941460Y-98164090D01*
X158789116Y-98289116D01*
X158664090Y-98441460D01*
X158664086Y-98441467D01*
X158571188Y-98615266D01*
X158513975Y-98803870D01*
X158494659Y-99000000D01*
X151812126Y-99000000D01*
X151685842Y-98911575D01*
X151642217Y-98856998D01*
X151635023Y-98787500D01*
X151666546Y-98725145D01*
X151685842Y-98708425D01*
X151708026Y-98692891D01*
X151871401Y-98578495D01*
X152038495Y-98411401D01*
X152174035Y-98217830D01*
X152273903Y-98003663D01*
X152335063Y-97775408D01*
X152355659Y-97540000D01*
X152335063Y-97304592D01*
X152273903Y-97076337D01*
X152174035Y-96862171D01*
X152044943Y-96677807D01*
X152038494Y-96668597D01*
X151871402Y-96501506D01*
X151871396Y-96501501D01*
X151869252Y-96500000D01*
X171144815Y-96500000D01*
X171163503Y-96677805D01*
X171163504Y-96677807D01*
X171218747Y-96847829D01*
X171218750Y-96847835D01*
X171308141Y-97002665D01*
X171349812Y-97048946D01*
X171427764Y-97135521D01*
X171427767Y-97135523D01*
X171427770Y-97135526D01*
X171572407Y-97240612D01*
X171735733Y-97313329D01*
X171910609Y-97350500D01*
X171910610Y-97350500D01*
X172089389Y-97350500D01*
X172089391Y-97350500D01*
X172264267Y-97313329D01*
X172381306Y-97261219D01*
X172431741Y-97250500D01*
X177068259Y-97250500D01*
X177118693Y-97261219D01*
X177235733Y-97313329D01*
X177410609Y-97350500D01*
X177410610Y-97350500D01*
X177589389Y-97350500D01*
X177589391Y-97350500D01*
X177764267Y-97313329D01*
X177927593Y-97240612D01*
X178072230Y-97135526D01*
X178191859Y-97002665D01*
X178281250Y-96847835D01*
X178336497Y-96677803D01*
X178355185Y-96500000D01*
X178336497Y-96322197D01*
X178308873Y-96237181D01*
X178281252Y-96152170D01*
X178281249Y-96152164D01*
X178215624Y-96038498D01*
X178191859Y-95997335D01*
X178145003Y-95945296D01*
X178072235Y-95864478D01*
X178072232Y-95864476D01*
X178072231Y-95864475D01*
X178072230Y-95864474D01*
X177927593Y-95759388D01*
X177764267Y-95686671D01*
X177764265Y-95686670D01*
X177636594Y-95659533D01*
X177589391Y-95649500D01*
X177410609Y-95649500D01*
X177379954Y-95656015D01*
X177235733Y-95686670D01*
X177118694Y-95738780D01*
X177068259Y-95749500D01*
X172431741Y-95749500D01*
X172381306Y-95738780D01*
X172264267Y-95686671D01*
X172264265Y-95686670D01*
X172136594Y-95659533D01*
X172089391Y-95649500D01*
X171910609Y-95649500D01*
X171879954Y-95656015D01*
X171735733Y-95686670D01*
X171735728Y-95686672D01*
X171572408Y-95759387D01*
X171427768Y-95864475D01*
X171308140Y-95997336D01*
X171218750Y-96152164D01*
X171218747Y-96152170D01*
X171163504Y-96322192D01*
X171163503Y-96322194D01*
X171144815Y-96500000D01*
X151869252Y-96500000D01*
X151685842Y-96371575D01*
X151642217Y-96316998D01*
X151635023Y-96247500D01*
X151666546Y-96185145D01*
X151685842Y-96168425D01*
X151709065Y-96152164D01*
X151871401Y-96038495D01*
X152038495Y-95871401D01*
X152174035Y-95677830D01*
X152273903Y-95463663D01*
X152335063Y-95235408D01*
X152355659Y-95000000D01*
X152335063Y-94764592D01*
X152273903Y-94536337D01*
X152174035Y-94322171D01*
X152140454Y-94274211D01*
X152038494Y-94128597D01*
X151871402Y-93961506D01*
X151871396Y-93961501D01*
X151685842Y-93831575D01*
X151642217Y-93776998D01*
X151635023Y-93707500D01*
X151666546Y-93645145D01*
X151685842Y-93628425D01*
X151708026Y-93612891D01*
X151871401Y-93498495D01*
X152038495Y-93331401D01*
X152174035Y-93137830D01*
X152273903Y-92923663D01*
X152335063Y-92695408D01*
X152355659Y-92460000D01*
X152335063Y-92224592D01*
X152273903Y-91996337D01*
X152174035Y-91782171D01*
X152157823Y-91759017D01*
X152038494Y-91588597D01*
X151871402Y-91421506D01*
X151871396Y-91421501D01*
X151685842Y-91291575D01*
X151642217Y-91236998D01*
X151635023Y-91167500D01*
X151666546Y-91105145D01*
X151685842Y-91088425D01*
X151815356Y-90997738D01*
X151871401Y-90958495D01*
X152038495Y-90791401D01*
X152174035Y-90597830D01*
X152273903Y-90383663D01*
X152335063Y-90155408D01*
X152355659Y-89920000D01*
X152335063Y-89684592D01*
X152273903Y-89456337D01*
X152174035Y-89242171D01*
X152038495Y-89048599D01*
X152038494Y-89048597D01*
X151871402Y-88881506D01*
X151871396Y-88881501D01*
X151685842Y-88751575D01*
X151642217Y-88696998D01*
X151635023Y-88627500D01*
X151666546Y-88565145D01*
X151685842Y-88548425D01*
X151708026Y-88532891D01*
X151871401Y-88418495D01*
X152038495Y-88251401D01*
X152174035Y-88057830D01*
X152273903Y-87843663D01*
X152335063Y-87615408D01*
X152355659Y-87380000D01*
X152335063Y-87144592D01*
X152273903Y-86916337D01*
X152174035Y-86702171D01*
X152038495Y-86508599D01*
X152038494Y-86508597D01*
X151871402Y-86341506D01*
X151871396Y-86341501D01*
X151685842Y-86211575D01*
X151642217Y-86156998D01*
X151635023Y-86087500D01*
X151666546Y-86025145D01*
X151685842Y-86008425D01*
X151708026Y-85992891D01*
X151871401Y-85878495D01*
X152038495Y-85711401D01*
X152174035Y-85517830D01*
X152273903Y-85303663D01*
X152335063Y-85075408D01*
X152355659Y-84840000D01*
X152335063Y-84604592D01*
X152273903Y-84376337D01*
X152174035Y-84162171D01*
X152038495Y-83968599D01*
X152038494Y-83968597D01*
X151871402Y-83801506D01*
X151871396Y-83801501D01*
X151685842Y-83671575D01*
X151642217Y-83616998D01*
X151635023Y-83547500D01*
X151666546Y-83485145D01*
X151685842Y-83468425D01*
X151804985Y-83385000D01*
X151871401Y-83338495D01*
X152038495Y-83171401D01*
X152174035Y-82977830D01*
X152273903Y-82763663D01*
X152335063Y-82535408D01*
X152355659Y-82300000D01*
X152335063Y-82064592D01*
X152273903Y-81836337D01*
X152174035Y-81622171D01*
X152038495Y-81428599D01*
X152038494Y-81428597D01*
X151871402Y-81261506D01*
X151871396Y-81261501D01*
X151685842Y-81131575D01*
X151642217Y-81076998D01*
X151635023Y-81007500D01*
X151666546Y-80945145D01*
X151685842Y-80928425D01*
X151708026Y-80912891D01*
X151871401Y-80798495D01*
X152038495Y-80631401D01*
X152174035Y-80437830D01*
X152273903Y-80223663D01*
X152335063Y-79995408D01*
X152355659Y-79760000D01*
X152335063Y-79524592D01*
X152273903Y-79296337D01*
X152174035Y-79082171D01*
X152038495Y-78888599D01*
X152038494Y-78888597D01*
X151871402Y-78721506D01*
X151871396Y-78721501D01*
X151685842Y-78591575D01*
X151642217Y-78536998D01*
X151635023Y-78467500D01*
X151666546Y-78405145D01*
X151685842Y-78388425D01*
X151708026Y-78372891D01*
X151871401Y-78258495D01*
X152038495Y-78091401D01*
X152174035Y-77897830D01*
X152273903Y-77683663D01*
X152335063Y-77455408D01*
X152355659Y-77220000D01*
X152335063Y-76984592D01*
X152273903Y-76756337D01*
X152174035Y-76542171D01*
X152038495Y-76348599D01*
X152038494Y-76348597D01*
X151871402Y-76181506D01*
X151871396Y-76181501D01*
X151685842Y-76051575D01*
X151642217Y-75996998D01*
X151635023Y-75927500D01*
X151666546Y-75865145D01*
X151685842Y-75848425D01*
X151720200Y-75824367D01*
X151871401Y-75718495D01*
X152038495Y-75551401D01*
X152174035Y-75357830D01*
X152273903Y-75143663D01*
X152335063Y-74915408D01*
X152355659Y-74680000D01*
X152335063Y-74444592D01*
X152273903Y-74216337D01*
X152174035Y-74002171D01*
X152172514Y-73999998D01*
X152038494Y-73808597D01*
X151871402Y-73641506D01*
X151871395Y-73641501D01*
X151677834Y-73505967D01*
X151677830Y-73505965D01*
X151665038Y-73500000D01*
X156314551Y-73500000D01*
X156334317Y-73751151D01*
X156393126Y-73996110D01*
X156489533Y-74228859D01*
X156621160Y-74443653D01*
X156621161Y-74443656D01*
X156621964Y-74444596D01*
X156784776Y-74635224D01*
X156933066Y-74761875D01*
X156976343Y-74798838D01*
X156976346Y-74798839D01*
X157191140Y-74930466D01*
X157422737Y-75026396D01*
X157423889Y-75026873D01*
X157668852Y-75085683D01*
X157920000Y-75105449D01*
X158171148Y-75085683D01*
X158416111Y-75026873D01*
X158648859Y-74930466D01*
X158863659Y-74798836D01*
X159055224Y-74635224D01*
X159218836Y-74443659D01*
X159299879Y-74311408D01*
X159317919Y-74288526D01*
X159936212Y-73670234D01*
X159947482Y-73712292D01*
X160019890Y-73837708D01*
X160122292Y-73940110D01*
X160247708Y-74012518D01*
X160289763Y-74023787D01*
X159515819Y-74797732D01*
X159515819Y-74797733D01*
X159516634Y-74798429D01*
X159731368Y-74930019D01*
X159964043Y-75026396D01*
X160208927Y-75085187D01*
X160460000Y-75104947D01*
X160711072Y-75085187D01*
X160955956Y-75026396D01*
X161188627Y-74930020D01*
X161320714Y-74849077D01*
X161388160Y-74830832D01*
X161454763Y-74851948D01*
X161484771Y-74880492D01*
X161542455Y-74957547D01*
X161657664Y-75043793D01*
X161657671Y-75043797D01*
X161792517Y-75094091D01*
X161792516Y-75094091D01*
X161799444Y-75094835D01*
X161852127Y-75100500D01*
X164147872Y-75100499D01*
X164207483Y-75094091D01*
X164342331Y-75043796D01*
X164457546Y-74957546D01*
X164543796Y-74842331D01*
X164594091Y-74707483D01*
X164600500Y-74647873D01*
X164600500Y-73999998D01*
X168994390Y-73999998D01*
X168994390Y-74000001D01*
X169014804Y-74285433D01*
X169075628Y-74565037D01*
X169075630Y-74565043D01*
X169075631Y-74565046D01*
X169162831Y-74798838D01*
X169175635Y-74833166D01*
X169312770Y-75084309D01*
X169312775Y-75084317D01*
X169484254Y-75313387D01*
X169484270Y-75313405D01*
X169686594Y-75515729D01*
X169686612Y-75515745D01*
X169915682Y-75687224D01*
X169915690Y-75687229D01*
X170166833Y-75824364D01*
X170166832Y-75824364D01*
X170166836Y-75824365D01*
X170166839Y-75824367D01*
X170434954Y-75924369D01*
X170434960Y-75924370D01*
X170434962Y-75924371D01*
X170714566Y-75985195D01*
X170714568Y-75985195D01*
X170714572Y-75985196D01*
X170968220Y-76003337D01*
X170999999Y-76005610D01*
X171000000Y-76005610D01*
X171000001Y-76005610D01*
X171028595Y-76003564D01*
X171285428Y-75985196D01*
X171565046Y-75924369D01*
X171833161Y-75824367D01*
X172084315Y-75687226D01*
X172313395Y-75515739D01*
X172515739Y-75313395D01*
X172687226Y-75084315D01*
X172824367Y-74833161D01*
X172924369Y-74565046D01*
X172985196Y-74285428D01*
X173005610Y-74000000D01*
X173005610Y-73999998D01*
X174994390Y-73999998D01*
X174994390Y-74000001D01*
X175014804Y-74285433D01*
X175075628Y-74565037D01*
X175075630Y-74565043D01*
X175075631Y-74565046D01*
X175162831Y-74798838D01*
X175175635Y-74833166D01*
X175312770Y-75084309D01*
X175312775Y-75084317D01*
X175484254Y-75313387D01*
X175484270Y-75313405D01*
X175686594Y-75515729D01*
X175686612Y-75515745D01*
X175915682Y-75687224D01*
X175915690Y-75687229D01*
X176166833Y-75824364D01*
X176166832Y-75824364D01*
X176166836Y-75824365D01*
X176166839Y-75824367D01*
X176434954Y-75924369D01*
X176434960Y-75924370D01*
X176434962Y-75924371D01*
X176714566Y-75985195D01*
X176714568Y-75985195D01*
X176714572Y-75985196D01*
X176968220Y-76003337D01*
X176999999Y-76005610D01*
X177000000Y-76005610D01*
X177000001Y-76005610D01*
X177028595Y-76003564D01*
X177285428Y-75985196D01*
X177565046Y-75924369D01*
X177833161Y-75824367D01*
X178084315Y-75687226D01*
X178313395Y-75515739D01*
X178515739Y-75313395D01*
X178687226Y-75084315D01*
X178824367Y-74833161D01*
X178924369Y-74565046D01*
X178985196Y-74285428D01*
X179005610Y-74000000D01*
X178985196Y-73714572D01*
X178969301Y-73641505D01*
X178924371Y-73434962D01*
X178924370Y-73434960D01*
X178924369Y-73434954D01*
X178824367Y-73166839D01*
X178733267Y-73000003D01*
X178687229Y-72915690D01*
X178687224Y-72915682D01*
X178515745Y-72686612D01*
X178515729Y-72686594D01*
X178313405Y-72484270D01*
X178313387Y-72484254D01*
X178084317Y-72312775D01*
X178084309Y-72312770D01*
X177833166Y-72175635D01*
X177833167Y-72175635D01*
X177682682Y-72119507D01*
X177565046Y-72075631D01*
X177565043Y-72075630D01*
X177565037Y-72075628D01*
X177285433Y-72014804D01*
X177000001Y-71994390D01*
X176999999Y-71994390D01*
X176714566Y-72014804D01*
X176434962Y-72075628D01*
X176166833Y-72175635D01*
X175915690Y-72312770D01*
X175915682Y-72312775D01*
X175686612Y-72484254D01*
X175686594Y-72484270D01*
X175484270Y-72686594D01*
X175484254Y-72686612D01*
X175312775Y-72915682D01*
X175312770Y-72915690D01*
X175175635Y-73166833D01*
X175075628Y-73434962D01*
X175014804Y-73714566D01*
X174994390Y-73999998D01*
X173005610Y-73999998D01*
X172985196Y-73714572D01*
X172969301Y-73641505D01*
X172924371Y-73434962D01*
X172924370Y-73434960D01*
X172924369Y-73434954D01*
X172824367Y-73166839D01*
X172733267Y-73000003D01*
X172687229Y-72915690D01*
X172687224Y-72915682D01*
X172515745Y-72686612D01*
X172515729Y-72686594D01*
X172313405Y-72484270D01*
X172313387Y-72484254D01*
X172084317Y-72312775D01*
X172084309Y-72312770D01*
X171833166Y-72175635D01*
X171833167Y-72175635D01*
X171682682Y-72119507D01*
X171565046Y-72075631D01*
X171565043Y-72075630D01*
X171565037Y-72075628D01*
X171285433Y-72014804D01*
X171000001Y-71994390D01*
X170999999Y-71994390D01*
X170714566Y-72014804D01*
X170434962Y-72075628D01*
X170166833Y-72175635D01*
X169915690Y-72312770D01*
X169915682Y-72312775D01*
X169686612Y-72484254D01*
X169686594Y-72484270D01*
X169484270Y-72686594D01*
X169484254Y-72686612D01*
X169312775Y-72915682D01*
X169312770Y-72915690D01*
X169175635Y-73166833D01*
X169075628Y-73434962D01*
X169014804Y-73714566D01*
X168994390Y-73999998D01*
X164600500Y-73999998D01*
X164600499Y-72352128D01*
X164594091Y-72292517D01*
X164587263Y-72274211D01*
X164543797Y-72157671D01*
X164543793Y-72157664D01*
X164457547Y-72042455D01*
X164457544Y-72042452D01*
X164342335Y-71956206D01*
X164342328Y-71956202D01*
X164207482Y-71905908D01*
X164207483Y-71905908D01*
X164147883Y-71899501D01*
X164147881Y-71899500D01*
X164147873Y-71899500D01*
X164147865Y-71899500D01*
X163443574Y-71899500D01*
X163376535Y-71879815D01*
X163330780Y-71827011D01*
X163320836Y-71757853D01*
X163349861Y-71694297D01*
X163374683Y-71672398D01*
X163510289Y-71581789D01*
X163621786Y-71470292D01*
X163621789Y-71470289D01*
X163709394Y-71339179D01*
X163769737Y-71193497D01*
X163800500Y-71038842D01*
X163800500Y-70881158D01*
X163800500Y-70881155D01*
X163800499Y-70881153D01*
X163788377Y-70820212D01*
X163769737Y-70726503D01*
X163769735Y-70726498D01*
X163709397Y-70580827D01*
X163709390Y-70580814D01*
X163621789Y-70449711D01*
X163621786Y-70449707D01*
X163510292Y-70338213D01*
X163510288Y-70338210D01*
X163379185Y-70250609D01*
X163379172Y-70250602D01*
X163233501Y-70190264D01*
X163233489Y-70190261D01*
X163078845Y-70159500D01*
X163078842Y-70159500D01*
X162921158Y-70159500D01*
X162921155Y-70159500D01*
X162766510Y-70190261D01*
X162766498Y-70190264D01*
X162620827Y-70250602D01*
X162620814Y-70250609D01*
X162489711Y-70338210D01*
X162489707Y-70338213D01*
X162378213Y-70449707D01*
X162378210Y-70449711D01*
X162290609Y-70580814D01*
X162290602Y-70580827D01*
X162230264Y-70726498D01*
X162230261Y-70726510D01*
X162199500Y-70881153D01*
X162199500Y-71038846D01*
X162230261Y-71193489D01*
X162230264Y-71193501D01*
X162290602Y-71339172D01*
X162290609Y-71339185D01*
X162378210Y-71470288D01*
X162378213Y-71470292D01*
X162489707Y-71581786D01*
X162489711Y-71581789D01*
X162625316Y-71672398D01*
X162670121Y-71726010D01*
X162678828Y-71795335D01*
X162648674Y-71858363D01*
X162589230Y-71895082D01*
X162556425Y-71899500D01*
X161852129Y-71899500D01*
X161852123Y-71899501D01*
X161792516Y-71905908D01*
X161657671Y-71956202D01*
X161657664Y-71956206D01*
X161542455Y-72042452D01*
X161484771Y-72119507D01*
X161428836Y-72161378D01*
X161359145Y-72166361D01*
X161320715Y-72150922D01*
X161188631Y-72069980D01*
X160955956Y-71973603D01*
X160788170Y-71933322D01*
X160727578Y-71898531D01*
X160695414Y-71836505D01*
X160701890Y-71766936D01*
X160744950Y-71711912D01*
X160769658Y-71698189D01*
X160839179Y-71669394D01*
X160970289Y-71581789D01*
X161081789Y-71470289D01*
X161169394Y-71339179D01*
X161229737Y-71193497D01*
X161260500Y-71038842D01*
X161260500Y-70881158D01*
X161260500Y-70881155D01*
X161260499Y-70881153D01*
X161248377Y-70820212D01*
X161229737Y-70726503D01*
X161229735Y-70726498D01*
X161169397Y-70580827D01*
X161169390Y-70580814D01*
X161081789Y-70449711D01*
X161081786Y-70449707D01*
X160970292Y-70338213D01*
X160970288Y-70338210D01*
X160839185Y-70250609D01*
X160839172Y-70250602D01*
X160693501Y-70190264D01*
X160693489Y-70190261D01*
X160538845Y-70159500D01*
X160538842Y-70159500D01*
X160381158Y-70159500D01*
X160381155Y-70159500D01*
X160226510Y-70190261D01*
X160226498Y-70190264D01*
X160080827Y-70250602D01*
X160080814Y-70250609D01*
X159949711Y-70338210D01*
X159949707Y-70338213D01*
X159838213Y-70449707D01*
X159838210Y-70449711D01*
X159750609Y-70580814D01*
X159750602Y-70580827D01*
X159690264Y-70726498D01*
X159690261Y-70726510D01*
X159659500Y-70881153D01*
X159659500Y-71038846D01*
X159690261Y-71193489D01*
X159690264Y-71193501D01*
X159750602Y-71339172D01*
X159750609Y-71339185D01*
X159838210Y-71470288D01*
X159838213Y-71470292D01*
X159949707Y-71581786D01*
X159949711Y-71581789D01*
X160080814Y-71669390D01*
X160080818Y-71669392D01*
X160080821Y-71669394D01*
X160150336Y-71698188D01*
X160204738Y-71742027D01*
X160226803Y-71808321D01*
X160209524Y-71876020D01*
X160158388Y-71923631D01*
X160131829Y-71933322D01*
X159964043Y-71973603D01*
X159731368Y-72069980D01*
X159516637Y-72201567D01*
X159515819Y-72202266D01*
X160289765Y-72976212D01*
X160247708Y-72987482D01*
X160122292Y-73059890D01*
X160019890Y-73162292D01*
X159947482Y-73287708D01*
X159936212Y-73329765D01*
X159317919Y-72711472D01*
X159299876Y-72688586D01*
X159218836Y-72556341D01*
X159055224Y-72364776D01*
X158879426Y-72214630D01*
X158863656Y-72201161D01*
X158863653Y-72201160D01*
X158648859Y-72069533D01*
X158416110Y-71973126D01*
X158248956Y-71932997D01*
X158188364Y-71898206D01*
X158156200Y-71836180D01*
X158162676Y-71766611D01*
X158205735Y-71711587D01*
X158230451Y-71697862D01*
X158299173Y-71669397D01*
X158299176Y-71669395D01*
X158299179Y-71669394D01*
X158430289Y-71581789D01*
X158541789Y-71470289D01*
X158629394Y-71339179D01*
X158689737Y-71193497D01*
X158720500Y-71038842D01*
X158720500Y-70881158D01*
X158720500Y-70881155D01*
X158720499Y-70881153D01*
X158708377Y-70820212D01*
X158689737Y-70726503D01*
X158689735Y-70726498D01*
X158629397Y-70580827D01*
X158629390Y-70580814D01*
X158541789Y-70449711D01*
X158541786Y-70449707D01*
X158430292Y-70338213D01*
X158430288Y-70338210D01*
X158299185Y-70250609D01*
X158299172Y-70250602D01*
X158153501Y-70190264D01*
X158153489Y-70190261D01*
X157998845Y-70159500D01*
X157998842Y-70159500D01*
X157841158Y-70159500D01*
X157841155Y-70159500D01*
X157686510Y-70190261D01*
X157686498Y-70190264D01*
X157540827Y-70250602D01*
X157540814Y-70250609D01*
X157409711Y-70338210D01*
X157409707Y-70338213D01*
X157298213Y-70449707D01*
X157298210Y-70449711D01*
X157210609Y-70580814D01*
X157210602Y-70580827D01*
X157150264Y-70726498D01*
X157150261Y-70726510D01*
X157119500Y-70881153D01*
X157119500Y-71038846D01*
X157150261Y-71193489D01*
X157150264Y-71193501D01*
X157210602Y-71339172D01*
X157210609Y-71339185D01*
X157298210Y-71470288D01*
X157298213Y-71470292D01*
X157409707Y-71581786D01*
X157409711Y-71581789D01*
X157540814Y-71669390D01*
X157540827Y-71669397D01*
X157609548Y-71697862D01*
X157663952Y-71741703D01*
X157686017Y-71807997D01*
X157668738Y-71875696D01*
X157617601Y-71923307D01*
X157591043Y-71932997D01*
X157423889Y-71973126D01*
X157191140Y-72069533D01*
X156976346Y-72201160D01*
X156976343Y-72201161D01*
X156784776Y-72364776D01*
X156621161Y-72556343D01*
X156621160Y-72556346D01*
X156489533Y-72771140D01*
X156393126Y-73003889D01*
X156334317Y-73248848D01*
X156314551Y-73500000D01*
X151665038Y-73500000D01*
X151608511Y-73473641D01*
X151463663Y-73406097D01*
X151463659Y-73406096D01*
X151463655Y-73406094D01*
X151235413Y-73344938D01*
X151235403Y-73344936D01*
X151000001Y-73324341D01*
X150999999Y-73324341D01*
X150764596Y-73344936D01*
X150764586Y-73344938D01*
X150536344Y-73406094D01*
X150536335Y-73406098D01*
X150322171Y-73505964D01*
X150322169Y-73505965D01*
X150128597Y-73641505D01*
X149961505Y-73808597D01*
X149825965Y-74002169D01*
X149825964Y-74002171D01*
X149726098Y-74216335D01*
X149726094Y-74216344D01*
X149664938Y-74444586D01*
X149664936Y-74444596D01*
X149644341Y-74679999D01*
X126950499Y-74679999D01*
X126950499Y-73782128D01*
X126944091Y-73722517D01*
X126941125Y-73714566D01*
X126893797Y-73587671D01*
X126893793Y-73587664D01*
X126807547Y-73472455D01*
X126807544Y-73472452D01*
X126692335Y-73386206D01*
X126692328Y-73386202D01*
X126557482Y-73335908D01*
X126557483Y-73335908D01*
X126497883Y-73329501D01*
X126497881Y-73329500D01*
X126497873Y-73329500D01*
X126497864Y-73329500D01*
X124702129Y-73329500D01*
X124702123Y-73329501D01*
X124642516Y-73335908D01*
X124507671Y-73386202D01*
X124507664Y-73386206D01*
X124392455Y-73472452D01*
X124392452Y-73472455D01*
X124306206Y-73587664D01*
X124306202Y-73587671D01*
X124255908Y-73722517D01*
X124252830Y-73751151D01*
X124249501Y-73782123D01*
X124249500Y-73782135D01*
X124249500Y-75577870D01*
X124249501Y-75577876D01*
X124255908Y-75637483D01*
X124306202Y-75772328D01*
X124306206Y-75772335D01*
X124392452Y-75887544D01*
X124392455Y-75887547D01*
X124507664Y-75973793D01*
X124507671Y-75973797D01*
X124639081Y-76022810D01*
X124695015Y-76064681D01*
X124719432Y-76130145D01*
X124704580Y-76198418D01*
X124683430Y-76226673D01*
X124561503Y-76348600D01*
X124425965Y-76542169D01*
X124425964Y-76542171D01*
X124326098Y-76756335D01*
X124326094Y-76756344D01*
X124264938Y-76984586D01*
X124264936Y-76984596D01*
X124244341Y-77219999D01*
X94000000Y-77219999D01*
X94000000Y-72999996D01*
X110194435Y-72999996D01*
X110194435Y-73000003D01*
X110214630Y-73179249D01*
X110214631Y-73179254D01*
X110274211Y-73349523D01*
X110351453Y-73472452D01*
X110370184Y-73502262D01*
X110497738Y-73629816D01*
X110516335Y-73641501D01*
X110645270Y-73722517D01*
X110650478Y-73725789D01*
X110811506Y-73782135D01*
X110820745Y-73785368D01*
X110820750Y-73785369D01*
X110999996Y-73805565D01*
X111000000Y-73805565D01*
X111000004Y-73805565D01*
X111179249Y-73785369D01*
X111179252Y-73785368D01*
X111179255Y-73785368D01*
X111349522Y-73725789D01*
X111475700Y-73646505D01*
X111541672Y-73627500D01*
X112958328Y-73627500D01*
X113024300Y-73646506D01*
X113145270Y-73722517D01*
X113150478Y-73725789D01*
X113311506Y-73782135D01*
X113320745Y-73785368D01*
X113320750Y-73785369D01*
X113499996Y-73805565D01*
X113500000Y-73805565D01*
X113500004Y-73805565D01*
X113679249Y-73785369D01*
X113679252Y-73785368D01*
X113679255Y-73785368D01*
X113849522Y-73725789D01*
X114002262Y-73629816D01*
X114129816Y-73502262D01*
X114225789Y-73349522D01*
X114285368Y-73179255D01*
X114286768Y-73166833D01*
X114305565Y-73000003D01*
X114305565Y-72999996D01*
X114285369Y-72820750D01*
X114285368Y-72820745D01*
X114238430Y-72686605D01*
X114225789Y-72650478D01*
X114129816Y-72497738D01*
X114002262Y-72370184D01*
X113973526Y-72352128D01*
X113849523Y-72274211D01*
X113679254Y-72214631D01*
X113679249Y-72214630D01*
X113500004Y-72194435D01*
X113499996Y-72194435D01*
X113320750Y-72214630D01*
X113320745Y-72214631D01*
X113150476Y-72274211D01*
X113024300Y-72353494D01*
X112958328Y-72372500D01*
X111541672Y-72372500D01*
X111475700Y-72353494D01*
X111349523Y-72274211D01*
X111179254Y-72214631D01*
X111179249Y-72214630D01*
X111000004Y-72194435D01*
X110999996Y-72194435D01*
X110820750Y-72214630D01*
X110820745Y-72214631D01*
X110650476Y-72274211D01*
X110497737Y-72370184D01*
X110370184Y-72497737D01*
X110274211Y-72650476D01*
X110214631Y-72820745D01*
X110214630Y-72820750D01*
X110194435Y-72999996D01*
X94000000Y-72999996D01*
X94000000Y-69878711D01*
X124449500Y-69878711D01*
X124449500Y-70121288D01*
X124481161Y-70361785D01*
X124543947Y-70596104D01*
X124597963Y-70726510D01*
X124636776Y-70820212D01*
X124758064Y-71030289D01*
X124758066Y-71030292D01*
X124758067Y-71030293D01*
X124905733Y-71222736D01*
X124905739Y-71222743D01*
X125077256Y-71394260D01*
X125077263Y-71394266D01*
X125190321Y-71481018D01*
X125269711Y-71541936D01*
X125479788Y-71663224D01*
X125703900Y-71756054D01*
X125938211Y-71818838D01*
X126072408Y-71836505D01*
X126178711Y-71850500D01*
X126178712Y-71850500D01*
X126421289Y-71850500D01*
X126469388Y-71844167D01*
X126661789Y-71818838D01*
X126896100Y-71756054D01*
X127120212Y-71663224D01*
X127330289Y-71541936D01*
X127522738Y-71394265D01*
X127694265Y-71222738D01*
X127841936Y-71030289D01*
X127963224Y-70820212D01*
X128056054Y-70596100D01*
X128118838Y-70361789D01*
X128150500Y-70121288D01*
X128150500Y-69878712D01*
X128150500Y-69878711D01*
X148449500Y-69878711D01*
X148449500Y-70121288D01*
X148481161Y-70361785D01*
X148543947Y-70596104D01*
X148597963Y-70726510D01*
X148636776Y-70820212D01*
X148758064Y-71030289D01*
X148758066Y-71030292D01*
X148758067Y-71030293D01*
X148905733Y-71222736D01*
X148905739Y-71222743D01*
X149077256Y-71394260D01*
X149077263Y-71394266D01*
X149190321Y-71481018D01*
X149269711Y-71541936D01*
X149479788Y-71663224D01*
X149703900Y-71756054D01*
X149938211Y-71818838D01*
X150072408Y-71836505D01*
X150178711Y-71850500D01*
X150178712Y-71850500D01*
X150421289Y-71850500D01*
X150469388Y-71844167D01*
X150661789Y-71818838D01*
X150896100Y-71756054D01*
X151120212Y-71663224D01*
X151330289Y-71541936D01*
X151522738Y-71394265D01*
X151694265Y-71222738D01*
X151841936Y-71030289D01*
X151963224Y-70820212D01*
X152056054Y-70596100D01*
X152118838Y-70361789D01*
X152150500Y-70121288D01*
X152150500Y-69878712D01*
X152118838Y-69638211D01*
X152056054Y-69403900D01*
X151963224Y-69179788D01*
X151841936Y-68969711D01*
X151694265Y-68777262D01*
X151694260Y-68777256D01*
X151522743Y-68605739D01*
X151522736Y-68605733D01*
X151330293Y-68458067D01*
X151330292Y-68458066D01*
X151330289Y-68458064D01*
X151120212Y-68336776D01*
X151120205Y-68336773D01*
X150896104Y-68243947D01*
X150661785Y-68181161D01*
X150421289Y-68149500D01*
X150421288Y-68149500D01*
X150178712Y-68149500D01*
X150178711Y-68149500D01*
X149938214Y-68181161D01*
X149703895Y-68243947D01*
X149479794Y-68336773D01*
X149479785Y-68336777D01*
X149269706Y-68458067D01*
X149077263Y-68605733D01*
X149077256Y-68605739D01*
X148905739Y-68777256D01*
X148905733Y-68777263D01*
X148758067Y-68969706D01*
X148636777Y-69179785D01*
X148636773Y-69179794D01*
X148543947Y-69403895D01*
X148481161Y-69638214D01*
X148449500Y-69878711D01*
X128150500Y-69878711D01*
X128118838Y-69638211D01*
X128056054Y-69403900D01*
X127963224Y-69179788D01*
X127841936Y-68969711D01*
X127694265Y-68777262D01*
X127694260Y-68777256D01*
X127522743Y-68605739D01*
X127522736Y-68605733D01*
X127330293Y-68458067D01*
X127330292Y-68458066D01*
X127330289Y-68458064D01*
X127120212Y-68336776D01*
X127120205Y-68336773D01*
X126896104Y-68243947D01*
X126661785Y-68181161D01*
X126421289Y-68149500D01*
X126421288Y-68149500D01*
X126178712Y-68149500D01*
X126178711Y-68149500D01*
X125938214Y-68181161D01*
X125703895Y-68243947D01*
X125479794Y-68336773D01*
X125479785Y-68336777D01*
X125269706Y-68458067D01*
X125077263Y-68605733D01*
X125077256Y-68605739D01*
X124905739Y-68777256D01*
X124905733Y-68777263D01*
X124758067Y-68969706D01*
X124636777Y-69179785D01*
X124636773Y-69179794D01*
X124543947Y-69403895D01*
X124481161Y-69638214D01*
X124449500Y-69878711D01*
X94000000Y-69878711D01*
X94000000Y-66000000D01*
X105854551Y-66000000D01*
X105874317Y-66251151D01*
X105933126Y-66496110D01*
X106029533Y-66728859D01*
X106161160Y-66943653D01*
X106161161Y-66943656D01*
X106161164Y-66943659D01*
X106324776Y-67135224D01*
X106473066Y-67261875D01*
X106516343Y-67298838D01*
X106516346Y-67298839D01*
X106731140Y-67430466D01*
X106963889Y-67526873D01*
X107208852Y-67585683D01*
X107460000Y-67605449D01*
X107711148Y-67585683D01*
X107956111Y-67526873D01*
X108188859Y-67430466D01*
X108321019Y-67349477D01*
X108388461Y-67331234D01*
X108455064Y-67352350D01*
X108485072Y-67380894D01*
X108542187Y-67457190D01*
X108542455Y-67457547D01*
X108657664Y-67543793D01*
X108657671Y-67543797D01*
X108792517Y-67594091D01*
X108792516Y-67594091D01*
X108799444Y-67594835D01*
X108852127Y-67600500D01*
X111147872Y-67600499D01*
X111207483Y-67594091D01*
X111342331Y-67543796D01*
X111457546Y-67457546D01*
X111543796Y-67342331D01*
X111594091Y-67207483D01*
X111600500Y-67147873D01*
X111600499Y-66000000D01*
X115394551Y-66000000D01*
X115414317Y-66251151D01*
X115473126Y-66496110D01*
X115569533Y-66728859D01*
X115701160Y-66943653D01*
X115701161Y-66943656D01*
X115701164Y-66943659D01*
X115864776Y-67135224D01*
X116013066Y-67261875D01*
X116056343Y-67298838D01*
X116056346Y-67298839D01*
X116271140Y-67430466D01*
X116503889Y-67526873D01*
X116748852Y-67585683D01*
X117000000Y-67605449D01*
X117251148Y-67585683D01*
X117496111Y-67526873D01*
X117728859Y-67430466D01*
X117861445Y-67349217D01*
X117928890Y-67330972D01*
X117995493Y-67352088D01*
X118025502Y-67380633D01*
X118082813Y-67457190D01*
X118197906Y-67543350D01*
X118197913Y-67543354D01*
X118332620Y-67593596D01*
X118332627Y-67593598D01*
X118392155Y-67599999D01*
X118392172Y-67600000D01*
X119290000Y-67600000D01*
X119290000Y-66490747D01*
X119327708Y-66512518D01*
X119467591Y-66550000D01*
X119612409Y-66550000D01*
X119752292Y-66512518D01*
X119790000Y-66490747D01*
X119790000Y-67600000D01*
X120687828Y-67600000D01*
X120687844Y-67599999D01*
X120747372Y-67593598D01*
X120747379Y-67593596D01*
X120882086Y-67543354D01*
X120882093Y-67543350D01*
X120997187Y-67457190D01*
X120997190Y-67457187D01*
X121083350Y-67342093D01*
X121083354Y-67342086D01*
X121133596Y-67207379D01*
X121133598Y-67207372D01*
X121139999Y-67147844D01*
X121140000Y-67147827D01*
X121140000Y-66250000D01*
X120030748Y-66250000D01*
X120052518Y-66212292D01*
X120090000Y-66072409D01*
X120090000Y-65927591D01*
X120052518Y-65787708D01*
X120030748Y-65750000D01*
X121140000Y-65750000D01*
X121140000Y-64852172D01*
X121139999Y-64852155D01*
X121133598Y-64792627D01*
X121133596Y-64792620D01*
X121083354Y-64657913D01*
X121083350Y-64657906D01*
X120997190Y-64542812D01*
X120997187Y-64542809D01*
X120882093Y-64456649D01*
X120882086Y-64456645D01*
X120747379Y-64406403D01*
X120747372Y-64406401D01*
X120687844Y-64400000D01*
X119982782Y-64400000D01*
X119915743Y-64380315D01*
X119869988Y-64327511D01*
X119860044Y-64258353D01*
X119889069Y-64194797D01*
X119915000Y-64174105D01*
X119914114Y-64172779D01*
X119982363Y-64127175D01*
X120050289Y-64081789D01*
X120161789Y-63970289D01*
X120249394Y-63839179D01*
X120309737Y-63693497D01*
X120340500Y-63538842D01*
X120340500Y-63381158D01*
X120340500Y-63381155D01*
X120340499Y-63381153D01*
X120309738Y-63226510D01*
X120309737Y-63226503D01*
X120309735Y-63226498D01*
X120249397Y-63080827D01*
X120249390Y-63080814D01*
X120161789Y-62949711D01*
X120161786Y-62949707D01*
X120050292Y-62838213D01*
X120050288Y-62838210D01*
X119919185Y-62750609D01*
X119919172Y-62750602D01*
X119773501Y-62690264D01*
X119773489Y-62690261D01*
X119618845Y-62659500D01*
X119618842Y-62659500D01*
X119461158Y-62659500D01*
X119461155Y-62659500D01*
X119306510Y-62690261D01*
X119306498Y-62690264D01*
X119160827Y-62750602D01*
X119160814Y-62750609D01*
X119029711Y-62838210D01*
X119029707Y-62838213D01*
X118918213Y-62949707D01*
X118918210Y-62949711D01*
X118830609Y-63080814D01*
X118830602Y-63080827D01*
X118770264Y-63226498D01*
X118770261Y-63226510D01*
X118739500Y-63381153D01*
X118739500Y-63538846D01*
X118770261Y-63693489D01*
X118770264Y-63693501D01*
X118830602Y-63839172D01*
X118830609Y-63839185D01*
X118918210Y-63970288D01*
X118918213Y-63970292D01*
X119029707Y-64081786D01*
X119029711Y-64081789D01*
X119165886Y-64172779D01*
X119164304Y-64175145D01*
X119205474Y-64215530D01*
X119220981Y-64283657D01*
X119197195Y-64349353D01*
X119141666Y-64391760D01*
X119097218Y-64400000D01*
X118392155Y-64400000D01*
X118332627Y-64406401D01*
X118332620Y-64406403D01*
X118197913Y-64456645D01*
X118197906Y-64456649D01*
X118082812Y-64542809D01*
X118082809Y-64542812D01*
X118025501Y-64619366D01*
X117969567Y-64661237D01*
X117899876Y-64666221D01*
X117861445Y-64650783D01*
X117728854Y-64569531D01*
X117496110Y-64473126D01*
X117328956Y-64432997D01*
X117268364Y-64398206D01*
X117236200Y-64336180D01*
X117242676Y-64266611D01*
X117285735Y-64211587D01*
X117310451Y-64197862D01*
X117379173Y-64169397D01*
X117379176Y-64169395D01*
X117379179Y-64169394D01*
X117510289Y-64081789D01*
X117621789Y-63970289D01*
X117709394Y-63839179D01*
X117769737Y-63693497D01*
X117800500Y-63538842D01*
X117800500Y-63381158D01*
X117800500Y-63381155D01*
X117800499Y-63381153D01*
X117769738Y-63226510D01*
X117769737Y-63226503D01*
X117769735Y-63226498D01*
X117709397Y-63080827D01*
X117709390Y-63080814D01*
X117621789Y-62949711D01*
X117621786Y-62949707D01*
X117510292Y-62838213D01*
X117510288Y-62838210D01*
X117379185Y-62750609D01*
X117379172Y-62750602D01*
X117233501Y-62690264D01*
X117233489Y-62690261D01*
X117078845Y-62659500D01*
X117078842Y-62659500D01*
X116921158Y-62659500D01*
X116921155Y-62659500D01*
X116766510Y-62690261D01*
X116766498Y-62690264D01*
X116620827Y-62750602D01*
X116620814Y-62750609D01*
X116489711Y-62838210D01*
X116489707Y-62838213D01*
X116378213Y-62949707D01*
X116378210Y-62949711D01*
X116290609Y-63080814D01*
X116290602Y-63080827D01*
X116230264Y-63226498D01*
X116230261Y-63226510D01*
X116199500Y-63381153D01*
X116199500Y-63538846D01*
X116230261Y-63693489D01*
X116230264Y-63693501D01*
X116290602Y-63839172D01*
X116290609Y-63839185D01*
X116378210Y-63970288D01*
X116378213Y-63970292D01*
X116489707Y-64081786D01*
X116489711Y-64081789D01*
X116620814Y-64169390D01*
X116620827Y-64169397D01*
X116689548Y-64197862D01*
X116743952Y-64241703D01*
X116766017Y-64307997D01*
X116748738Y-64375696D01*
X116697601Y-64423307D01*
X116671043Y-64432997D01*
X116503889Y-64473126D01*
X116271140Y-64569533D01*
X116056346Y-64701160D01*
X116056343Y-64701161D01*
X115864776Y-64864776D01*
X115701161Y-65056343D01*
X115701160Y-65056346D01*
X115569533Y-65271140D01*
X115473126Y-65503889D01*
X115414317Y-65748848D01*
X115394551Y-66000000D01*
X111600499Y-66000000D01*
X111600499Y-64852128D01*
X111594091Y-64792517D01*
X111560017Y-64701161D01*
X111543797Y-64657671D01*
X111543793Y-64657664D01*
X111457547Y-64542455D01*
X111457544Y-64542452D01*
X111342335Y-64456206D01*
X111342328Y-64456202D01*
X111207482Y-64405908D01*
X111207483Y-64405908D01*
X111147883Y-64399501D01*
X111147881Y-64399500D01*
X111147873Y-64399500D01*
X111147865Y-64399500D01*
X110443574Y-64399500D01*
X110376535Y-64379815D01*
X110330780Y-64327011D01*
X110320836Y-64257853D01*
X110349861Y-64194297D01*
X110374683Y-64172398D01*
X110510289Y-64081789D01*
X110621786Y-63970292D01*
X110621789Y-63970289D01*
X110709394Y-63839179D01*
X110769737Y-63693497D01*
X110800500Y-63538842D01*
X110800500Y-63381158D01*
X110800500Y-63381155D01*
X110800499Y-63381153D01*
X110769738Y-63226510D01*
X110769737Y-63226503D01*
X110769735Y-63226498D01*
X110709397Y-63080827D01*
X110709390Y-63080814D01*
X110621789Y-62949711D01*
X110621786Y-62949707D01*
X110510292Y-62838213D01*
X110510288Y-62838210D01*
X110379185Y-62750609D01*
X110379172Y-62750602D01*
X110233501Y-62690264D01*
X110233489Y-62690261D01*
X110078845Y-62659500D01*
X110078842Y-62659500D01*
X109921158Y-62659500D01*
X109921155Y-62659500D01*
X109766510Y-62690261D01*
X109766498Y-62690264D01*
X109620827Y-62750602D01*
X109620814Y-62750609D01*
X109489711Y-62838210D01*
X109489707Y-62838213D01*
X109378213Y-62949707D01*
X109378210Y-62949711D01*
X109290609Y-63080814D01*
X109290602Y-63080827D01*
X109230264Y-63226498D01*
X109230261Y-63226510D01*
X109199500Y-63381153D01*
X109199500Y-63538846D01*
X109230261Y-63693489D01*
X109230264Y-63693501D01*
X109290602Y-63839172D01*
X109290609Y-63839185D01*
X109378210Y-63970288D01*
X109378213Y-63970292D01*
X109489707Y-64081786D01*
X109489711Y-64081789D01*
X109625316Y-64172398D01*
X109670121Y-64226010D01*
X109678828Y-64295335D01*
X109648674Y-64358363D01*
X109589230Y-64395082D01*
X109556425Y-64399500D01*
X108852129Y-64399500D01*
X108852123Y-64399501D01*
X108792516Y-64405908D01*
X108657671Y-64456202D01*
X108657664Y-64456206D01*
X108542455Y-64542452D01*
X108485072Y-64619105D01*
X108429138Y-64660976D01*
X108359446Y-64665959D01*
X108321016Y-64650520D01*
X108188859Y-64569533D01*
X107956110Y-64473126D01*
X107788956Y-64432997D01*
X107728364Y-64398206D01*
X107696200Y-64336180D01*
X107702676Y-64266611D01*
X107745735Y-64211587D01*
X107770451Y-64197862D01*
X107839173Y-64169397D01*
X107839176Y-64169395D01*
X107839179Y-64169394D01*
X107970289Y-64081789D01*
X108081789Y-63970289D01*
X108169394Y-63839179D01*
X108229737Y-63693497D01*
X108260500Y-63538842D01*
X108260500Y-63381158D01*
X108260500Y-63381155D01*
X108260499Y-63381153D01*
X108229738Y-63226510D01*
X108229737Y-63226503D01*
X108229735Y-63226498D01*
X108169397Y-63080827D01*
X108169390Y-63080814D01*
X108081789Y-62949711D01*
X108081786Y-62949707D01*
X107970292Y-62838213D01*
X107970288Y-62838210D01*
X107839185Y-62750609D01*
X107839172Y-62750602D01*
X107693501Y-62690264D01*
X107693489Y-62690261D01*
X107538845Y-62659500D01*
X107538842Y-62659500D01*
X107381158Y-62659500D01*
X107381155Y-62659500D01*
X107226510Y-62690261D01*
X107226498Y-62690264D01*
X107080827Y-62750602D01*
X107080814Y-62750609D01*
X106949711Y-62838210D01*
X106949707Y-62838213D01*
X106838213Y-62949707D01*
X106838210Y-62949711D01*
X106750609Y-63080814D01*
X106750602Y-63080827D01*
X106690264Y-63226498D01*
X106690261Y-63226510D01*
X106659500Y-63381153D01*
X106659500Y-63538846D01*
X106690261Y-63693489D01*
X106690264Y-63693501D01*
X106750602Y-63839172D01*
X106750609Y-63839185D01*
X106838210Y-63970288D01*
X106838213Y-63970292D01*
X106949707Y-64081786D01*
X106949711Y-64081789D01*
X107080814Y-64169390D01*
X107080827Y-64169397D01*
X107149548Y-64197862D01*
X107203952Y-64241703D01*
X107226017Y-64307997D01*
X107208738Y-64375696D01*
X107157601Y-64423307D01*
X107131043Y-64432997D01*
X106963889Y-64473126D01*
X106731140Y-64569533D01*
X106516346Y-64701160D01*
X106516343Y-64701161D01*
X106324776Y-64864776D01*
X106161161Y-65056343D01*
X106161160Y-65056346D01*
X106029533Y-65271140D01*
X105933126Y-65503889D01*
X105874317Y-65748848D01*
X105854551Y-66000000D01*
X94000000Y-66000000D01*
X94000000Y-59868872D01*
X97999500Y-59868872D01*
X97999500Y-60131127D01*
X98026123Y-60333339D01*
X98033730Y-60391116D01*
X98101602Y-60644418D01*
X98101605Y-60644428D01*
X98201953Y-60886690D01*
X98201958Y-60886700D01*
X98333075Y-61113803D01*
X98492718Y-61321851D01*
X98492726Y-61321860D01*
X98678140Y-61507274D01*
X98678148Y-61507281D01*
X98886196Y-61666924D01*
X99113299Y-61798041D01*
X99113309Y-61798046D01*
X99355571Y-61898394D01*
X99355581Y-61898398D01*
X99608884Y-61966270D01*
X99868880Y-62000500D01*
X99868887Y-62000500D01*
X100131113Y-62000500D01*
X100131120Y-62000500D01*
X100391116Y-61966270D01*
X100644419Y-61898398D01*
X100886697Y-61798043D01*
X101113803Y-61666924D01*
X101321851Y-61507282D01*
X101321855Y-61507277D01*
X101321860Y-61507274D01*
X101507274Y-61321860D01*
X101507277Y-61321855D01*
X101507282Y-61321851D01*
X101666924Y-61113803D01*
X101798043Y-60886697D01*
X101898398Y-60644419D01*
X101966270Y-60391116D01*
X102000500Y-60131120D01*
X102000500Y-59868880D01*
X102000499Y-59868872D01*
X189499500Y-59868872D01*
X189499500Y-60131127D01*
X189526123Y-60333339D01*
X189533730Y-60391116D01*
X189601602Y-60644418D01*
X189601605Y-60644428D01*
X189701953Y-60886690D01*
X189701958Y-60886700D01*
X189833075Y-61113803D01*
X189992718Y-61321851D01*
X189992726Y-61321860D01*
X190178140Y-61507274D01*
X190178148Y-61507281D01*
X190386196Y-61666924D01*
X190613299Y-61798041D01*
X190613309Y-61798046D01*
X190855571Y-61898394D01*
X190855581Y-61898398D01*
X191108884Y-61966270D01*
X191368880Y-62000500D01*
X191368887Y-62000500D01*
X191631113Y-62000500D01*
X191631120Y-62000500D01*
X191891116Y-61966270D01*
X192144419Y-61898398D01*
X192386697Y-61798043D01*
X192613803Y-61666924D01*
X192821851Y-61507282D01*
X192821855Y-61507277D01*
X192821860Y-61507274D01*
X193007274Y-61321860D01*
X193007277Y-61321855D01*
X193007282Y-61321851D01*
X193166924Y-61113803D01*
X193298043Y-60886697D01*
X193398398Y-60644419D01*
X193466270Y-60391116D01*
X193500500Y-60131120D01*
X193500500Y-59868880D01*
X193466270Y-59608884D01*
X193398398Y-59355581D01*
X193398394Y-59355571D01*
X193298046Y-59113309D01*
X193298041Y-59113299D01*
X193166924Y-58886196D01*
X193007281Y-58678148D01*
X193007274Y-58678140D01*
X192821860Y-58492726D01*
X192821851Y-58492718D01*
X192613803Y-58333075D01*
X192386700Y-58201958D01*
X192386690Y-58201953D01*
X192144428Y-58101605D01*
X192144421Y-58101603D01*
X192144419Y-58101602D01*
X191891116Y-58033730D01*
X191833339Y-58026123D01*
X191631127Y-57999500D01*
X191631120Y-57999500D01*
X191368880Y-57999500D01*
X191368872Y-57999500D01*
X191137772Y-58029926D01*
X191108884Y-58033730D01*
X190855581Y-58101602D01*
X190855571Y-58101605D01*
X190613309Y-58201953D01*
X190613299Y-58201958D01*
X190386196Y-58333075D01*
X190178148Y-58492718D01*
X189992718Y-58678148D01*
X189833075Y-58886196D01*
X189701958Y-59113299D01*
X189701953Y-59113309D01*
X189601605Y-59355571D01*
X189601602Y-59355581D01*
X189533730Y-59608885D01*
X189499500Y-59868872D01*
X102000499Y-59868872D01*
X101966270Y-59608884D01*
X101898398Y-59355581D01*
X101898394Y-59355571D01*
X101798046Y-59113309D01*
X101798041Y-59113299D01*
X101666924Y-58886196D01*
X101507281Y-58678148D01*
X101507274Y-58678140D01*
X101321860Y-58492726D01*
X101321851Y-58492718D01*
X101113803Y-58333075D01*
X100886700Y-58201958D01*
X100886690Y-58201953D01*
X100644428Y-58101605D01*
X100644421Y-58101603D01*
X100644419Y-58101602D01*
X100391116Y-58033730D01*
X100333339Y-58026123D01*
X100131127Y-57999500D01*
X100131120Y-57999500D01*
X99868880Y-57999500D01*
X99868872Y-57999500D01*
X99637772Y-58029926D01*
X99608884Y-58033730D01*
X99355581Y-58101602D01*
X99355571Y-58101605D01*
X99113309Y-58201953D01*
X99113299Y-58201958D01*
X98886196Y-58333075D01*
X98678148Y-58492718D01*
X98492718Y-58678148D01*
X98333075Y-58886196D01*
X98201958Y-59113299D01*
X98201953Y-59113309D01*
X98101605Y-59355571D01*
X98101602Y-59355581D01*
X98033730Y-59608885D01*
X97999500Y-59868872D01*
X94000000Y-59868872D01*
X94000000Y-55624000D01*
X94019685Y-55556961D01*
X94072489Y-55511206D01*
X94124000Y-55500000D01*
X195876000Y-55500000D01*
X195943039Y-55519685D01*
G37*
G04 #@! TD.AperFunction*
M02*
