%TF.GenerationSoftware,KiCad,Pcbnew,8.0.5*%
%TF.CreationDate,2024-11-14T17:21:11-08:00*%
%TF.ProjectId,Predator-Bot-V1,50726564-6174-46f7-922d-426f742d5631,0.01*%
%TF.SameCoordinates,Original*%
%TF.FileFunction,Drillmap*%
%TF.FilePolarity,Positive*%
%FSLAX45Y45*%
G04 Gerber Fmt 4.5, Leading zero omitted, Abs format (unit mm)*
G04 Created by KiCad (PCBNEW 8.0.5) date 2024-11-14 17:21:11*
%MOMM*%
%LPD*%
G01*
G04 APERTURE LIST*
%ADD10C,0.050000*%
%ADD11C,0.200000*%
%ADD12C,0.100000*%
%ADD13C,0.110000*%
G04 APERTURE END LIST*
D10*
X9300000Y-5450000D02*
X19700000Y-5450000D01*
X19700000Y-14350000D01*
X9300000Y-14350000D01*
X9300000Y-5450000D01*
D11*
D12*
X11085000Y-7285000D02*
X11115000Y-7315000D01*
X11115000Y-7285000D02*
X11085000Y-7315000D01*
X11335000Y-7285000D02*
X11365000Y-7315000D01*
X11365000Y-7285000D02*
X11335000Y-7315000D01*
X11335000Y-9485000D02*
X11365000Y-9515000D01*
X11365000Y-9485000D02*
X11335000Y-9515000D01*
X11435000Y-11785000D02*
X11465000Y-11815000D01*
X11465000Y-11785000D02*
X11435000Y-11815000D01*
X11585000Y-9135000D02*
X11615000Y-9165000D01*
X11615000Y-9135000D02*
X11585000Y-9165000D01*
X11785000Y-11785000D02*
X11815000Y-11815000D01*
X11815000Y-11785000D02*
X11785000Y-11815000D01*
X17785000Y-9185000D02*
X17815000Y-9215000D01*
X17815000Y-9185000D02*
X17785000Y-9215000D01*
X17810000Y-10185000D02*
X17840000Y-10215000D01*
X17840000Y-10185000D02*
X17810000Y-10215000D01*
X17935000Y-8985000D02*
X17965000Y-9015000D01*
X17965000Y-8985000D02*
X17935000Y-9015000D01*
X18160000Y-10185000D02*
X18190000Y-10215000D01*
X18190000Y-10185000D02*
X18160000Y-10215000D01*
X11281000Y-10600500D02*
G75*
G02*
X11248000Y-10600500I-16500J0D01*
G01*
X11248000Y-10600500D02*
G75*
G02*
X11281000Y-10600500I16500J0D01*
G01*
X11281000Y-10730500D02*
G75*
G02*
X11248000Y-10730500I-16500J0D01*
G01*
X11248000Y-10730500D02*
G75*
G02*
X11281000Y-10730500I16500J0D01*
G01*
X11319500Y-8322000D02*
G75*
G02*
X11286500Y-8322000I-16500J0D01*
G01*
X11286500Y-8322000D02*
G75*
G02*
X11319500Y-8322000I16500J0D01*
G01*
X11319500Y-8452000D02*
G75*
G02*
X11286500Y-8452000I-16500J0D01*
G01*
X11286500Y-8452000D02*
G75*
G02*
X11319500Y-8452000I16500J0D01*
G01*
X11411000Y-10600500D02*
G75*
G02*
X11378000Y-10600500I-16500J0D01*
G01*
X11378000Y-10600500D02*
G75*
G02*
X11411000Y-10600500I16500J0D01*
G01*
X11411000Y-10730500D02*
G75*
G02*
X11378000Y-10730500I-16500J0D01*
G01*
X11378000Y-10730500D02*
G75*
G02*
X11411000Y-10730500I16500J0D01*
G01*
X11449500Y-8322000D02*
G75*
G02*
X11416500Y-8322000I-16500J0D01*
G01*
X11416500Y-8322000D02*
G75*
G02*
X11449500Y-8322000I16500J0D01*
G01*
X11449500Y-8452000D02*
G75*
G02*
X11416500Y-8452000I-16500J0D01*
G01*
X11416500Y-8452000D02*
G75*
G02*
X11449500Y-8452000I16500J0D01*
G01*
X11541000Y-10600500D02*
G75*
G02*
X11508000Y-10600500I-16500J0D01*
G01*
X11508000Y-10600500D02*
G75*
G02*
X11541000Y-10600500I16500J0D01*
G01*
X11541000Y-10730500D02*
G75*
G02*
X11508000Y-10730500I-16500J0D01*
G01*
X11508000Y-10730500D02*
G75*
G02*
X11541000Y-10730500I16500J0D01*
G01*
X11579500Y-8322000D02*
G75*
G02*
X11546500Y-8322000I-16500J0D01*
G01*
X11546500Y-8322000D02*
G75*
G02*
X11579500Y-8322000I16500J0D01*
G01*
X11579500Y-8452000D02*
G75*
G02*
X11546500Y-8452000I-16500J0D01*
G01*
X11546500Y-8452000D02*
G75*
G02*
X11579500Y-8452000I16500J0D01*
G01*
X15950000Y-9875000D02*
X15950000Y-9925000D01*
X15925000Y-9900000D02*
X15975000Y-9900000D01*
X15950000Y-10425000D02*
X15950000Y-10475000D01*
X15925000Y-10450000D02*
X15975000Y-10450000D01*
X16350000Y-10075000D02*
X16350000Y-10125000D01*
X16325000Y-10100000D02*
X16375000Y-10100000D01*
X16550000Y-10075000D02*
X16550000Y-10125000D01*
X16525000Y-10100000D02*
X16575000Y-10100000D01*
X16600000Y-10775000D02*
X16600000Y-10825000D01*
X16575000Y-10800000D02*
X16625000Y-10800000D01*
X17000000Y-10775000D02*
X17000000Y-10825000D01*
X16975000Y-10800000D02*
X17025000Y-10800000D01*
X17200000Y-9625000D02*
X17200000Y-9675000D01*
X17175000Y-9650000D02*
X17225000Y-9650000D01*
X17750000Y-9625000D02*
X17750000Y-9675000D01*
X17725000Y-9650000D02*
X17775000Y-9650000D01*
X18666330Y-10527678D02*
X18666330Y-10492322D01*
X18630975Y-10492322D01*
X18630975Y-10527678D01*
X18666330Y-10527678D01*
X18666330Y-10717678D02*
X18666330Y-10682322D01*
X18630975Y-10682322D01*
X18630975Y-10717678D01*
X18666330Y-10717678D01*
X17100000Y-11487500D02*
X17137500Y-11450000D01*
X17100000Y-11412500D01*
X17062500Y-11450000D01*
X17100000Y-11487500D01*
X17100000Y-11987500D02*
X17137500Y-11950000D01*
X17100000Y-11912500D01*
X17062500Y-11950000D01*
X17100000Y-11987500D01*
X10567500Y-9550000D02*
X10667500Y-9650000D01*
X10667500Y-9550000D02*
X10567500Y-9650000D01*
X10667500Y-9600000D02*
G75*
G02*
X10567500Y-9600000I-50000J0D01*
G01*
X10567500Y-9600000D02*
G75*
G02*
X10667500Y-9600000I50000J0D01*
G01*
X10575500Y-9810750D02*
X10675500Y-9910750D01*
X10675500Y-9810750D02*
X10575500Y-9910750D01*
X10675500Y-9860750D02*
G75*
G02*
X10575500Y-9860750I-50000J0D01*
G01*
X10575500Y-9860750D02*
G75*
G02*
X10675500Y-9860750I50000J0D01*
G01*
X10900000Y-10150000D02*
X11000000Y-10250000D01*
X11000000Y-10150000D02*
X10900000Y-10250000D01*
X11000000Y-10200000D02*
G75*
G02*
X10900000Y-10200000I-50000J0D01*
G01*
X10900000Y-10200000D02*
G75*
G02*
X11000000Y-10200000I50000J0D01*
G01*
X10900000Y-10350000D02*
X11000000Y-10450000D01*
X11000000Y-10350000D02*
X10900000Y-10450000D01*
X11000000Y-10400000D02*
G75*
G02*
X10900000Y-10400000I-50000J0D01*
G01*
X10900000Y-10400000D02*
G75*
G02*
X11000000Y-10400000I50000J0D01*
G01*
X10900000Y-10550000D02*
X11000000Y-10650000D01*
X11000000Y-10550000D02*
X10900000Y-10650000D01*
X11000000Y-10600000D02*
G75*
G02*
X10900000Y-10600000I-50000J0D01*
G01*
X10900000Y-10600000D02*
G75*
G02*
X11000000Y-10600000I50000J0D01*
G01*
X10900000Y-10750000D02*
X11000000Y-10850000D01*
X11000000Y-10750000D02*
X10900000Y-10850000D01*
X11000000Y-10800000D02*
G75*
G02*
X10900000Y-10800000I-50000J0D01*
G01*
X10900000Y-10800000D02*
G75*
G02*
X11000000Y-10800000I50000J0D01*
G01*
X10900000Y-10950000D02*
X11000000Y-11050000D01*
X11000000Y-10950000D02*
X10900000Y-11050000D01*
X11000000Y-11000000D02*
G75*
G02*
X10900000Y-11000000I-50000J0D01*
G01*
X10900000Y-11000000D02*
G75*
G02*
X11000000Y-11000000I50000J0D01*
G01*
X11050000Y-7850000D02*
X11150000Y-7950000D01*
X11150000Y-7850000D02*
X11050000Y-7950000D01*
X11150000Y-7900000D02*
G75*
G02*
X11050000Y-7900000I-50000J0D01*
G01*
X11050000Y-7900000D02*
G75*
G02*
X11150000Y-7900000I50000J0D01*
G01*
X11050000Y-8050000D02*
X11150000Y-8150000D01*
X11150000Y-8050000D02*
X11050000Y-8150000D01*
X11150000Y-8100000D02*
G75*
G02*
X11050000Y-8100000I-50000J0D01*
G01*
X11050000Y-8100000D02*
G75*
G02*
X11150000Y-8100000I50000J0D01*
G01*
X11050000Y-8250000D02*
X11150000Y-8350000D01*
X11150000Y-8250000D02*
X11050000Y-8350000D01*
X11150000Y-8300000D02*
G75*
G02*
X11050000Y-8300000I-50000J0D01*
G01*
X11050000Y-8300000D02*
G75*
G02*
X11150000Y-8300000I50000J0D01*
G01*
X11050000Y-8450000D02*
X11150000Y-8550000D01*
X11150000Y-8450000D02*
X11050000Y-8550000D01*
X11150000Y-8500000D02*
G75*
G02*
X11050000Y-8500000I-50000J0D01*
G01*
X11050000Y-8500000D02*
G75*
G02*
X11150000Y-8500000I50000J0D01*
G01*
X11050000Y-8650000D02*
X11150000Y-8750000D01*
X11150000Y-8650000D02*
X11050000Y-8750000D01*
X11150000Y-8700000D02*
G75*
G02*
X11050000Y-8700000I-50000J0D01*
G01*
X11050000Y-8700000D02*
G75*
G02*
X11150000Y-8700000I50000J0D01*
G01*
X11050000Y-8850000D02*
X11150000Y-8950000D01*
X11150000Y-8850000D02*
X11050000Y-8950000D01*
X11150000Y-8900000D02*
G75*
G02*
X11050000Y-8900000I-50000J0D01*
G01*
X11050000Y-8900000D02*
G75*
G02*
X11150000Y-8900000I50000J0D01*
G01*
X11750000Y-8050000D02*
X11850000Y-8150000D01*
X11850000Y-8050000D02*
X11750000Y-8150000D01*
X11850000Y-8100000D02*
G75*
G02*
X11750000Y-8100000I-50000J0D01*
G01*
X11750000Y-8100000D02*
G75*
G02*
X11850000Y-8100000I50000J0D01*
G01*
X11750000Y-8250000D02*
X11850000Y-8350000D01*
X11850000Y-8250000D02*
X11750000Y-8350000D01*
X11850000Y-8300000D02*
G75*
G02*
X11750000Y-8300000I-50000J0D01*
G01*
X11750000Y-8300000D02*
G75*
G02*
X11850000Y-8300000I50000J0D01*
G01*
X11750000Y-8450000D02*
X11850000Y-8550000D01*
X11850000Y-8450000D02*
X11750000Y-8550000D01*
X11850000Y-8500000D02*
G75*
G02*
X11750000Y-8500000I-50000J0D01*
G01*
X11750000Y-8500000D02*
G75*
G02*
X11850000Y-8500000I50000J0D01*
G01*
X11750000Y-8650000D02*
X11850000Y-8750000D01*
X11850000Y-8650000D02*
X11750000Y-8750000D01*
X11850000Y-8700000D02*
G75*
G02*
X11750000Y-8700000I-50000J0D01*
G01*
X11750000Y-8700000D02*
G75*
G02*
X11850000Y-8700000I50000J0D01*
G01*
X11750000Y-8850000D02*
X11850000Y-8950000D01*
X11850000Y-8850000D02*
X11750000Y-8950000D01*
X11850000Y-8900000D02*
G75*
G02*
X11750000Y-8900000I-50000J0D01*
G01*
X11750000Y-8900000D02*
G75*
G02*
X11850000Y-8900000I50000J0D01*
G01*
X11750000Y-10150000D02*
X11850000Y-10250000D01*
X11850000Y-10150000D02*
X11750000Y-10250000D01*
X11850000Y-10200000D02*
G75*
G02*
X11750000Y-10200000I-50000J0D01*
G01*
X11750000Y-10200000D02*
G75*
G02*
X11850000Y-10200000I50000J0D01*
G01*
X11750000Y-10350000D02*
X11850000Y-10450000D01*
X11850000Y-10350000D02*
X11750000Y-10450000D01*
X11850000Y-10400000D02*
G75*
G02*
X11750000Y-10400000I-50000J0D01*
G01*
X11750000Y-10400000D02*
G75*
G02*
X11850000Y-10400000I50000J0D01*
G01*
X11750000Y-10550000D02*
X11850000Y-10650000D01*
X11850000Y-10550000D02*
X11750000Y-10650000D01*
X11850000Y-10600000D02*
G75*
G02*
X11750000Y-10600000I-50000J0D01*
G01*
X11750000Y-10600000D02*
G75*
G02*
X11850000Y-10600000I50000J0D01*
G01*
X11750000Y-10750000D02*
X11850000Y-10850000D01*
X11850000Y-10750000D02*
X11750000Y-10850000D01*
X11850000Y-10800000D02*
G75*
G02*
X11750000Y-10800000I-50000J0D01*
G01*
X11750000Y-10800000D02*
G75*
G02*
X11850000Y-10800000I50000J0D01*
G01*
X11750000Y-10950000D02*
X11850000Y-11050000D01*
X11850000Y-10950000D02*
X11750000Y-11050000D01*
X11850000Y-11000000D02*
G75*
G02*
X11750000Y-11000000I-50000J0D01*
G01*
X11750000Y-11000000D02*
G75*
G02*
X11850000Y-11000000I50000J0D01*
G01*
X15650000Y-7900000D02*
X15750000Y-8000000D01*
X15750000Y-7900000D02*
X15650000Y-8000000D01*
X15750000Y-7950000D02*
G75*
G02*
X15650000Y-7950000I-50000J0D01*
G01*
X15650000Y-7950000D02*
G75*
G02*
X15750000Y-7950000I50000J0D01*
G01*
X16800000Y-12400000D02*
X16900000Y-12500000D01*
X16900000Y-12400000D02*
X16800000Y-12500000D01*
X16900000Y-12450000D02*
G75*
G02*
X16800000Y-12450000I-50000J0D01*
G01*
X16800000Y-12450000D02*
G75*
G02*
X16900000Y-12450000I50000J0D01*
G01*
X19300000Y-10450000D02*
X19400000Y-10550000D01*
X19400000Y-10450000D02*
X19300000Y-10550000D01*
X19400000Y-10500000D02*
G75*
G02*
X19300000Y-10500000I-50000J0D01*
G01*
X19300000Y-10500000D02*
G75*
G02*
X19400000Y-10500000I50000J0D01*
G01*
X12510000Y-7418000D02*
X12610000Y-7518000D01*
X12610000Y-7418000D02*
X12510000Y-7518000D01*
X12560000Y-7418000D02*
X12560000Y-7518000D01*
X12510000Y-7468000D02*
X12610000Y-7468000D01*
X12510000Y-7672000D02*
X12610000Y-7772000D01*
X12610000Y-7672000D02*
X12510000Y-7772000D01*
X12560000Y-7672000D02*
X12560000Y-7772000D01*
X12510000Y-7722000D02*
X12610000Y-7722000D01*
X12510000Y-7926000D02*
X12610000Y-8026000D01*
X12610000Y-7926000D02*
X12510000Y-8026000D01*
X12560000Y-7926000D02*
X12560000Y-8026000D01*
X12510000Y-7976000D02*
X12610000Y-7976000D01*
X12510000Y-8180000D02*
X12610000Y-8280000D01*
X12610000Y-8180000D02*
X12510000Y-8280000D01*
X12560000Y-8180000D02*
X12560000Y-8280000D01*
X12510000Y-8230000D02*
X12610000Y-8230000D01*
X12510000Y-8434000D02*
X12610000Y-8534000D01*
X12610000Y-8434000D02*
X12510000Y-8534000D01*
X12560000Y-8434000D02*
X12560000Y-8534000D01*
X12510000Y-8484000D02*
X12610000Y-8484000D01*
X12510000Y-8688000D02*
X12610000Y-8788000D01*
X12610000Y-8688000D02*
X12510000Y-8788000D01*
X12560000Y-8688000D02*
X12560000Y-8788000D01*
X12510000Y-8738000D02*
X12610000Y-8738000D01*
X12510000Y-8942000D02*
X12610000Y-9042000D01*
X12610000Y-8942000D02*
X12510000Y-9042000D01*
X12560000Y-8942000D02*
X12560000Y-9042000D01*
X12510000Y-8992000D02*
X12610000Y-8992000D01*
X12510000Y-9196000D02*
X12610000Y-9296000D01*
X12610000Y-9196000D02*
X12510000Y-9296000D01*
X12560000Y-9196000D02*
X12560000Y-9296000D01*
X12510000Y-9246000D02*
X12610000Y-9246000D01*
X12510000Y-9450000D02*
X12610000Y-9550000D01*
X12610000Y-9450000D02*
X12510000Y-9550000D01*
X12560000Y-9450000D02*
X12560000Y-9550000D01*
X12510000Y-9500000D02*
X12610000Y-9500000D01*
X12510000Y-9704000D02*
X12610000Y-9804000D01*
X12610000Y-9704000D02*
X12510000Y-9804000D01*
X12560000Y-9704000D02*
X12560000Y-9804000D01*
X12510000Y-9754000D02*
X12610000Y-9754000D01*
X12510000Y-9958000D02*
X12610000Y-10058000D01*
X12610000Y-9958000D02*
X12510000Y-10058000D01*
X12560000Y-9958000D02*
X12560000Y-10058000D01*
X12510000Y-10008000D02*
X12610000Y-10008000D01*
X12510000Y-10212000D02*
X12610000Y-10312000D01*
X12610000Y-10212000D02*
X12510000Y-10312000D01*
X12560000Y-10212000D02*
X12560000Y-10312000D01*
X12510000Y-10262000D02*
X12610000Y-10262000D01*
X12510000Y-10466000D02*
X12610000Y-10566000D01*
X12610000Y-10466000D02*
X12510000Y-10566000D01*
X12560000Y-10466000D02*
X12560000Y-10566000D01*
X12510000Y-10516000D02*
X12610000Y-10516000D01*
X12510000Y-10720000D02*
X12610000Y-10820000D01*
X12610000Y-10720000D02*
X12510000Y-10820000D01*
X12560000Y-10720000D02*
X12560000Y-10820000D01*
X12510000Y-10770000D02*
X12610000Y-10770000D01*
X12510000Y-10974000D02*
X12610000Y-11074000D01*
X12610000Y-10974000D02*
X12510000Y-11074000D01*
X12560000Y-10974000D02*
X12560000Y-11074000D01*
X12510000Y-11024000D02*
X12610000Y-11024000D01*
X12510000Y-11228000D02*
X12610000Y-11328000D01*
X12610000Y-11228000D02*
X12510000Y-11328000D01*
X12560000Y-11228000D02*
X12560000Y-11328000D01*
X12510000Y-11278000D02*
X12610000Y-11278000D01*
X12510000Y-11482000D02*
X12610000Y-11582000D01*
X12610000Y-11482000D02*
X12510000Y-11582000D01*
X12560000Y-11482000D02*
X12560000Y-11582000D01*
X12510000Y-11532000D02*
X12610000Y-11532000D01*
X12510000Y-11736000D02*
X12610000Y-11836000D01*
X12610000Y-11736000D02*
X12510000Y-11836000D01*
X12560000Y-11736000D02*
X12560000Y-11836000D01*
X12510000Y-11786000D02*
X12610000Y-11786000D01*
X15050000Y-7418000D02*
X15150000Y-7518000D01*
X15150000Y-7418000D02*
X15050000Y-7518000D01*
X15100000Y-7418000D02*
X15100000Y-7518000D01*
X15050000Y-7468000D02*
X15150000Y-7468000D01*
X15050000Y-7672000D02*
X15150000Y-7772000D01*
X15150000Y-7672000D02*
X15050000Y-7772000D01*
X15100000Y-7672000D02*
X15100000Y-7772000D01*
X15050000Y-7722000D02*
X15150000Y-7722000D01*
X15050000Y-7926000D02*
X15150000Y-8026000D01*
X15150000Y-7926000D02*
X15050000Y-8026000D01*
X15100000Y-7926000D02*
X15100000Y-8026000D01*
X15050000Y-7976000D02*
X15150000Y-7976000D01*
X15050000Y-8180000D02*
X15150000Y-8280000D01*
X15150000Y-8180000D02*
X15050000Y-8280000D01*
X15100000Y-8180000D02*
X15100000Y-8280000D01*
X15050000Y-8230000D02*
X15150000Y-8230000D01*
X15050000Y-8434000D02*
X15150000Y-8534000D01*
X15150000Y-8434000D02*
X15050000Y-8534000D01*
X15100000Y-8434000D02*
X15100000Y-8534000D01*
X15050000Y-8484000D02*
X15150000Y-8484000D01*
X15050000Y-8688000D02*
X15150000Y-8788000D01*
X15150000Y-8688000D02*
X15050000Y-8788000D01*
X15100000Y-8688000D02*
X15100000Y-8788000D01*
X15050000Y-8738000D02*
X15150000Y-8738000D01*
X15050000Y-8942000D02*
X15150000Y-9042000D01*
X15150000Y-8942000D02*
X15050000Y-9042000D01*
X15100000Y-8942000D02*
X15100000Y-9042000D01*
X15050000Y-8992000D02*
X15150000Y-8992000D01*
X15050000Y-9196000D02*
X15150000Y-9296000D01*
X15150000Y-9196000D02*
X15050000Y-9296000D01*
X15100000Y-9196000D02*
X15100000Y-9296000D01*
X15050000Y-9246000D02*
X15150000Y-9246000D01*
X15050000Y-9450000D02*
X15150000Y-9550000D01*
X15150000Y-9450000D02*
X15050000Y-9550000D01*
X15100000Y-9450000D02*
X15100000Y-9550000D01*
X15050000Y-9500000D02*
X15150000Y-9500000D01*
X15050000Y-9704000D02*
X15150000Y-9804000D01*
X15150000Y-9704000D02*
X15050000Y-9804000D01*
X15100000Y-9704000D02*
X15100000Y-9804000D01*
X15050000Y-9754000D02*
X15150000Y-9754000D01*
X15050000Y-9958000D02*
X15150000Y-10058000D01*
X15150000Y-9958000D02*
X15050000Y-10058000D01*
X15100000Y-9958000D02*
X15100000Y-10058000D01*
X15050000Y-10008000D02*
X15150000Y-10008000D01*
X15050000Y-10212000D02*
X15150000Y-10312000D01*
X15150000Y-10212000D02*
X15050000Y-10312000D01*
X15100000Y-10212000D02*
X15100000Y-10312000D01*
X15050000Y-10262000D02*
X15150000Y-10262000D01*
X15050000Y-10466000D02*
X15150000Y-10566000D01*
X15150000Y-10466000D02*
X15050000Y-10566000D01*
X15100000Y-10466000D02*
X15100000Y-10566000D01*
X15050000Y-10516000D02*
X15150000Y-10516000D01*
X15050000Y-10720000D02*
X15150000Y-10820000D01*
X15150000Y-10720000D02*
X15050000Y-10820000D01*
X15100000Y-10720000D02*
X15100000Y-10820000D01*
X15050000Y-10770000D02*
X15150000Y-10770000D01*
X15050000Y-10974000D02*
X15150000Y-11074000D01*
X15150000Y-10974000D02*
X15050000Y-11074000D01*
X15100000Y-10974000D02*
X15100000Y-11074000D01*
X15050000Y-11024000D02*
X15150000Y-11024000D01*
X15050000Y-11228000D02*
X15150000Y-11328000D01*
X15150000Y-11228000D02*
X15050000Y-11328000D01*
X15100000Y-11228000D02*
X15100000Y-11328000D01*
X15050000Y-11278000D02*
X15150000Y-11278000D01*
X15050000Y-11482000D02*
X15150000Y-11582000D01*
X15150000Y-11482000D02*
X15050000Y-11582000D01*
X15100000Y-11482000D02*
X15100000Y-11582000D01*
X15050000Y-11532000D02*
X15150000Y-11532000D01*
X15050000Y-11736000D02*
X15150000Y-11836000D01*
X15150000Y-11736000D02*
X15050000Y-11836000D01*
X15100000Y-11736000D02*
X15100000Y-11836000D01*
X15050000Y-11786000D02*
X15150000Y-11786000D01*
D13*
X10391000Y-12495000D02*
X10501000Y-12605000D01*
X10501000Y-12495000D02*
X10391000Y-12605000D01*
X10484891Y-12588891D02*
X10484891Y-12511109D01*
X10407109Y-12511109D01*
X10407109Y-12588891D01*
X10484891Y-12588891D01*
X10645000Y-12495000D02*
X10755000Y-12605000D01*
X10755000Y-12495000D02*
X10645000Y-12605000D01*
X10738891Y-12588891D02*
X10738891Y-12511109D01*
X10661109Y-12511109D01*
X10661109Y-12588891D01*
X10738891Y-12588891D01*
X10691000Y-6545000D02*
X10801000Y-6655000D01*
X10801000Y-6545000D02*
X10691000Y-6655000D01*
X10784891Y-6638891D02*
X10784891Y-6561109D01*
X10707109Y-6561109D01*
X10707109Y-6638891D01*
X10784891Y-6638891D01*
X10945000Y-6545000D02*
X11055000Y-6655000D01*
X11055000Y-6545000D02*
X10945000Y-6655000D01*
X11038891Y-6638891D02*
X11038891Y-6561109D01*
X10961109Y-6561109D01*
X10961109Y-6638891D01*
X11038891Y-6638891D01*
X11491000Y-12495000D02*
X11601000Y-12605000D01*
X11601000Y-12495000D02*
X11491000Y-12605000D01*
X11584891Y-12588891D02*
X11584891Y-12511109D01*
X11507109Y-12511109D01*
X11507109Y-12588891D01*
X11584891Y-12588891D01*
X11645000Y-6545000D02*
X11755000Y-6655000D01*
X11755000Y-6545000D02*
X11645000Y-6655000D01*
X11738891Y-6638891D02*
X11738891Y-6561109D01*
X11661109Y-6561109D01*
X11661109Y-6638891D01*
X11738891Y-6638891D01*
X11745000Y-12495000D02*
X11855000Y-12605000D01*
X11855000Y-12495000D02*
X11745000Y-12605000D01*
X11838891Y-12588891D02*
X11838891Y-12511109D01*
X11761109Y-12511109D01*
X11761109Y-12588891D01*
X11838891Y-12588891D01*
X11899000Y-6545000D02*
X12009000Y-6655000D01*
X12009000Y-6545000D02*
X11899000Y-6655000D01*
X11992891Y-6638891D02*
X11992891Y-6561109D01*
X11915109Y-6561109D01*
X11915109Y-6638891D01*
X11992891Y-6638891D01*
X15733000Y-11695000D02*
X15843000Y-11805000D01*
X15843000Y-11695000D02*
X15733000Y-11805000D01*
X15826891Y-11788891D02*
X15826891Y-11711109D01*
X15749109Y-11711109D01*
X15749109Y-11788891D01*
X15826891Y-11788891D01*
X15737000Y-7295000D02*
X15847000Y-7405000D01*
X15847000Y-7295000D02*
X15737000Y-7405000D01*
X15830891Y-7388891D02*
X15830891Y-7311109D01*
X15753109Y-7311109D01*
X15753109Y-7388891D01*
X15830891Y-7388891D01*
X15987000Y-11695000D02*
X16097000Y-11805000D01*
X16097000Y-11695000D02*
X15987000Y-11805000D01*
X16080891Y-11788891D02*
X16080891Y-11711109D01*
X16003109Y-11711109D01*
X16003109Y-11788891D01*
X16080891Y-11788891D01*
X15991000Y-7295000D02*
X16101000Y-7405000D01*
X16101000Y-7295000D02*
X15991000Y-7405000D01*
X16084891Y-7388891D02*
X16084891Y-7311109D01*
X16007109Y-7311109D01*
X16007109Y-7388891D01*
X16084891Y-7388891D01*
X16241000Y-11695000D02*
X16351000Y-11805000D01*
X16351000Y-11695000D02*
X16241000Y-11805000D01*
X16334891Y-11788891D02*
X16334891Y-11711109D01*
X16257109Y-11711109D01*
X16257109Y-11788891D01*
X16334891Y-11788891D01*
X16245000Y-7295000D02*
X16355000Y-7405000D01*
X16355000Y-7295000D02*
X16245000Y-7405000D01*
X16338891Y-7388891D02*
X16338891Y-7311109D01*
X16261109Y-7311109D01*
X16261109Y-7388891D01*
X16338891Y-7388891D01*
X16495000Y-11695000D02*
X16605000Y-11805000D01*
X16605000Y-11695000D02*
X16495000Y-11805000D01*
X16588891Y-11788891D02*
X16588891Y-11711109D01*
X16511109Y-11711109D01*
X16511109Y-11788891D01*
X16588891Y-11788891D01*
X17433000Y-11695000D02*
X17543000Y-11805000D01*
X17543000Y-11695000D02*
X17433000Y-11805000D01*
X17526891Y-11788891D02*
X17526891Y-11711109D01*
X17449109Y-11711109D01*
X17449109Y-11788891D01*
X17526891Y-11788891D01*
X17687000Y-11695000D02*
X17797000Y-11805000D01*
X17797000Y-11695000D02*
X17687000Y-11805000D01*
X17780891Y-11788891D02*
X17780891Y-11711109D01*
X17703109Y-11711109D01*
X17703109Y-11788891D01*
X17780891Y-11788891D01*
X17941000Y-11695000D02*
X18051000Y-11805000D01*
X18051000Y-11695000D02*
X17941000Y-11805000D01*
X18034891Y-11788891D02*
X18034891Y-11711109D01*
X17957109Y-11711109D01*
X17957109Y-11788891D01*
X18034891Y-11788891D01*
X18195000Y-11695000D02*
X18305000Y-11805000D01*
X18305000Y-11695000D02*
X18195000Y-11805000D01*
X18288891Y-11788891D02*
X18288891Y-11711109D01*
X18211109Y-11711109D01*
X18211109Y-11788891D01*
X18288891Y-11788891D01*
D11*
X17000000Y-7300000D02*
X17200000Y-7500000D01*
X17200000Y-7300000D02*
X17000000Y-7500000D01*
X17100000Y-7500000D02*
X17200000Y-7400000D01*
X17100000Y-7300000D01*
X17000000Y-7400000D01*
X17100000Y-7500000D01*
X17600000Y-7300000D02*
X17800000Y-7500000D01*
X17800000Y-7300000D02*
X17600000Y-7500000D01*
X17700000Y-7500000D02*
X17800000Y-7400000D01*
X17700000Y-7300000D01*
X17600000Y-7400000D01*
X17700000Y-7500000D01*
X9558277Y-14663984D02*
X9558277Y-14463984D01*
X9558277Y-14463984D02*
X9605896Y-14463984D01*
X9605896Y-14463984D02*
X9634467Y-14473508D01*
X9634467Y-14473508D02*
X9653515Y-14492555D01*
X9653515Y-14492555D02*
X9663039Y-14511603D01*
X9663039Y-14511603D02*
X9672563Y-14549698D01*
X9672563Y-14549698D02*
X9672563Y-14578269D01*
X9672563Y-14578269D02*
X9663039Y-14616365D01*
X9663039Y-14616365D02*
X9653515Y-14635412D01*
X9653515Y-14635412D02*
X9634467Y-14654460D01*
X9634467Y-14654460D02*
X9605896Y-14663984D01*
X9605896Y-14663984D02*
X9558277Y-14663984D01*
X9758277Y-14663984D02*
X9758277Y-14530650D01*
X9758277Y-14568746D02*
X9767801Y-14549698D01*
X9767801Y-14549698D02*
X9777324Y-14540174D01*
X9777324Y-14540174D02*
X9796372Y-14530650D01*
X9796372Y-14530650D02*
X9815420Y-14530650D01*
X9882086Y-14663984D02*
X9882086Y-14530650D01*
X9882086Y-14463984D02*
X9872563Y-14473508D01*
X9872563Y-14473508D02*
X9882086Y-14483031D01*
X9882086Y-14483031D02*
X9891610Y-14473508D01*
X9891610Y-14473508D02*
X9882086Y-14463984D01*
X9882086Y-14463984D02*
X9882086Y-14483031D01*
X10005896Y-14663984D02*
X9986848Y-14654460D01*
X9986848Y-14654460D02*
X9977324Y-14635412D01*
X9977324Y-14635412D02*
X9977324Y-14463984D01*
X10110658Y-14663984D02*
X10091610Y-14654460D01*
X10091610Y-14654460D02*
X10082086Y-14635412D01*
X10082086Y-14635412D02*
X10082086Y-14463984D01*
X10339229Y-14663984D02*
X10339229Y-14463984D01*
X10339229Y-14463984D02*
X10405896Y-14606841D01*
X10405896Y-14606841D02*
X10472563Y-14463984D01*
X10472563Y-14463984D02*
X10472563Y-14663984D01*
X10653515Y-14663984D02*
X10653515Y-14559222D01*
X10653515Y-14559222D02*
X10643991Y-14540174D01*
X10643991Y-14540174D02*
X10624944Y-14530650D01*
X10624944Y-14530650D02*
X10586848Y-14530650D01*
X10586848Y-14530650D02*
X10567801Y-14540174D01*
X10653515Y-14654460D02*
X10634467Y-14663984D01*
X10634467Y-14663984D02*
X10586848Y-14663984D01*
X10586848Y-14663984D02*
X10567801Y-14654460D01*
X10567801Y-14654460D02*
X10558277Y-14635412D01*
X10558277Y-14635412D02*
X10558277Y-14616365D01*
X10558277Y-14616365D02*
X10567801Y-14597317D01*
X10567801Y-14597317D02*
X10586848Y-14587793D01*
X10586848Y-14587793D02*
X10634467Y-14587793D01*
X10634467Y-14587793D02*
X10653515Y-14578269D01*
X10748753Y-14530650D02*
X10748753Y-14730650D01*
X10748753Y-14540174D02*
X10767801Y-14530650D01*
X10767801Y-14530650D02*
X10805896Y-14530650D01*
X10805896Y-14530650D02*
X10824944Y-14540174D01*
X10824944Y-14540174D02*
X10834467Y-14549698D01*
X10834467Y-14549698D02*
X10843991Y-14568746D01*
X10843991Y-14568746D02*
X10843991Y-14625888D01*
X10843991Y-14625888D02*
X10834467Y-14644936D01*
X10834467Y-14644936D02*
X10824944Y-14654460D01*
X10824944Y-14654460D02*
X10805896Y-14663984D01*
X10805896Y-14663984D02*
X10767801Y-14663984D01*
X10767801Y-14663984D02*
X10748753Y-14654460D01*
X10929705Y-14644936D02*
X10939229Y-14654460D01*
X10939229Y-14654460D02*
X10929705Y-14663984D01*
X10929705Y-14663984D02*
X10920182Y-14654460D01*
X10920182Y-14654460D02*
X10929705Y-14644936D01*
X10929705Y-14644936D02*
X10929705Y-14663984D01*
X10929705Y-14540174D02*
X10939229Y-14549698D01*
X10939229Y-14549698D02*
X10929705Y-14559222D01*
X10929705Y-14559222D02*
X10920182Y-14549698D01*
X10920182Y-14549698D02*
X10929705Y-14540174D01*
X10929705Y-14540174D02*
X10929705Y-14559222D01*
D12*
X9267500Y-14977500D02*
X9297500Y-15007500D01*
X9297500Y-14977500D02*
X9267500Y-15007500D01*
D11*
X9596372Y-14883984D02*
X9615420Y-14883984D01*
X9615420Y-14883984D02*
X9634467Y-14893508D01*
X9634467Y-14893508D02*
X9643991Y-14903031D01*
X9643991Y-14903031D02*
X9653515Y-14922079D01*
X9653515Y-14922079D02*
X9663039Y-14960174D01*
X9663039Y-14960174D02*
X9663039Y-15007793D01*
X9663039Y-15007793D02*
X9653515Y-15045888D01*
X9653515Y-15045888D02*
X9643991Y-15064936D01*
X9643991Y-15064936D02*
X9634467Y-15074460D01*
X9634467Y-15074460D02*
X9615420Y-15083984D01*
X9615420Y-15083984D02*
X9596372Y-15083984D01*
X9596372Y-15083984D02*
X9577324Y-15074460D01*
X9577324Y-15074460D02*
X9567801Y-15064936D01*
X9567801Y-15064936D02*
X9558277Y-15045888D01*
X9558277Y-15045888D02*
X9548753Y-15007793D01*
X9548753Y-15007793D02*
X9548753Y-14960174D01*
X9548753Y-14960174D02*
X9558277Y-14922079D01*
X9558277Y-14922079D02*
X9567801Y-14903031D01*
X9567801Y-14903031D02*
X9577324Y-14893508D01*
X9577324Y-14893508D02*
X9596372Y-14883984D01*
X9748753Y-15064936D02*
X9758277Y-15074460D01*
X9758277Y-15074460D02*
X9748753Y-15083984D01*
X9748753Y-15083984D02*
X9739229Y-15074460D01*
X9739229Y-15074460D02*
X9748753Y-15064936D01*
X9748753Y-15064936D02*
X9748753Y-15083984D01*
X9824944Y-14883984D02*
X9948753Y-14883984D01*
X9948753Y-14883984D02*
X9882086Y-14960174D01*
X9882086Y-14960174D02*
X9910658Y-14960174D01*
X9910658Y-14960174D02*
X9929705Y-14969698D01*
X9929705Y-14969698D02*
X9939229Y-14979222D01*
X9939229Y-14979222D02*
X9948753Y-14998269D01*
X9948753Y-14998269D02*
X9948753Y-15045888D01*
X9948753Y-15045888D02*
X9939229Y-15064936D01*
X9939229Y-15064936D02*
X9929705Y-15074460D01*
X9929705Y-15074460D02*
X9910658Y-15083984D01*
X9910658Y-15083984D02*
X9853515Y-15083984D01*
X9853515Y-15083984D02*
X9834467Y-15074460D01*
X9834467Y-15074460D02*
X9824944Y-15064936D01*
X10072563Y-14883984D02*
X10091610Y-14883984D01*
X10091610Y-14883984D02*
X10110658Y-14893508D01*
X10110658Y-14893508D02*
X10120182Y-14903031D01*
X10120182Y-14903031D02*
X10129705Y-14922079D01*
X10129705Y-14922079D02*
X10139229Y-14960174D01*
X10139229Y-14960174D02*
X10139229Y-15007793D01*
X10139229Y-15007793D02*
X10129705Y-15045888D01*
X10129705Y-15045888D02*
X10120182Y-15064936D01*
X10120182Y-15064936D02*
X10110658Y-15074460D01*
X10110658Y-15074460D02*
X10091610Y-15083984D01*
X10091610Y-15083984D02*
X10072563Y-15083984D01*
X10072563Y-15083984D02*
X10053515Y-15074460D01*
X10053515Y-15074460D02*
X10043991Y-15064936D01*
X10043991Y-15064936D02*
X10034467Y-15045888D01*
X10034467Y-15045888D02*
X10024944Y-15007793D01*
X10024944Y-15007793D02*
X10024944Y-14960174D01*
X10024944Y-14960174D02*
X10034467Y-14922079D01*
X10034467Y-14922079D02*
X10043991Y-14903031D01*
X10043991Y-14903031D02*
X10053515Y-14893508D01*
X10053515Y-14893508D02*
X10072563Y-14883984D01*
X10263039Y-14883984D02*
X10282086Y-14883984D01*
X10282086Y-14883984D02*
X10301134Y-14893508D01*
X10301134Y-14893508D02*
X10310658Y-14903031D01*
X10310658Y-14903031D02*
X10320182Y-14922079D01*
X10320182Y-14922079D02*
X10329705Y-14960174D01*
X10329705Y-14960174D02*
X10329705Y-15007793D01*
X10329705Y-15007793D02*
X10320182Y-15045888D01*
X10320182Y-15045888D02*
X10310658Y-15064936D01*
X10310658Y-15064936D02*
X10301134Y-15074460D01*
X10301134Y-15074460D02*
X10282086Y-15083984D01*
X10282086Y-15083984D02*
X10263039Y-15083984D01*
X10263039Y-15083984D02*
X10243991Y-15074460D01*
X10243991Y-15074460D02*
X10234467Y-15064936D01*
X10234467Y-15064936D02*
X10224944Y-15045888D01*
X10224944Y-15045888D02*
X10215420Y-15007793D01*
X10215420Y-15007793D02*
X10215420Y-14960174D01*
X10215420Y-14960174D02*
X10224944Y-14922079D01*
X10224944Y-14922079D02*
X10234467Y-14903031D01*
X10234467Y-14903031D02*
X10243991Y-14893508D01*
X10243991Y-14893508D02*
X10263039Y-14883984D01*
X10415420Y-15083984D02*
X10415420Y-14950650D01*
X10415420Y-14969698D02*
X10424944Y-14960174D01*
X10424944Y-14960174D02*
X10443991Y-14950650D01*
X10443991Y-14950650D02*
X10472563Y-14950650D01*
X10472563Y-14950650D02*
X10491610Y-14960174D01*
X10491610Y-14960174D02*
X10501134Y-14979222D01*
X10501134Y-14979222D02*
X10501134Y-15083984D01*
X10501134Y-14979222D02*
X10510658Y-14960174D01*
X10510658Y-14960174D02*
X10529705Y-14950650D01*
X10529705Y-14950650D02*
X10558277Y-14950650D01*
X10558277Y-14950650D02*
X10577325Y-14960174D01*
X10577325Y-14960174D02*
X10586848Y-14979222D01*
X10586848Y-14979222D02*
X10586848Y-15083984D01*
X10682086Y-15083984D02*
X10682086Y-14950650D01*
X10682086Y-14969698D02*
X10691610Y-14960174D01*
X10691610Y-14960174D02*
X10710658Y-14950650D01*
X10710658Y-14950650D02*
X10739229Y-14950650D01*
X10739229Y-14950650D02*
X10758277Y-14960174D01*
X10758277Y-14960174D02*
X10767801Y-14979222D01*
X10767801Y-14979222D02*
X10767801Y-15083984D01*
X10767801Y-14979222D02*
X10777325Y-14960174D01*
X10777325Y-14960174D02*
X10796372Y-14950650D01*
X10796372Y-14950650D02*
X10824944Y-14950650D01*
X10824944Y-14950650D02*
X10843991Y-14960174D01*
X10843991Y-14960174D02*
X10853515Y-14979222D01*
X10853515Y-14979222D02*
X10853515Y-15083984D01*
X11243991Y-14874460D02*
X11072563Y-15131603D01*
X11501134Y-14883984D02*
X11520182Y-14883984D01*
X11520182Y-14883984D02*
X11539229Y-14893508D01*
X11539229Y-14893508D02*
X11548753Y-14903031D01*
X11548753Y-14903031D02*
X11558277Y-14922079D01*
X11558277Y-14922079D02*
X11567801Y-14960174D01*
X11567801Y-14960174D02*
X11567801Y-15007793D01*
X11567801Y-15007793D02*
X11558277Y-15045888D01*
X11558277Y-15045888D02*
X11548753Y-15064936D01*
X11548753Y-15064936D02*
X11539229Y-15074460D01*
X11539229Y-15074460D02*
X11520182Y-15083984D01*
X11520182Y-15083984D02*
X11501134Y-15083984D01*
X11501134Y-15083984D02*
X11482086Y-15074460D01*
X11482086Y-15074460D02*
X11472563Y-15064936D01*
X11472563Y-15064936D02*
X11463039Y-15045888D01*
X11463039Y-15045888D02*
X11453515Y-15007793D01*
X11453515Y-15007793D02*
X11453515Y-14960174D01*
X11453515Y-14960174D02*
X11463039Y-14922079D01*
X11463039Y-14922079D02*
X11472563Y-14903031D01*
X11472563Y-14903031D02*
X11482086Y-14893508D01*
X11482086Y-14893508D02*
X11501134Y-14883984D01*
X11653515Y-15064936D02*
X11663039Y-15074460D01*
X11663039Y-15074460D02*
X11653515Y-15083984D01*
X11653515Y-15083984D02*
X11643991Y-15074460D01*
X11643991Y-15074460D02*
X11653515Y-15064936D01*
X11653515Y-15064936D02*
X11653515Y-15083984D01*
X11786848Y-14883984D02*
X11805896Y-14883984D01*
X11805896Y-14883984D02*
X11824944Y-14893508D01*
X11824944Y-14893508D02*
X11834467Y-14903031D01*
X11834467Y-14903031D02*
X11843991Y-14922079D01*
X11843991Y-14922079D02*
X11853515Y-14960174D01*
X11853515Y-14960174D02*
X11853515Y-15007793D01*
X11853515Y-15007793D02*
X11843991Y-15045888D01*
X11843991Y-15045888D02*
X11834467Y-15064936D01*
X11834467Y-15064936D02*
X11824944Y-15074460D01*
X11824944Y-15074460D02*
X11805896Y-15083984D01*
X11805896Y-15083984D02*
X11786848Y-15083984D01*
X11786848Y-15083984D02*
X11767801Y-15074460D01*
X11767801Y-15074460D02*
X11758277Y-15064936D01*
X11758277Y-15064936D02*
X11748753Y-15045888D01*
X11748753Y-15045888D02*
X11739229Y-15007793D01*
X11739229Y-15007793D02*
X11739229Y-14960174D01*
X11739229Y-14960174D02*
X11748753Y-14922079D01*
X11748753Y-14922079D02*
X11758277Y-14903031D01*
X11758277Y-14903031D02*
X11767801Y-14893508D01*
X11767801Y-14893508D02*
X11786848Y-14883984D01*
X12043991Y-15083984D02*
X11929706Y-15083984D01*
X11986848Y-15083984D02*
X11986848Y-14883984D01*
X11986848Y-14883984D02*
X11967801Y-14912555D01*
X11967801Y-14912555D02*
X11948753Y-14931603D01*
X11948753Y-14931603D02*
X11929706Y-14941127D01*
X12234467Y-15083984D02*
X12120182Y-15083984D01*
X12177325Y-15083984D02*
X12177325Y-14883984D01*
X12177325Y-14883984D02*
X12158277Y-14912555D01*
X12158277Y-14912555D02*
X12139229Y-14931603D01*
X12139229Y-14931603D02*
X12120182Y-14941127D01*
X12348753Y-14969698D02*
X12329706Y-14960174D01*
X12329706Y-14960174D02*
X12320182Y-14950650D01*
X12320182Y-14950650D02*
X12310658Y-14931603D01*
X12310658Y-14931603D02*
X12310658Y-14922079D01*
X12310658Y-14922079D02*
X12320182Y-14903031D01*
X12320182Y-14903031D02*
X12329706Y-14893508D01*
X12329706Y-14893508D02*
X12348753Y-14883984D01*
X12348753Y-14883984D02*
X12386848Y-14883984D01*
X12386848Y-14883984D02*
X12405896Y-14893508D01*
X12405896Y-14893508D02*
X12415420Y-14903031D01*
X12415420Y-14903031D02*
X12424944Y-14922079D01*
X12424944Y-14922079D02*
X12424944Y-14931603D01*
X12424944Y-14931603D02*
X12415420Y-14950650D01*
X12415420Y-14950650D02*
X12405896Y-14960174D01*
X12405896Y-14960174D02*
X12386848Y-14969698D01*
X12386848Y-14969698D02*
X12348753Y-14969698D01*
X12348753Y-14969698D02*
X12329706Y-14979222D01*
X12329706Y-14979222D02*
X12320182Y-14988746D01*
X12320182Y-14988746D02*
X12310658Y-15007793D01*
X12310658Y-15007793D02*
X12310658Y-15045888D01*
X12310658Y-15045888D02*
X12320182Y-15064936D01*
X12320182Y-15064936D02*
X12329706Y-15074460D01*
X12329706Y-15074460D02*
X12348753Y-15083984D01*
X12348753Y-15083984D02*
X12386848Y-15083984D01*
X12386848Y-15083984D02*
X12405896Y-15074460D01*
X12405896Y-15074460D02*
X12415420Y-15064936D01*
X12415420Y-15064936D02*
X12424944Y-15045888D01*
X12424944Y-15045888D02*
X12424944Y-15007793D01*
X12424944Y-15007793D02*
X12415420Y-14988746D01*
X12415420Y-14988746D02*
X12405896Y-14979222D01*
X12405896Y-14979222D02*
X12386848Y-14969698D01*
X12501134Y-14883984D02*
X12501134Y-14922079D01*
X12577325Y-14883984D02*
X12577325Y-14922079D01*
X12872563Y-15160174D02*
X12863039Y-15150650D01*
X12863039Y-15150650D02*
X12843991Y-15122079D01*
X12843991Y-15122079D02*
X12834468Y-15103031D01*
X12834468Y-15103031D02*
X12824944Y-15074460D01*
X12824944Y-15074460D02*
X12815420Y-15026841D01*
X12815420Y-15026841D02*
X12815420Y-14988746D01*
X12815420Y-14988746D02*
X12824944Y-14941127D01*
X12824944Y-14941127D02*
X12834468Y-14912555D01*
X12834468Y-14912555D02*
X12843991Y-14893508D01*
X12843991Y-14893508D02*
X12863039Y-14864936D01*
X12863039Y-14864936D02*
X12872563Y-14855412D01*
X13053515Y-15083984D02*
X12939229Y-15083984D01*
X12996372Y-15083984D02*
X12996372Y-14883984D01*
X12996372Y-14883984D02*
X12977325Y-14912555D01*
X12977325Y-14912555D02*
X12958277Y-14931603D01*
X12958277Y-14931603D02*
X12939229Y-14941127D01*
X13177325Y-14883984D02*
X13196372Y-14883984D01*
X13196372Y-14883984D02*
X13215420Y-14893508D01*
X13215420Y-14893508D02*
X13224944Y-14903031D01*
X13224944Y-14903031D02*
X13234468Y-14922079D01*
X13234468Y-14922079D02*
X13243991Y-14960174D01*
X13243991Y-14960174D02*
X13243991Y-15007793D01*
X13243991Y-15007793D02*
X13234468Y-15045888D01*
X13234468Y-15045888D02*
X13224944Y-15064936D01*
X13224944Y-15064936D02*
X13215420Y-15074460D01*
X13215420Y-15074460D02*
X13196372Y-15083984D01*
X13196372Y-15083984D02*
X13177325Y-15083984D01*
X13177325Y-15083984D02*
X13158277Y-15074460D01*
X13158277Y-15074460D02*
X13148753Y-15064936D01*
X13148753Y-15064936D02*
X13139229Y-15045888D01*
X13139229Y-15045888D02*
X13129706Y-15007793D01*
X13129706Y-15007793D02*
X13129706Y-14960174D01*
X13129706Y-14960174D02*
X13139229Y-14922079D01*
X13139229Y-14922079D02*
X13148753Y-14903031D01*
X13148753Y-14903031D02*
X13158277Y-14893508D01*
X13158277Y-14893508D02*
X13177325Y-14883984D01*
X13482087Y-15083984D02*
X13482087Y-14883984D01*
X13567801Y-15083984D02*
X13567801Y-14979222D01*
X13567801Y-14979222D02*
X13558277Y-14960174D01*
X13558277Y-14960174D02*
X13539230Y-14950650D01*
X13539230Y-14950650D02*
X13510658Y-14950650D01*
X13510658Y-14950650D02*
X13491610Y-14960174D01*
X13491610Y-14960174D02*
X13482087Y-14969698D01*
X13691610Y-15083984D02*
X13672563Y-15074460D01*
X13672563Y-15074460D02*
X13663039Y-15064936D01*
X13663039Y-15064936D02*
X13653515Y-15045888D01*
X13653515Y-15045888D02*
X13653515Y-14988746D01*
X13653515Y-14988746D02*
X13663039Y-14969698D01*
X13663039Y-14969698D02*
X13672563Y-14960174D01*
X13672563Y-14960174D02*
X13691610Y-14950650D01*
X13691610Y-14950650D02*
X13720182Y-14950650D01*
X13720182Y-14950650D02*
X13739230Y-14960174D01*
X13739230Y-14960174D02*
X13748753Y-14969698D01*
X13748753Y-14969698D02*
X13758277Y-14988746D01*
X13758277Y-14988746D02*
X13758277Y-15045888D01*
X13758277Y-15045888D02*
X13748753Y-15064936D01*
X13748753Y-15064936D02*
X13739230Y-15074460D01*
X13739230Y-15074460D02*
X13720182Y-15083984D01*
X13720182Y-15083984D02*
X13691610Y-15083984D01*
X13872563Y-15083984D02*
X13853515Y-15074460D01*
X13853515Y-15074460D02*
X13843991Y-15055412D01*
X13843991Y-15055412D02*
X13843991Y-14883984D01*
X14024944Y-15074460D02*
X14005896Y-15083984D01*
X14005896Y-15083984D02*
X13967801Y-15083984D01*
X13967801Y-15083984D02*
X13948753Y-15074460D01*
X13948753Y-15074460D02*
X13939230Y-15055412D01*
X13939230Y-15055412D02*
X13939230Y-14979222D01*
X13939230Y-14979222D02*
X13948753Y-14960174D01*
X13948753Y-14960174D02*
X13967801Y-14950650D01*
X13967801Y-14950650D02*
X14005896Y-14950650D01*
X14005896Y-14950650D02*
X14024944Y-14960174D01*
X14024944Y-14960174D02*
X14034468Y-14979222D01*
X14034468Y-14979222D02*
X14034468Y-14998269D01*
X14034468Y-14998269D02*
X13939230Y-15017317D01*
X14110658Y-15074460D02*
X14129706Y-15083984D01*
X14129706Y-15083984D02*
X14167801Y-15083984D01*
X14167801Y-15083984D02*
X14186849Y-15074460D01*
X14186849Y-15074460D02*
X14196372Y-15055412D01*
X14196372Y-15055412D02*
X14196372Y-15045888D01*
X14196372Y-15045888D02*
X14186849Y-15026841D01*
X14186849Y-15026841D02*
X14167801Y-15017317D01*
X14167801Y-15017317D02*
X14139230Y-15017317D01*
X14139230Y-15017317D02*
X14120182Y-15007793D01*
X14120182Y-15007793D02*
X14110658Y-14988746D01*
X14110658Y-14988746D02*
X14110658Y-14979222D01*
X14110658Y-14979222D02*
X14120182Y-14960174D01*
X14120182Y-14960174D02*
X14139230Y-14950650D01*
X14139230Y-14950650D02*
X14167801Y-14950650D01*
X14167801Y-14950650D02*
X14186849Y-14960174D01*
X14263039Y-15160174D02*
X14272563Y-15150650D01*
X14272563Y-15150650D02*
X14291611Y-15122079D01*
X14291611Y-15122079D02*
X14301134Y-15103031D01*
X14301134Y-15103031D02*
X14310658Y-15074460D01*
X14310658Y-15074460D02*
X14320182Y-15026841D01*
X14320182Y-15026841D02*
X14320182Y-14988746D01*
X14320182Y-14988746D02*
X14310658Y-14941127D01*
X14310658Y-14941127D02*
X14301134Y-14912555D01*
X14301134Y-14912555D02*
X14291611Y-14893508D01*
X14291611Y-14893508D02*
X14272563Y-14864936D01*
X14272563Y-14864936D02*
X14263039Y-14855412D01*
D12*
X9297500Y-15256500D02*
G75*
G02*
X9264500Y-15256500I-16500J0D01*
G01*
X9264500Y-15256500D02*
G75*
G02*
X9297500Y-15256500I16500J0D01*
G01*
D11*
X9596372Y-15147984D02*
X9615420Y-15147984D01*
X9615420Y-15147984D02*
X9634467Y-15157508D01*
X9634467Y-15157508D02*
X9643991Y-15167031D01*
X9643991Y-15167031D02*
X9653515Y-15186079D01*
X9653515Y-15186079D02*
X9663039Y-15224174D01*
X9663039Y-15224174D02*
X9663039Y-15271793D01*
X9663039Y-15271793D02*
X9653515Y-15309888D01*
X9653515Y-15309888D02*
X9643991Y-15328936D01*
X9643991Y-15328936D02*
X9634467Y-15338460D01*
X9634467Y-15338460D02*
X9615420Y-15347984D01*
X9615420Y-15347984D02*
X9596372Y-15347984D01*
X9596372Y-15347984D02*
X9577324Y-15338460D01*
X9577324Y-15338460D02*
X9567801Y-15328936D01*
X9567801Y-15328936D02*
X9558277Y-15309888D01*
X9558277Y-15309888D02*
X9548753Y-15271793D01*
X9548753Y-15271793D02*
X9548753Y-15224174D01*
X9548753Y-15224174D02*
X9558277Y-15186079D01*
X9558277Y-15186079D02*
X9567801Y-15167031D01*
X9567801Y-15167031D02*
X9577324Y-15157508D01*
X9577324Y-15157508D02*
X9596372Y-15147984D01*
X9748753Y-15328936D02*
X9758277Y-15338460D01*
X9758277Y-15338460D02*
X9748753Y-15347984D01*
X9748753Y-15347984D02*
X9739229Y-15338460D01*
X9739229Y-15338460D02*
X9748753Y-15328936D01*
X9748753Y-15328936D02*
X9748753Y-15347984D01*
X9824944Y-15147984D02*
X9948753Y-15147984D01*
X9948753Y-15147984D02*
X9882086Y-15224174D01*
X9882086Y-15224174D02*
X9910658Y-15224174D01*
X9910658Y-15224174D02*
X9929705Y-15233698D01*
X9929705Y-15233698D02*
X9939229Y-15243222D01*
X9939229Y-15243222D02*
X9948753Y-15262269D01*
X9948753Y-15262269D02*
X9948753Y-15309888D01*
X9948753Y-15309888D02*
X9939229Y-15328936D01*
X9939229Y-15328936D02*
X9929705Y-15338460D01*
X9929705Y-15338460D02*
X9910658Y-15347984D01*
X9910658Y-15347984D02*
X9853515Y-15347984D01*
X9853515Y-15347984D02*
X9834467Y-15338460D01*
X9834467Y-15338460D02*
X9824944Y-15328936D01*
X10015420Y-15147984D02*
X10139229Y-15147984D01*
X10139229Y-15147984D02*
X10072563Y-15224174D01*
X10072563Y-15224174D02*
X10101134Y-15224174D01*
X10101134Y-15224174D02*
X10120182Y-15233698D01*
X10120182Y-15233698D02*
X10129705Y-15243222D01*
X10129705Y-15243222D02*
X10139229Y-15262269D01*
X10139229Y-15262269D02*
X10139229Y-15309888D01*
X10139229Y-15309888D02*
X10129705Y-15328936D01*
X10129705Y-15328936D02*
X10120182Y-15338460D01*
X10120182Y-15338460D02*
X10101134Y-15347984D01*
X10101134Y-15347984D02*
X10043991Y-15347984D01*
X10043991Y-15347984D02*
X10024944Y-15338460D01*
X10024944Y-15338460D02*
X10015420Y-15328936D01*
X10263039Y-15147984D02*
X10282086Y-15147984D01*
X10282086Y-15147984D02*
X10301134Y-15157508D01*
X10301134Y-15157508D02*
X10310658Y-15167031D01*
X10310658Y-15167031D02*
X10320182Y-15186079D01*
X10320182Y-15186079D02*
X10329705Y-15224174D01*
X10329705Y-15224174D02*
X10329705Y-15271793D01*
X10329705Y-15271793D02*
X10320182Y-15309888D01*
X10320182Y-15309888D02*
X10310658Y-15328936D01*
X10310658Y-15328936D02*
X10301134Y-15338460D01*
X10301134Y-15338460D02*
X10282086Y-15347984D01*
X10282086Y-15347984D02*
X10263039Y-15347984D01*
X10263039Y-15347984D02*
X10243991Y-15338460D01*
X10243991Y-15338460D02*
X10234467Y-15328936D01*
X10234467Y-15328936D02*
X10224944Y-15309888D01*
X10224944Y-15309888D02*
X10215420Y-15271793D01*
X10215420Y-15271793D02*
X10215420Y-15224174D01*
X10215420Y-15224174D02*
X10224944Y-15186079D01*
X10224944Y-15186079D02*
X10234467Y-15167031D01*
X10234467Y-15167031D02*
X10243991Y-15157508D01*
X10243991Y-15157508D02*
X10263039Y-15147984D01*
X10415420Y-15347984D02*
X10415420Y-15214650D01*
X10415420Y-15233698D02*
X10424944Y-15224174D01*
X10424944Y-15224174D02*
X10443991Y-15214650D01*
X10443991Y-15214650D02*
X10472563Y-15214650D01*
X10472563Y-15214650D02*
X10491610Y-15224174D01*
X10491610Y-15224174D02*
X10501134Y-15243222D01*
X10501134Y-15243222D02*
X10501134Y-15347984D01*
X10501134Y-15243222D02*
X10510658Y-15224174D01*
X10510658Y-15224174D02*
X10529705Y-15214650D01*
X10529705Y-15214650D02*
X10558277Y-15214650D01*
X10558277Y-15214650D02*
X10577325Y-15224174D01*
X10577325Y-15224174D02*
X10586848Y-15243222D01*
X10586848Y-15243222D02*
X10586848Y-15347984D01*
X10682086Y-15347984D02*
X10682086Y-15214650D01*
X10682086Y-15233698D02*
X10691610Y-15224174D01*
X10691610Y-15224174D02*
X10710658Y-15214650D01*
X10710658Y-15214650D02*
X10739229Y-15214650D01*
X10739229Y-15214650D02*
X10758277Y-15224174D01*
X10758277Y-15224174D02*
X10767801Y-15243222D01*
X10767801Y-15243222D02*
X10767801Y-15347984D01*
X10767801Y-15243222D02*
X10777325Y-15224174D01*
X10777325Y-15224174D02*
X10796372Y-15214650D01*
X10796372Y-15214650D02*
X10824944Y-15214650D01*
X10824944Y-15214650D02*
X10843991Y-15224174D01*
X10843991Y-15224174D02*
X10853515Y-15243222D01*
X10853515Y-15243222D02*
X10853515Y-15347984D01*
X11243991Y-15138460D02*
X11072563Y-15395603D01*
X11501134Y-15147984D02*
X11520182Y-15147984D01*
X11520182Y-15147984D02*
X11539229Y-15157508D01*
X11539229Y-15157508D02*
X11548753Y-15167031D01*
X11548753Y-15167031D02*
X11558277Y-15186079D01*
X11558277Y-15186079D02*
X11567801Y-15224174D01*
X11567801Y-15224174D02*
X11567801Y-15271793D01*
X11567801Y-15271793D02*
X11558277Y-15309888D01*
X11558277Y-15309888D02*
X11548753Y-15328936D01*
X11548753Y-15328936D02*
X11539229Y-15338460D01*
X11539229Y-15338460D02*
X11520182Y-15347984D01*
X11520182Y-15347984D02*
X11501134Y-15347984D01*
X11501134Y-15347984D02*
X11482086Y-15338460D01*
X11482086Y-15338460D02*
X11472563Y-15328936D01*
X11472563Y-15328936D02*
X11463039Y-15309888D01*
X11463039Y-15309888D02*
X11453515Y-15271793D01*
X11453515Y-15271793D02*
X11453515Y-15224174D01*
X11453515Y-15224174D02*
X11463039Y-15186079D01*
X11463039Y-15186079D02*
X11472563Y-15167031D01*
X11472563Y-15167031D02*
X11482086Y-15157508D01*
X11482086Y-15157508D02*
X11501134Y-15147984D01*
X11653515Y-15328936D02*
X11663039Y-15338460D01*
X11663039Y-15338460D02*
X11653515Y-15347984D01*
X11653515Y-15347984D02*
X11643991Y-15338460D01*
X11643991Y-15338460D02*
X11653515Y-15328936D01*
X11653515Y-15328936D02*
X11653515Y-15347984D01*
X11786848Y-15147984D02*
X11805896Y-15147984D01*
X11805896Y-15147984D02*
X11824944Y-15157508D01*
X11824944Y-15157508D02*
X11834467Y-15167031D01*
X11834467Y-15167031D02*
X11843991Y-15186079D01*
X11843991Y-15186079D02*
X11853515Y-15224174D01*
X11853515Y-15224174D02*
X11853515Y-15271793D01*
X11853515Y-15271793D02*
X11843991Y-15309888D01*
X11843991Y-15309888D02*
X11834467Y-15328936D01*
X11834467Y-15328936D02*
X11824944Y-15338460D01*
X11824944Y-15338460D02*
X11805896Y-15347984D01*
X11805896Y-15347984D02*
X11786848Y-15347984D01*
X11786848Y-15347984D02*
X11767801Y-15338460D01*
X11767801Y-15338460D02*
X11758277Y-15328936D01*
X11758277Y-15328936D02*
X11748753Y-15309888D01*
X11748753Y-15309888D02*
X11739229Y-15271793D01*
X11739229Y-15271793D02*
X11739229Y-15224174D01*
X11739229Y-15224174D02*
X11748753Y-15186079D01*
X11748753Y-15186079D02*
X11758277Y-15167031D01*
X11758277Y-15167031D02*
X11767801Y-15157508D01*
X11767801Y-15157508D02*
X11786848Y-15147984D01*
X12043991Y-15347984D02*
X11929706Y-15347984D01*
X11986848Y-15347984D02*
X11986848Y-15147984D01*
X11986848Y-15147984D02*
X11967801Y-15176555D01*
X11967801Y-15176555D02*
X11948753Y-15195603D01*
X11948753Y-15195603D02*
X11929706Y-15205127D01*
X12110658Y-15147984D02*
X12234467Y-15147984D01*
X12234467Y-15147984D02*
X12167801Y-15224174D01*
X12167801Y-15224174D02*
X12196372Y-15224174D01*
X12196372Y-15224174D02*
X12215420Y-15233698D01*
X12215420Y-15233698D02*
X12224944Y-15243222D01*
X12224944Y-15243222D02*
X12234467Y-15262269D01*
X12234467Y-15262269D02*
X12234467Y-15309888D01*
X12234467Y-15309888D02*
X12224944Y-15328936D01*
X12224944Y-15328936D02*
X12215420Y-15338460D01*
X12215420Y-15338460D02*
X12196372Y-15347984D01*
X12196372Y-15347984D02*
X12139229Y-15347984D01*
X12139229Y-15347984D02*
X12120182Y-15338460D01*
X12120182Y-15338460D02*
X12110658Y-15328936D01*
X12358277Y-15147984D02*
X12377325Y-15147984D01*
X12377325Y-15147984D02*
X12396372Y-15157508D01*
X12396372Y-15157508D02*
X12405896Y-15167031D01*
X12405896Y-15167031D02*
X12415420Y-15186079D01*
X12415420Y-15186079D02*
X12424944Y-15224174D01*
X12424944Y-15224174D02*
X12424944Y-15271793D01*
X12424944Y-15271793D02*
X12415420Y-15309888D01*
X12415420Y-15309888D02*
X12405896Y-15328936D01*
X12405896Y-15328936D02*
X12396372Y-15338460D01*
X12396372Y-15338460D02*
X12377325Y-15347984D01*
X12377325Y-15347984D02*
X12358277Y-15347984D01*
X12358277Y-15347984D02*
X12339229Y-15338460D01*
X12339229Y-15338460D02*
X12329706Y-15328936D01*
X12329706Y-15328936D02*
X12320182Y-15309888D01*
X12320182Y-15309888D02*
X12310658Y-15271793D01*
X12310658Y-15271793D02*
X12310658Y-15224174D01*
X12310658Y-15224174D02*
X12320182Y-15186079D01*
X12320182Y-15186079D02*
X12329706Y-15167031D01*
X12329706Y-15167031D02*
X12339229Y-15157508D01*
X12339229Y-15157508D02*
X12358277Y-15147984D01*
X12501134Y-15147984D02*
X12501134Y-15186079D01*
X12577325Y-15147984D02*
X12577325Y-15186079D01*
X12872563Y-15424174D02*
X12863039Y-15414650D01*
X12863039Y-15414650D02*
X12843991Y-15386079D01*
X12843991Y-15386079D02*
X12834468Y-15367031D01*
X12834468Y-15367031D02*
X12824944Y-15338460D01*
X12824944Y-15338460D02*
X12815420Y-15290841D01*
X12815420Y-15290841D02*
X12815420Y-15252746D01*
X12815420Y-15252746D02*
X12824944Y-15205127D01*
X12824944Y-15205127D02*
X12834468Y-15176555D01*
X12834468Y-15176555D02*
X12843991Y-15157508D01*
X12843991Y-15157508D02*
X12863039Y-15128936D01*
X12863039Y-15128936D02*
X12872563Y-15119412D01*
X13053515Y-15347984D02*
X12939229Y-15347984D01*
X12996372Y-15347984D02*
X12996372Y-15147984D01*
X12996372Y-15147984D02*
X12977325Y-15176555D01*
X12977325Y-15176555D02*
X12958277Y-15195603D01*
X12958277Y-15195603D02*
X12939229Y-15205127D01*
X13129706Y-15167031D02*
X13139229Y-15157508D01*
X13139229Y-15157508D02*
X13158277Y-15147984D01*
X13158277Y-15147984D02*
X13205896Y-15147984D01*
X13205896Y-15147984D02*
X13224944Y-15157508D01*
X13224944Y-15157508D02*
X13234468Y-15167031D01*
X13234468Y-15167031D02*
X13243991Y-15186079D01*
X13243991Y-15186079D02*
X13243991Y-15205127D01*
X13243991Y-15205127D02*
X13234468Y-15233698D01*
X13234468Y-15233698D02*
X13120182Y-15347984D01*
X13120182Y-15347984D02*
X13243991Y-15347984D01*
X13482087Y-15347984D02*
X13482087Y-15147984D01*
X13567801Y-15347984D02*
X13567801Y-15243222D01*
X13567801Y-15243222D02*
X13558277Y-15224174D01*
X13558277Y-15224174D02*
X13539230Y-15214650D01*
X13539230Y-15214650D02*
X13510658Y-15214650D01*
X13510658Y-15214650D02*
X13491610Y-15224174D01*
X13491610Y-15224174D02*
X13482087Y-15233698D01*
X13691610Y-15347984D02*
X13672563Y-15338460D01*
X13672563Y-15338460D02*
X13663039Y-15328936D01*
X13663039Y-15328936D02*
X13653515Y-15309888D01*
X13653515Y-15309888D02*
X13653515Y-15252746D01*
X13653515Y-15252746D02*
X13663039Y-15233698D01*
X13663039Y-15233698D02*
X13672563Y-15224174D01*
X13672563Y-15224174D02*
X13691610Y-15214650D01*
X13691610Y-15214650D02*
X13720182Y-15214650D01*
X13720182Y-15214650D02*
X13739230Y-15224174D01*
X13739230Y-15224174D02*
X13748753Y-15233698D01*
X13748753Y-15233698D02*
X13758277Y-15252746D01*
X13758277Y-15252746D02*
X13758277Y-15309888D01*
X13758277Y-15309888D02*
X13748753Y-15328936D01*
X13748753Y-15328936D02*
X13739230Y-15338460D01*
X13739230Y-15338460D02*
X13720182Y-15347984D01*
X13720182Y-15347984D02*
X13691610Y-15347984D01*
X13872563Y-15347984D02*
X13853515Y-15338460D01*
X13853515Y-15338460D02*
X13843991Y-15319412D01*
X13843991Y-15319412D02*
X13843991Y-15147984D01*
X14024944Y-15338460D02*
X14005896Y-15347984D01*
X14005896Y-15347984D02*
X13967801Y-15347984D01*
X13967801Y-15347984D02*
X13948753Y-15338460D01*
X13948753Y-15338460D02*
X13939230Y-15319412D01*
X13939230Y-15319412D02*
X13939230Y-15243222D01*
X13939230Y-15243222D02*
X13948753Y-15224174D01*
X13948753Y-15224174D02*
X13967801Y-15214650D01*
X13967801Y-15214650D02*
X14005896Y-15214650D01*
X14005896Y-15214650D02*
X14024944Y-15224174D01*
X14024944Y-15224174D02*
X14034468Y-15243222D01*
X14034468Y-15243222D02*
X14034468Y-15262269D01*
X14034468Y-15262269D02*
X13939230Y-15281317D01*
X14110658Y-15338460D02*
X14129706Y-15347984D01*
X14129706Y-15347984D02*
X14167801Y-15347984D01*
X14167801Y-15347984D02*
X14186849Y-15338460D01*
X14186849Y-15338460D02*
X14196372Y-15319412D01*
X14196372Y-15319412D02*
X14196372Y-15309888D01*
X14196372Y-15309888D02*
X14186849Y-15290841D01*
X14186849Y-15290841D02*
X14167801Y-15281317D01*
X14167801Y-15281317D02*
X14139230Y-15281317D01*
X14139230Y-15281317D02*
X14120182Y-15271793D01*
X14120182Y-15271793D02*
X14110658Y-15252746D01*
X14110658Y-15252746D02*
X14110658Y-15243222D01*
X14110658Y-15243222D02*
X14120182Y-15224174D01*
X14120182Y-15224174D02*
X14139230Y-15214650D01*
X14139230Y-15214650D02*
X14167801Y-15214650D01*
X14167801Y-15214650D02*
X14186849Y-15224174D01*
X14263039Y-15424174D02*
X14272563Y-15414650D01*
X14272563Y-15414650D02*
X14291611Y-15386079D01*
X14291611Y-15386079D02*
X14301134Y-15367031D01*
X14301134Y-15367031D02*
X14310658Y-15338460D01*
X14310658Y-15338460D02*
X14320182Y-15290841D01*
X14320182Y-15290841D02*
X14320182Y-15252746D01*
X14320182Y-15252746D02*
X14310658Y-15205127D01*
X14310658Y-15205127D02*
X14301134Y-15176555D01*
X14301134Y-15176555D02*
X14291611Y-15157508D01*
X14291611Y-15157508D02*
X14272563Y-15128936D01*
X14272563Y-15128936D02*
X14263039Y-15119412D01*
D12*
X9272500Y-15495500D02*
X9272500Y-15545500D01*
X9247500Y-15520500D02*
X9297500Y-15520500D01*
D11*
X9596372Y-15411984D02*
X9615420Y-15411984D01*
X9615420Y-15411984D02*
X9634467Y-15421508D01*
X9634467Y-15421508D02*
X9643991Y-15431031D01*
X9643991Y-15431031D02*
X9653515Y-15450079D01*
X9653515Y-15450079D02*
X9663039Y-15488174D01*
X9663039Y-15488174D02*
X9663039Y-15535793D01*
X9663039Y-15535793D02*
X9653515Y-15573888D01*
X9653515Y-15573888D02*
X9643991Y-15592936D01*
X9643991Y-15592936D02*
X9634467Y-15602460D01*
X9634467Y-15602460D02*
X9615420Y-15611984D01*
X9615420Y-15611984D02*
X9596372Y-15611984D01*
X9596372Y-15611984D02*
X9577324Y-15602460D01*
X9577324Y-15602460D02*
X9567801Y-15592936D01*
X9567801Y-15592936D02*
X9558277Y-15573888D01*
X9558277Y-15573888D02*
X9548753Y-15535793D01*
X9548753Y-15535793D02*
X9548753Y-15488174D01*
X9548753Y-15488174D02*
X9558277Y-15450079D01*
X9558277Y-15450079D02*
X9567801Y-15431031D01*
X9567801Y-15431031D02*
X9577324Y-15421508D01*
X9577324Y-15421508D02*
X9596372Y-15411984D01*
X9748753Y-15592936D02*
X9758277Y-15602460D01*
X9758277Y-15602460D02*
X9748753Y-15611984D01*
X9748753Y-15611984D02*
X9739229Y-15602460D01*
X9739229Y-15602460D02*
X9748753Y-15592936D01*
X9748753Y-15592936D02*
X9748753Y-15611984D01*
X9939229Y-15411984D02*
X9843991Y-15411984D01*
X9843991Y-15411984D02*
X9834467Y-15507222D01*
X9834467Y-15507222D02*
X9843991Y-15497698D01*
X9843991Y-15497698D02*
X9863039Y-15488174D01*
X9863039Y-15488174D02*
X9910658Y-15488174D01*
X9910658Y-15488174D02*
X9929705Y-15497698D01*
X9929705Y-15497698D02*
X9939229Y-15507222D01*
X9939229Y-15507222D02*
X9948753Y-15526269D01*
X9948753Y-15526269D02*
X9948753Y-15573888D01*
X9948753Y-15573888D02*
X9939229Y-15592936D01*
X9939229Y-15592936D02*
X9929705Y-15602460D01*
X9929705Y-15602460D02*
X9910658Y-15611984D01*
X9910658Y-15611984D02*
X9863039Y-15611984D01*
X9863039Y-15611984D02*
X9843991Y-15602460D01*
X9843991Y-15602460D02*
X9834467Y-15592936D01*
X10072563Y-15411984D02*
X10091610Y-15411984D01*
X10091610Y-15411984D02*
X10110658Y-15421508D01*
X10110658Y-15421508D02*
X10120182Y-15431031D01*
X10120182Y-15431031D02*
X10129705Y-15450079D01*
X10129705Y-15450079D02*
X10139229Y-15488174D01*
X10139229Y-15488174D02*
X10139229Y-15535793D01*
X10139229Y-15535793D02*
X10129705Y-15573888D01*
X10129705Y-15573888D02*
X10120182Y-15592936D01*
X10120182Y-15592936D02*
X10110658Y-15602460D01*
X10110658Y-15602460D02*
X10091610Y-15611984D01*
X10091610Y-15611984D02*
X10072563Y-15611984D01*
X10072563Y-15611984D02*
X10053515Y-15602460D01*
X10053515Y-15602460D02*
X10043991Y-15592936D01*
X10043991Y-15592936D02*
X10034467Y-15573888D01*
X10034467Y-15573888D02*
X10024944Y-15535793D01*
X10024944Y-15535793D02*
X10024944Y-15488174D01*
X10024944Y-15488174D02*
X10034467Y-15450079D01*
X10034467Y-15450079D02*
X10043991Y-15431031D01*
X10043991Y-15431031D02*
X10053515Y-15421508D01*
X10053515Y-15421508D02*
X10072563Y-15411984D01*
X10263039Y-15411984D02*
X10282086Y-15411984D01*
X10282086Y-15411984D02*
X10301134Y-15421508D01*
X10301134Y-15421508D02*
X10310658Y-15431031D01*
X10310658Y-15431031D02*
X10320182Y-15450079D01*
X10320182Y-15450079D02*
X10329705Y-15488174D01*
X10329705Y-15488174D02*
X10329705Y-15535793D01*
X10329705Y-15535793D02*
X10320182Y-15573888D01*
X10320182Y-15573888D02*
X10310658Y-15592936D01*
X10310658Y-15592936D02*
X10301134Y-15602460D01*
X10301134Y-15602460D02*
X10282086Y-15611984D01*
X10282086Y-15611984D02*
X10263039Y-15611984D01*
X10263039Y-15611984D02*
X10243991Y-15602460D01*
X10243991Y-15602460D02*
X10234467Y-15592936D01*
X10234467Y-15592936D02*
X10224944Y-15573888D01*
X10224944Y-15573888D02*
X10215420Y-15535793D01*
X10215420Y-15535793D02*
X10215420Y-15488174D01*
X10215420Y-15488174D02*
X10224944Y-15450079D01*
X10224944Y-15450079D02*
X10234467Y-15431031D01*
X10234467Y-15431031D02*
X10243991Y-15421508D01*
X10243991Y-15421508D02*
X10263039Y-15411984D01*
X10415420Y-15611984D02*
X10415420Y-15478650D01*
X10415420Y-15497698D02*
X10424944Y-15488174D01*
X10424944Y-15488174D02*
X10443991Y-15478650D01*
X10443991Y-15478650D02*
X10472563Y-15478650D01*
X10472563Y-15478650D02*
X10491610Y-15488174D01*
X10491610Y-15488174D02*
X10501134Y-15507222D01*
X10501134Y-15507222D02*
X10501134Y-15611984D01*
X10501134Y-15507222D02*
X10510658Y-15488174D01*
X10510658Y-15488174D02*
X10529705Y-15478650D01*
X10529705Y-15478650D02*
X10558277Y-15478650D01*
X10558277Y-15478650D02*
X10577325Y-15488174D01*
X10577325Y-15488174D02*
X10586848Y-15507222D01*
X10586848Y-15507222D02*
X10586848Y-15611984D01*
X10682086Y-15611984D02*
X10682086Y-15478650D01*
X10682086Y-15497698D02*
X10691610Y-15488174D01*
X10691610Y-15488174D02*
X10710658Y-15478650D01*
X10710658Y-15478650D02*
X10739229Y-15478650D01*
X10739229Y-15478650D02*
X10758277Y-15488174D01*
X10758277Y-15488174D02*
X10767801Y-15507222D01*
X10767801Y-15507222D02*
X10767801Y-15611984D01*
X10767801Y-15507222D02*
X10777325Y-15488174D01*
X10777325Y-15488174D02*
X10796372Y-15478650D01*
X10796372Y-15478650D02*
X10824944Y-15478650D01*
X10824944Y-15478650D02*
X10843991Y-15488174D01*
X10843991Y-15488174D02*
X10853515Y-15507222D01*
X10853515Y-15507222D02*
X10853515Y-15611984D01*
X11243991Y-15402460D02*
X11072563Y-15659603D01*
X11501134Y-15411984D02*
X11520182Y-15411984D01*
X11520182Y-15411984D02*
X11539229Y-15421508D01*
X11539229Y-15421508D02*
X11548753Y-15431031D01*
X11548753Y-15431031D02*
X11558277Y-15450079D01*
X11558277Y-15450079D02*
X11567801Y-15488174D01*
X11567801Y-15488174D02*
X11567801Y-15535793D01*
X11567801Y-15535793D02*
X11558277Y-15573888D01*
X11558277Y-15573888D02*
X11548753Y-15592936D01*
X11548753Y-15592936D02*
X11539229Y-15602460D01*
X11539229Y-15602460D02*
X11520182Y-15611984D01*
X11520182Y-15611984D02*
X11501134Y-15611984D01*
X11501134Y-15611984D02*
X11482086Y-15602460D01*
X11482086Y-15602460D02*
X11472563Y-15592936D01*
X11472563Y-15592936D02*
X11463039Y-15573888D01*
X11463039Y-15573888D02*
X11453515Y-15535793D01*
X11453515Y-15535793D02*
X11453515Y-15488174D01*
X11453515Y-15488174D02*
X11463039Y-15450079D01*
X11463039Y-15450079D02*
X11472563Y-15431031D01*
X11472563Y-15431031D02*
X11482086Y-15421508D01*
X11482086Y-15421508D02*
X11501134Y-15411984D01*
X11653515Y-15592936D02*
X11663039Y-15602460D01*
X11663039Y-15602460D02*
X11653515Y-15611984D01*
X11653515Y-15611984D02*
X11643991Y-15602460D01*
X11643991Y-15602460D02*
X11653515Y-15592936D01*
X11653515Y-15592936D02*
X11653515Y-15611984D01*
X11786848Y-15411984D02*
X11805896Y-15411984D01*
X11805896Y-15411984D02*
X11824944Y-15421508D01*
X11824944Y-15421508D02*
X11834467Y-15431031D01*
X11834467Y-15431031D02*
X11843991Y-15450079D01*
X11843991Y-15450079D02*
X11853515Y-15488174D01*
X11853515Y-15488174D02*
X11853515Y-15535793D01*
X11853515Y-15535793D02*
X11843991Y-15573888D01*
X11843991Y-15573888D02*
X11834467Y-15592936D01*
X11834467Y-15592936D02*
X11824944Y-15602460D01*
X11824944Y-15602460D02*
X11805896Y-15611984D01*
X11805896Y-15611984D02*
X11786848Y-15611984D01*
X11786848Y-15611984D02*
X11767801Y-15602460D01*
X11767801Y-15602460D02*
X11758277Y-15592936D01*
X11758277Y-15592936D02*
X11748753Y-15573888D01*
X11748753Y-15573888D02*
X11739229Y-15535793D01*
X11739229Y-15535793D02*
X11739229Y-15488174D01*
X11739229Y-15488174D02*
X11748753Y-15450079D01*
X11748753Y-15450079D02*
X11758277Y-15431031D01*
X11758277Y-15431031D02*
X11767801Y-15421508D01*
X11767801Y-15421508D02*
X11786848Y-15411984D01*
X12043991Y-15611984D02*
X11929706Y-15611984D01*
X11986848Y-15611984D02*
X11986848Y-15411984D01*
X11986848Y-15411984D02*
X11967801Y-15440555D01*
X11967801Y-15440555D02*
X11948753Y-15459603D01*
X11948753Y-15459603D02*
X11929706Y-15469127D01*
X12139229Y-15611984D02*
X12177325Y-15611984D01*
X12177325Y-15611984D02*
X12196372Y-15602460D01*
X12196372Y-15602460D02*
X12205896Y-15592936D01*
X12205896Y-15592936D02*
X12224944Y-15564365D01*
X12224944Y-15564365D02*
X12234467Y-15526269D01*
X12234467Y-15526269D02*
X12234467Y-15450079D01*
X12234467Y-15450079D02*
X12224944Y-15431031D01*
X12224944Y-15431031D02*
X12215420Y-15421508D01*
X12215420Y-15421508D02*
X12196372Y-15411984D01*
X12196372Y-15411984D02*
X12158277Y-15411984D01*
X12158277Y-15411984D02*
X12139229Y-15421508D01*
X12139229Y-15421508D02*
X12129706Y-15431031D01*
X12129706Y-15431031D02*
X12120182Y-15450079D01*
X12120182Y-15450079D02*
X12120182Y-15497698D01*
X12120182Y-15497698D02*
X12129706Y-15516746D01*
X12129706Y-15516746D02*
X12139229Y-15526269D01*
X12139229Y-15526269D02*
X12158277Y-15535793D01*
X12158277Y-15535793D02*
X12196372Y-15535793D01*
X12196372Y-15535793D02*
X12215420Y-15526269D01*
X12215420Y-15526269D02*
X12224944Y-15516746D01*
X12224944Y-15516746D02*
X12234467Y-15497698D01*
X12301134Y-15411984D02*
X12434467Y-15411984D01*
X12434467Y-15411984D02*
X12348753Y-15611984D01*
X12501134Y-15411984D02*
X12501134Y-15450079D01*
X12577325Y-15411984D02*
X12577325Y-15450079D01*
X12872563Y-15688174D02*
X12863039Y-15678650D01*
X12863039Y-15678650D02*
X12843991Y-15650079D01*
X12843991Y-15650079D02*
X12834468Y-15631031D01*
X12834468Y-15631031D02*
X12824944Y-15602460D01*
X12824944Y-15602460D02*
X12815420Y-15554841D01*
X12815420Y-15554841D02*
X12815420Y-15516746D01*
X12815420Y-15516746D02*
X12824944Y-15469127D01*
X12824944Y-15469127D02*
X12834468Y-15440555D01*
X12834468Y-15440555D02*
X12843991Y-15421508D01*
X12843991Y-15421508D02*
X12863039Y-15392936D01*
X12863039Y-15392936D02*
X12872563Y-15383412D01*
X12977325Y-15497698D02*
X12958277Y-15488174D01*
X12958277Y-15488174D02*
X12948753Y-15478650D01*
X12948753Y-15478650D02*
X12939229Y-15459603D01*
X12939229Y-15459603D02*
X12939229Y-15450079D01*
X12939229Y-15450079D02*
X12948753Y-15431031D01*
X12948753Y-15431031D02*
X12958277Y-15421508D01*
X12958277Y-15421508D02*
X12977325Y-15411984D01*
X12977325Y-15411984D02*
X13015420Y-15411984D01*
X13015420Y-15411984D02*
X13034468Y-15421508D01*
X13034468Y-15421508D02*
X13043991Y-15431031D01*
X13043991Y-15431031D02*
X13053515Y-15450079D01*
X13053515Y-15450079D02*
X13053515Y-15459603D01*
X13053515Y-15459603D02*
X13043991Y-15478650D01*
X13043991Y-15478650D02*
X13034468Y-15488174D01*
X13034468Y-15488174D02*
X13015420Y-15497698D01*
X13015420Y-15497698D02*
X12977325Y-15497698D01*
X12977325Y-15497698D02*
X12958277Y-15507222D01*
X12958277Y-15507222D02*
X12948753Y-15516746D01*
X12948753Y-15516746D02*
X12939229Y-15535793D01*
X12939229Y-15535793D02*
X12939229Y-15573888D01*
X12939229Y-15573888D02*
X12948753Y-15592936D01*
X12948753Y-15592936D02*
X12958277Y-15602460D01*
X12958277Y-15602460D02*
X12977325Y-15611984D01*
X12977325Y-15611984D02*
X13015420Y-15611984D01*
X13015420Y-15611984D02*
X13034468Y-15602460D01*
X13034468Y-15602460D02*
X13043991Y-15592936D01*
X13043991Y-15592936D02*
X13053515Y-15573888D01*
X13053515Y-15573888D02*
X13053515Y-15535793D01*
X13053515Y-15535793D02*
X13043991Y-15516746D01*
X13043991Y-15516746D02*
X13034468Y-15507222D01*
X13034468Y-15507222D02*
X13015420Y-15497698D01*
X13291610Y-15611984D02*
X13291610Y-15411984D01*
X13377325Y-15611984D02*
X13377325Y-15507222D01*
X13377325Y-15507222D02*
X13367801Y-15488174D01*
X13367801Y-15488174D02*
X13348753Y-15478650D01*
X13348753Y-15478650D02*
X13320182Y-15478650D01*
X13320182Y-15478650D02*
X13301134Y-15488174D01*
X13301134Y-15488174D02*
X13291610Y-15497698D01*
X13501134Y-15611984D02*
X13482087Y-15602460D01*
X13482087Y-15602460D02*
X13472563Y-15592936D01*
X13472563Y-15592936D02*
X13463039Y-15573888D01*
X13463039Y-15573888D02*
X13463039Y-15516746D01*
X13463039Y-15516746D02*
X13472563Y-15497698D01*
X13472563Y-15497698D02*
X13482087Y-15488174D01*
X13482087Y-15488174D02*
X13501134Y-15478650D01*
X13501134Y-15478650D02*
X13529706Y-15478650D01*
X13529706Y-15478650D02*
X13548753Y-15488174D01*
X13548753Y-15488174D02*
X13558277Y-15497698D01*
X13558277Y-15497698D02*
X13567801Y-15516746D01*
X13567801Y-15516746D02*
X13567801Y-15573888D01*
X13567801Y-15573888D02*
X13558277Y-15592936D01*
X13558277Y-15592936D02*
X13548753Y-15602460D01*
X13548753Y-15602460D02*
X13529706Y-15611984D01*
X13529706Y-15611984D02*
X13501134Y-15611984D01*
X13682087Y-15611984D02*
X13663039Y-15602460D01*
X13663039Y-15602460D02*
X13653515Y-15583412D01*
X13653515Y-15583412D02*
X13653515Y-15411984D01*
X13834468Y-15602460D02*
X13815420Y-15611984D01*
X13815420Y-15611984D02*
X13777325Y-15611984D01*
X13777325Y-15611984D02*
X13758277Y-15602460D01*
X13758277Y-15602460D02*
X13748753Y-15583412D01*
X13748753Y-15583412D02*
X13748753Y-15507222D01*
X13748753Y-15507222D02*
X13758277Y-15488174D01*
X13758277Y-15488174D02*
X13777325Y-15478650D01*
X13777325Y-15478650D02*
X13815420Y-15478650D01*
X13815420Y-15478650D02*
X13834468Y-15488174D01*
X13834468Y-15488174D02*
X13843991Y-15507222D01*
X13843991Y-15507222D02*
X13843991Y-15526269D01*
X13843991Y-15526269D02*
X13748753Y-15545317D01*
X13920182Y-15602460D02*
X13939230Y-15611984D01*
X13939230Y-15611984D02*
X13977325Y-15611984D01*
X13977325Y-15611984D02*
X13996372Y-15602460D01*
X13996372Y-15602460D02*
X14005896Y-15583412D01*
X14005896Y-15583412D02*
X14005896Y-15573888D01*
X14005896Y-15573888D02*
X13996372Y-15554841D01*
X13996372Y-15554841D02*
X13977325Y-15545317D01*
X13977325Y-15545317D02*
X13948753Y-15545317D01*
X13948753Y-15545317D02*
X13929706Y-15535793D01*
X13929706Y-15535793D02*
X13920182Y-15516746D01*
X13920182Y-15516746D02*
X13920182Y-15507222D01*
X13920182Y-15507222D02*
X13929706Y-15488174D01*
X13929706Y-15488174D02*
X13948753Y-15478650D01*
X13948753Y-15478650D02*
X13977325Y-15478650D01*
X13977325Y-15478650D02*
X13996372Y-15488174D01*
X14072563Y-15688174D02*
X14082087Y-15678650D01*
X14082087Y-15678650D02*
X14101134Y-15650079D01*
X14101134Y-15650079D02*
X14110658Y-15631031D01*
X14110658Y-15631031D02*
X14120182Y-15602460D01*
X14120182Y-15602460D02*
X14129706Y-15554841D01*
X14129706Y-15554841D02*
X14129706Y-15516746D01*
X14129706Y-15516746D02*
X14120182Y-15469127D01*
X14120182Y-15469127D02*
X14110658Y-15440555D01*
X14110658Y-15440555D02*
X14101134Y-15421508D01*
X14101134Y-15421508D02*
X14082087Y-15392936D01*
X14082087Y-15392936D02*
X14072563Y-15383412D01*
D12*
X9290178Y-15802178D02*
X9290178Y-15766822D01*
X9254822Y-15766822D01*
X9254822Y-15802178D01*
X9290178Y-15802178D01*
D11*
X9596372Y-15675984D02*
X9615420Y-15675984D01*
X9615420Y-15675984D02*
X9634467Y-15685508D01*
X9634467Y-15685508D02*
X9643991Y-15695031D01*
X9643991Y-15695031D02*
X9653515Y-15714079D01*
X9653515Y-15714079D02*
X9663039Y-15752174D01*
X9663039Y-15752174D02*
X9663039Y-15799793D01*
X9663039Y-15799793D02*
X9653515Y-15837888D01*
X9653515Y-15837888D02*
X9643991Y-15856936D01*
X9643991Y-15856936D02*
X9634467Y-15866460D01*
X9634467Y-15866460D02*
X9615420Y-15875984D01*
X9615420Y-15875984D02*
X9596372Y-15875984D01*
X9596372Y-15875984D02*
X9577324Y-15866460D01*
X9577324Y-15866460D02*
X9567801Y-15856936D01*
X9567801Y-15856936D02*
X9558277Y-15837888D01*
X9558277Y-15837888D02*
X9548753Y-15799793D01*
X9548753Y-15799793D02*
X9548753Y-15752174D01*
X9548753Y-15752174D02*
X9558277Y-15714079D01*
X9558277Y-15714079D02*
X9567801Y-15695031D01*
X9567801Y-15695031D02*
X9577324Y-15685508D01*
X9577324Y-15685508D02*
X9596372Y-15675984D01*
X9748753Y-15856936D02*
X9758277Y-15866460D01*
X9758277Y-15866460D02*
X9748753Y-15875984D01*
X9748753Y-15875984D02*
X9739229Y-15866460D01*
X9739229Y-15866460D02*
X9748753Y-15856936D01*
X9748753Y-15856936D02*
X9748753Y-15875984D01*
X9939229Y-15675984D02*
X9843991Y-15675984D01*
X9843991Y-15675984D02*
X9834467Y-15771222D01*
X9834467Y-15771222D02*
X9843991Y-15761698D01*
X9843991Y-15761698D02*
X9863039Y-15752174D01*
X9863039Y-15752174D02*
X9910658Y-15752174D01*
X9910658Y-15752174D02*
X9929705Y-15761698D01*
X9929705Y-15761698D02*
X9939229Y-15771222D01*
X9939229Y-15771222D02*
X9948753Y-15790269D01*
X9948753Y-15790269D02*
X9948753Y-15837888D01*
X9948753Y-15837888D02*
X9939229Y-15856936D01*
X9939229Y-15856936D02*
X9929705Y-15866460D01*
X9929705Y-15866460D02*
X9910658Y-15875984D01*
X9910658Y-15875984D02*
X9863039Y-15875984D01*
X9863039Y-15875984D02*
X9843991Y-15866460D01*
X9843991Y-15866460D02*
X9834467Y-15856936D01*
X10072563Y-15675984D02*
X10091610Y-15675984D01*
X10091610Y-15675984D02*
X10110658Y-15685508D01*
X10110658Y-15685508D02*
X10120182Y-15695031D01*
X10120182Y-15695031D02*
X10129705Y-15714079D01*
X10129705Y-15714079D02*
X10139229Y-15752174D01*
X10139229Y-15752174D02*
X10139229Y-15799793D01*
X10139229Y-15799793D02*
X10129705Y-15837888D01*
X10129705Y-15837888D02*
X10120182Y-15856936D01*
X10120182Y-15856936D02*
X10110658Y-15866460D01*
X10110658Y-15866460D02*
X10091610Y-15875984D01*
X10091610Y-15875984D02*
X10072563Y-15875984D01*
X10072563Y-15875984D02*
X10053515Y-15866460D01*
X10053515Y-15866460D02*
X10043991Y-15856936D01*
X10043991Y-15856936D02*
X10034467Y-15837888D01*
X10034467Y-15837888D02*
X10024944Y-15799793D01*
X10024944Y-15799793D02*
X10024944Y-15752174D01*
X10024944Y-15752174D02*
X10034467Y-15714079D01*
X10034467Y-15714079D02*
X10043991Y-15695031D01*
X10043991Y-15695031D02*
X10053515Y-15685508D01*
X10053515Y-15685508D02*
X10072563Y-15675984D01*
X10263039Y-15675984D02*
X10282086Y-15675984D01*
X10282086Y-15675984D02*
X10301134Y-15685508D01*
X10301134Y-15685508D02*
X10310658Y-15695031D01*
X10310658Y-15695031D02*
X10320182Y-15714079D01*
X10320182Y-15714079D02*
X10329705Y-15752174D01*
X10329705Y-15752174D02*
X10329705Y-15799793D01*
X10329705Y-15799793D02*
X10320182Y-15837888D01*
X10320182Y-15837888D02*
X10310658Y-15856936D01*
X10310658Y-15856936D02*
X10301134Y-15866460D01*
X10301134Y-15866460D02*
X10282086Y-15875984D01*
X10282086Y-15875984D02*
X10263039Y-15875984D01*
X10263039Y-15875984D02*
X10243991Y-15866460D01*
X10243991Y-15866460D02*
X10234467Y-15856936D01*
X10234467Y-15856936D02*
X10224944Y-15837888D01*
X10224944Y-15837888D02*
X10215420Y-15799793D01*
X10215420Y-15799793D02*
X10215420Y-15752174D01*
X10215420Y-15752174D02*
X10224944Y-15714079D01*
X10224944Y-15714079D02*
X10234467Y-15695031D01*
X10234467Y-15695031D02*
X10243991Y-15685508D01*
X10243991Y-15685508D02*
X10263039Y-15675984D01*
X10415420Y-15875984D02*
X10415420Y-15742650D01*
X10415420Y-15761698D02*
X10424944Y-15752174D01*
X10424944Y-15752174D02*
X10443991Y-15742650D01*
X10443991Y-15742650D02*
X10472563Y-15742650D01*
X10472563Y-15742650D02*
X10491610Y-15752174D01*
X10491610Y-15752174D02*
X10501134Y-15771222D01*
X10501134Y-15771222D02*
X10501134Y-15875984D01*
X10501134Y-15771222D02*
X10510658Y-15752174D01*
X10510658Y-15752174D02*
X10529705Y-15742650D01*
X10529705Y-15742650D02*
X10558277Y-15742650D01*
X10558277Y-15742650D02*
X10577325Y-15752174D01*
X10577325Y-15752174D02*
X10586848Y-15771222D01*
X10586848Y-15771222D02*
X10586848Y-15875984D01*
X10682086Y-15875984D02*
X10682086Y-15742650D01*
X10682086Y-15761698D02*
X10691610Y-15752174D01*
X10691610Y-15752174D02*
X10710658Y-15742650D01*
X10710658Y-15742650D02*
X10739229Y-15742650D01*
X10739229Y-15742650D02*
X10758277Y-15752174D01*
X10758277Y-15752174D02*
X10767801Y-15771222D01*
X10767801Y-15771222D02*
X10767801Y-15875984D01*
X10767801Y-15771222D02*
X10777325Y-15752174D01*
X10777325Y-15752174D02*
X10796372Y-15742650D01*
X10796372Y-15742650D02*
X10824944Y-15742650D01*
X10824944Y-15742650D02*
X10843991Y-15752174D01*
X10843991Y-15752174D02*
X10853515Y-15771222D01*
X10853515Y-15771222D02*
X10853515Y-15875984D01*
X11243991Y-15666460D02*
X11072563Y-15923603D01*
X11501134Y-15675984D02*
X11520182Y-15675984D01*
X11520182Y-15675984D02*
X11539229Y-15685508D01*
X11539229Y-15685508D02*
X11548753Y-15695031D01*
X11548753Y-15695031D02*
X11558277Y-15714079D01*
X11558277Y-15714079D02*
X11567801Y-15752174D01*
X11567801Y-15752174D02*
X11567801Y-15799793D01*
X11567801Y-15799793D02*
X11558277Y-15837888D01*
X11558277Y-15837888D02*
X11548753Y-15856936D01*
X11548753Y-15856936D02*
X11539229Y-15866460D01*
X11539229Y-15866460D02*
X11520182Y-15875984D01*
X11520182Y-15875984D02*
X11501134Y-15875984D01*
X11501134Y-15875984D02*
X11482086Y-15866460D01*
X11482086Y-15866460D02*
X11472563Y-15856936D01*
X11472563Y-15856936D02*
X11463039Y-15837888D01*
X11463039Y-15837888D02*
X11453515Y-15799793D01*
X11453515Y-15799793D02*
X11453515Y-15752174D01*
X11453515Y-15752174D02*
X11463039Y-15714079D01*
X11463039Y-15714079D02*
X11472563Y-15695031D01*
X11472563Y-15695031D02*
X11482086Y-15685508D01*
X11482086Y-15685508D02*
X11501134Y-15675984D01*
X11653515Y-15856936D02*
X11663039Y-15866460D01*
X11663039Y-15866460D02*
X11653515Y-15875984D01*
X11653515Y-15875984D02*
X11643991Y-15866460D01*
X11643991Y-15866460D02*
X11653515Y-15856936D01*
X11653515Y-15856936D02*
X11653515Y-15875984D01*
X11786848Y-15675984D02*
X11805896Y-15675984D01*
X11805896Y-15675984D02*
X11824944Y-15685508D01*
X11824944Y-15685508D02*
X11834467Y-15695031D01*
X11834467Y-15695031D02*
X11843991Y-15714079D01*
X11843991Y-15714079D02*
X11853515Y-15752174D01*
X11853515Y-15752174D02*
X11853515Y-15799793D01*
X11853515Y-15799793D02*
X11843991Y-15837888D01*
X11843991Y-15837888D02*
X11834467Y-15856936D01*
X11834467Y-15856936D02*
X11824944Y-15866460D01*
X11824944Y-15866460D02*
X11805896Y-15875984D01*
X11805896Y-15875984D02*
X11786848Y-15875984D01*
X11786848Y-15875984D02*
X11767801Y-15866460D01*
X11767801Y-15866460D02*
X11758277Y-15856936D01*
X11758277Y-15856936D02*
X11748753Y-15837888D01*
X11748753Y-15837888D02*
X11739229Y-15799793D01*
X11739229Y-15799793D02*
X11739229Y-15752174D01*
X11739229Y-15752174D02*
X11748753Y-15714079D01*
X11748753Y-15714079D02*
X11758277Y-15695031D01*
X11758277Y-15695031D02*
X11767801Y-15685508D01*
X11767801Y-15685508D02*
X11786848Y-15675984D01*
X12043991Y-15875984D02*
X11929706Y-15875984D01*
X11986848Y-15875984D02*
X11986848Y-15675984D01*
X11986848Y-15675984D02*
X11967801Y-15704555D01*
X11967801Y-15704555D02*
X11948753Y-15723603D01*
X11948753Y-15723603D02*
X11929706Y-15733127D01*
X12139229Y-15875984D02*
X12177325Y-15875984D01*
X12177325Y-15875984D02*
X12196372Y-15866460D01*
X12196372Y-15866460D02*
X12205896Y-15856936D01*
X12205896Y-15856936D02*
X12224944Y-15828365D01*
X12224944Y-15828365D02*
X12234467Y-15790269D01*
X12234467Y-15790269D02*
X12234467Y-15714079D01*
X12234467Y-15714079D02*
X12224944Y-15695031D01*
X12224944Y-15695031D02*
X12215420Y-15685508D01*
X12215420Y-15685508D02*
X12196372Y-15675984D01*
X12196372Y-15675984D02*
X12158277Y-15675984D01*
X12158277Y-15675984D02*
X12139229Y-15685508D01*
X12139229Y-15685508D02*
X12129706Y-15695031D01*
X12129706Y-15695031D02*
X12120182Y-15714079D01*
X12120182Y-15714079D02*
X12120182Y-15761698D01*
X12120182Y-15761698D02*
X12129706Y-15780746D01*
X12129706Y-15780746D02*
X12139229Y-15790269D01*
X12139229Y-15790269D02*
X12158277Y-15799793D01*
X12158277Y-15799793D02*
X12196372Y-15799793D01*
X12196372Y-15799793D02*
X12215420Y-15790269D01*
X12215420Y-15790269D02*
X12224944Y-15780746D01*
X12224944Y-15780746D02*
X12234467Y-15761698D01*
X12301134Y-15675984D02*
X12434467Y-15675984D01*
X12434467Y-15675984D02*
X12348753Y-15875984D01*
X12501134Y-15675984D02*
X12501134Y-15714079D01*
X12577325Y-15675984D02*
X12577325Y-15714079D01*
X12872563Y-15952174D02*
X12863039Y-15942650D01*
X12863039Y-15942650D02*
X12843991Y-15914079D01*
X12843991Y-15914079D02*
X12834468Y-15895031D01*
X12834468Y-15895031D02*
X12824944Y-15866460D01*
X12824944Y-15866460D02*
X12815420Y-15818841D01*
X12815420Y-15818841D02*
X12815420Y-15780746D01*
X12815420Y-15780746D02*
X12824944Y-15733127D01*
X12824944Y-15733127D02*
X12834468Y-15704555D01*
X12834468Y-15704555D02*
X12843991Y-15685508D01*
X12843991Y-15685508D02*
X12863039Y-15656936D01*
X12863039Y-15656936D02*
X12872563Y-15647412D01*
X12939229Y-15695031D02*
X12948753Y-15685508D01*
X12948753Y-15685508D02*
X12967801Y-15675984D01*
X12967801Y-15675984D02*
X13015420Y-15675984D01*
X13015420Y-15675984D02*
X13034468Y-15685508D01*
X13034468Y-15685508D02*
X13043991Y-15695031D01*
X13043991Y-15695031D02*
X13053515Y-15714079D01*
X13053515Y-15714079D02*
X13053515Y-15733127D01*
X13053515Y-15733127D02*
X13043991Y-15761698D01*
X13043991Y-15761698D02*
X12929706Y-15875984D01*
X12929706Y-15875984D02*
X13053515Y-15875984D01*
X13291610Y-15875984D02*
X13291610Y-15675984D01*
X13377325Y-15875984D02*
X13377325Y-15771222D01*
X13377325Y-15771222D02*
X13367801Y-15752174D01*
X13367801Y-15752174D02*
X13348753Y-15742650D01*
X13348753Y-15742650D02*
X13320182Y-15742650D01*
X13320182Y-15742650D02*
X13301134Y-15752174D01*
X13301134Y-15752174D02*
X13291610Y-15761698D01*
X13501134Y-15875984D02*
X13482087Y-15866460D01*
X13482087Y-15866460D02*
X13472563Y-15856936D01*
X13472563Y-15856936D02*
X13463039Y-15837888D01*
X13463039Y-15837888D02*
X13463039Y-15780746D01*
X13463039Y-15780746D02*
X13472563Y-15761698D01*
X13472563Y-15761698D02*
X13482087Y-15752174D01*
X13482087Y-15752174D02*
X13501134Y-15742650D01*
X13501134Y-15742650D02*
X13529706Y-15742650D01*
X13529706Y-15742650D02*
X13548753Y-15752174D01*
X13548753Y-15752174D02*
X13558277Y-15761698D01*
X13558277Y-15761698D02*
X13567801Y-15780746D01*
X13567801Y-15780746D02*
X13567801Y-15837888D01*
X13567801Y-15837888D02*
X13558277Y-15856936D01*
X13558277Y-15856936D02*
X13548753Y-15866460D01*
X13548753Y-15866460D02*
X13529706Y-15875984D01*
X13529706Y-15875984D02*
X13501134Y-15875984D01*
X13682087Y-15875984D02*
X13663039Y-15866460D01*
X13663039Y-15866460D02*
X13653515Y-15847412D01*
X13653515Y-15847412D02*
X13653515Y-15675984D01*
X13834468Y-15866460D02*
X13815420Y-15875984D01*
X13815420Y-15875984D02*
X13777325Y-15875984D01*
X13777325Y-15875984D02*
X13758277Y-15866460D01*
X13758277Y-15866460D02*
X13748753Y-15847412D01*
X13748753Y-15847412D02*
X13748753Y-15771222D01*
X13748753Y-15771222D02*
X13758277Y-15752174D01*
X13758277Y-15752174D02*
X13777325Y-15742650D01*
X13777325Y-15742650D02*
X13815420Y-15742650D01*
X13815420Y-15742650D02*
X13834468Y-15752174D01*
X13834468Y-15752174D02*
X13843991Y-15771222D01*
X13843991Y-15771222D02*
X13843991Y-15790269D01*
X13843991Y-15790269D02*
X13748753Y-15809317D01*
X13920182Y-15866460D02*
X13939230Y-15875984D01*
X13939230Y-15875984D02*
X13977325Y-15875984D01*
X13977325Y-15875984D02*
X13996372Y-15866460D01*
X13996372Y-15866460D02*
X14005896Y-15847412D01*
X14005896Y-15847412D02*
X14005896Y-15837888D01*
X14005896Y-15837888D02*
X13996372Y-15818841D01*
X13996372Y-15818841D02*
X13977325Y-15809317D01*
X13977325Y-15809317D02*
X13948753Y-15809317D01*
X13948753Y-15809317D02*
X13929706Y-15799793D01*
X13929706Y-15799793D02*
X13920182Y-15780746D01*
X13920182Y-15780746D02*
X13920182Y-15771222D01*
X13920182Y-15771222D02*
X13929706Y-15752174D01*
X13929706Y-15752174D02*
X13948753Y-15742650D01*
X13948753Y-15742650D02*
X13977325Y-15742650D01*
X13977325Y-15742650D02*
X13996372Y-15752174D01*
X14072563Y-15952174D02*
X14082087Y-15942650D01*
X14082087Y-15942650D02*
X14101134Y-15914079D01*
X14101134Y-15914079D02*
X14110658Y-15895031D01*
X14110658Y-15895031D02*
X14120182Y-15866460D01*
X14120182Y-15866460D02*
X14129706Y-15818841D01*
X14129706Y-15818841D02*
X14129706Y-15780746D01*
X14129706Y-15780746D02*
X14120182Y-15733127D01*
X14120182Y-15733127D02*
X14110658Y-15704555D01*
X14110658Y-15704555D02*
X14101134Y-15685508D01*
X14101134Y-15685508D02*
X14082087Y-15656936D01*
X14082087Y-15656936D02*
X14072563Y-15647412D01*
D12*
X9260000Y-16086000D02*
X9297500Y-16048500D01*
X9260000Y-16011000D01*
X9222500Y-16048500D01*
X9260000Y-16086000D01*
D11*
X9596372Y-15939984D02*
X9615420Y-15939984D01*
X9615420Y-15939984D02*
X9634467Y-15949508D01*
X9634467Y-15949508D02*
X9643991Y-15959031D01*
X9643991Y-15959031D02*
X9653515Y-15978079D01*
X9653515Y-15978079D02*
X9663039Y-16016174D01*
X9663039Y-16016174D02*
X9663039Y-16063793D01*
X9663039Y-16063793D02*
X9653515Y-16101888D01*
X9653515Y-16101888D02*
X9643991Y-16120936D01*
X9643991Y-16120936D02*
X9634467Y-16130460D01*
X9634467Y-16130460D02*
X9615420Y-16139984D01*
X9615420Y-16139984D02*
X9596372Y-16139984D01*
X9596372Y-16139984D02*
X9577324Y-16130460D01*
X9577324Y-16130460D02*
X9567801Y-16120936D01*
X9567801Y-16120936D02*
X9558277Y-16101888D01*
X9558277Y-16101888D02*
X9548753Y-16063793D01*
X9548753Y-16063793D02*
X9548753Y-16016174D01*
X9548753Y-16016174D02*
X9558277Y-15978079D01*
X9558277Y-15978079D02*
X9567801Y-15959031D01*
X9567801Y-15959031D02*
X9577324Y-15949508D01*
X9577324Y-15949508D02*
X9596372Y-15939984D01*
X9748753Y-16120936D02*
X9758277Y-16130460D01*
X9758277Y-16130460D02*
X9748753Y-16139984D01*
X9748753Y-16139984D02*
X9739229Y-16130460D01*
X9739229Y-16130460D02*
X9748753Y-16120936D01*
X9748753Y-16120936D02*
X9748753Y-16139984D01*
X9824944Y-15939984D02*
X9958277Y-15939984D01*
X9958277Y-15939984D02*
X9872563Y-16139984D01*
X10129705Y-15939984D02*
X10034467Y-15939984D01*
X10034467Y-15939984D02*
X10024944Y-16035222D01*
X10024944Y-16035222D02*
X10034467Y-16025698D01*
X10034467Y-16025698D02*
X10053515Y-16016174D01*
X10053515Y-16016174D02*
X10101134Y-16016174D01*
X10101134Y-16016174D02*
X10120182Y-16025698D01*
X10120182Y-16025698D02*
X10129705Y-16035222D01*
X10129705Y-16035222D02*
X10139229Y-16054269D01*
X10139229Y-16054269D02*
X10139229Y-16101888D01*
X10139229Y-16101888D02*
X10129705Y-16120936D01*
X10129705Y-16120936D02*
X10120182Y-16130460D01*
X10120182Y-16130460D02*
X10101134Y-16139984D01*
X10101134Y-16139984D02*
X10053515Y-16139984D01*
X10053515Y-16139984D02*
X10034467Y-16130460D01*
X10034467Y-16130460D02*
X10024944Y-16120936D01*
X10263039Y-15939984D02*
X10282086Y-15939984D01*
X10282086Y-15939984D02*
X10301134Y-15949508D01*
X10301134Y-15949508D02*
X10310658Y-15959031D01*
X10310658Y-15959031D02*
X10320182Y-15978079D01*
X10320182Y-15978079D02*
X10329705Y-16016174D01*
X10329705Y-16016174D02*
X10329705Y-16063793D01*
X10329705Y-16063793D02*
X10320182Y-16101888D01*
X10320182Y-16101888D02*
X10310658Y-16120936D01*
X10310658Y-16120936D02*
X10301134Y-16130460D01*
X10301134Y-16130460D02*
X10282086Y-16139984D01*
X10282086Y-16139984D02*
X10263039Y-16139984D01*
X10263039Y-16139984D02*
X10243991Y-16130460D01*
X10243991Y-16130460D02*
X10234467Y-16120936D01*
X10234467Y-16120936D02*
X10224944Y-16101888D01*
X10224944Y-16101888D02*
X10215420Y-16063793D01*
X10215420Y-16063793D02*
X10215420Y-16016174D01*
X10215420Y-16016174D02*
X10224944Y-15978079D01*
X10224944Y-15978079D02*
X10234467Y-15959031D01*
X10234467Y-15959031D02*
X10243991Y-15949508D01*
X10243991Y-15949508D02*
X10263039Y-15939984D01*
X10415420Y-16139984D02*
X10415420Y-16006650D01*
X10415420Y-16025698D02*
X10424944Y-16016174D01*
X10424944Y-16016174D02*
X10443991Y-16006650D01*
X10443991Y-16006650D02*
X10472563Y-16006650D01*
X10472563Y-16006650D02*
X10491610Y-16016174D01*
X10491610Y-16016174D02*
X10501134Y-16035222D01*
X10501134Y-16035222D02*
X10501134Y-16139984D01*
X10501134Y-16035222D02*
X10510658Y-16016174D01*
X10510658Y-16016174D02*
X10529705Y-16006650D01*
X10529705Y-16006650D02*
X10558277Y-16006650D01*
X10558277Y-16006650D02*
X10577325Y-16016174D01*
X10577325Y-16016174D02*
X10586848Y-16035222D01*
X10586848Y-16035222D02*
X10586848Y-16139984D01*
X10682086Y-16139984D02*
X10682086Y-16006650D01*
X10682086Y-16025698D02*
X10691610Y-16016174D01*
X10691610Y-16016174D02*
X10710658Y-16006650D01*
X10710658Y-16006650D02*
X10739229Y-16006650D01*
X10739229Y-16006650D02*
X10758277Y-16016174D01*
X10758277Y-16016174D02*
X10767801Y-16035222D01*
X10767801Y-16035222D02*
X10767801Y-16139984D01*
X10767801Y-16035222D02*
X10777325Y-16016174D01*
X10777325Y-16016174D02*
X10796372Y-16006650D01*
X10796372Y-16006650D02*
X10824944Y-16006650D01*
X10824944Y-16006650D02*
X10843991Y-16016174D01*
X10843991Y-16016174D02*
X10853515Y-16035222D01*
X10853515Y-16035222D02*
X10853515Y-16139984D01*
X11243991Y-15930460D02*
X11072563Y-16187603D01*
X11501134Y-15939984D02*
X11520182Y-15939984D01*
X11520182Y-15939984D02*
X11539229Y-15949508D01*
X11539229Y-15949508D02*
X11548753Y-15959031D01*
X11548753Y-15959031D02*
X11558277Y-15978079D01*
X11558277Y-15978079D02*
X11567801Y-16016174D01*
X11567801Y-16016174D02*
X11567801Y-16063793D01*
X11567801Y-16063793D02*
X11558277Y-16101888D01*
X11558277Y-16101888D02*
X11548753Y-16120936D01*
X11548753Y-16120936D02*
X11539229Y-16130460D01*
X11539229Y-16130460D02*
X11520182Y-16139984D01*
X11520182Y-16139984D02*
X11501134Y-16139984D01*
X11501134Y-16139984D02*
X11482086Y-16130460D01*
X11482086Y-16130460D02*
X11472563Y-16120936D01*
X11472563Y-16120936D02*
X11463039Y-16101888D01*
X11463039Y-16101888D02*
X11453515Y-16063793D01*
X11453515Y-16063793D02*
X11453515Y-16016174D01*
X11453515Y-16016174D02*
X11463039Y-15978079D01*
X11463039Y-15978079D02*
X11472563Y-15959031D01*
X11472563Y-15959031D02*
X11482086Y-15949508D01*
X11482086Y-15949508D02*
X11501134Y-15939984D01*
X11653515Y-16120936D02*
X11663039Y-16130460D01*
X11663039Y-16130460D02*
X11653515Y-16139984D01*
X11653515Y-16139984D02*
X11643991Y-16130460D01*
X11643991Y-16130460D02*
X11653515Y-16120936D01*
X11653515Y-16120936D02*
X11653515Y-16139984D01*
X11786848Y-15939984D02*
X11805896Y-15939984D01*
X11805896Y-15939984D02*
X11824944Y-15949508D01*
X11824944Y-15949508D02*
X11834467Y-15959031D01*
X11834467Y-15959031D02*
X11843991Y-15978079D01*
X11843991Y-15978079D02*
X11853515Y-16016174D01*
X11853515Y-16016174D02*
X11853515Y-16063793D01*
X11853515Y-16063793D02*
X11843991Y-16101888D01*
X11843991Y-16101888D02*
X11834467Y-16120936D01*
X11834467Y-16120936D02*
X11824944Y-16130460D01*
X11824944Y-16130460D02*
X11805896Y-16139984D01*
X11805896Y-16139984D02*
X11786848Y-16139984D01*
X11786848Y-16139984D02*
X11767801Y-16130460D01*
X11767801Y-16130460D02*
X11758277Y-16120936D01*
X11758277Y-16120936D02*
X11748753Y-16101888D01*
X11748753Y-16101888D02*
X11739229Y-16063793D01*
X11739229Y-16063793D02*
X11739229Y-16016174D01*
X11739229Y-16016174D02*
X11748753Y-15978079D01*
X11748753Y-15978079D02*
X11758277Y-15959031D01*
X11758277Y-15959031D02*
X11767801Y-15949508D01*
X11767801Y-15949508D02*
X11786848Y-15939984D01*
X11929706Y-15959031D02*
X11939229Y-15949508D01*
X11939229Y-15949508D02*
X11958277Y-15939984D01*
X11958277Y-15939984D02*
X12005896Y-15939984D01*
X12005896Y-15939984D02*
X12024944Y-15949508D01*
X12024944Y-15949508D02*
X12034467Y-15959031D01*
X12034467Y-15959031D02*
X12043991Y-15978079D01*
X12043991Y-15978079D02*
X12043991Y-15997127D01*
X12043991Y-15997127D02*
X12034467Y-16025698D01*
X12034467Y-16025698D02*
X11920182Y-16139984D01*
X11920182Y-16139984D02*
X12043991Y-16139984D01*
X12139229Y-16139984D02*
X12177325Y-16139984D01*
X12177325Y-16139984D02*
X12196372Y-16130460D01*
X12196372Y-16130460D02*
X12205896Y-16120936D01*
X12205896Y-16120936D02*
X12224944Y-16092365D01*
X12224944Y-16092365D02*
X12234467Y-16054269D01*
X12234467Y-16054269D02*
X12234467Y-15978079D01*
X12234467Y-15978079D02*
X12224944Y-15959031D01*
X12224944Y-15959031D02*
X12215420Y-15949508D01*
X12215420Y-15949508D02*
X12196372Y-15939984D01*
X12196372Y-15939984D02*
X12158277Y-15939984D01*
X12158277Y-15939984D02*
X12139229Y-15949508D01*
X12139229Y-15949508D02*
X12129706Y-15959031D01*
X12129706Y-15959031D02*
X12120182Y-15978079D01*
X12120182Y-15978079D02*
X12120182Y-16025698D01*
X12120182Y-16025698D02*
X12129706Y-16044746D01*
X12129706Y-16044746D02*
X12139229Y-16054269D01*
X12139229Y-16054269D02*
X12158277Y-16063793D01*
X12158277Y-16063793D02*
X12196372Y-16063793D01*
X12196372Y-16063793D02*
X12215420Y-16054269D01*
X12215420Y-16054269D02*
X12224944Y-16044746D01*
X12224944Y-16044746D02*
X12234467Y-16025698D01*
X12415420Y-15939984D02*
X12320182Y-15939984D01*
X12320182Y-15939984D02*
X12310658Y-16035222D01*
X12310658Y-16035222D02*
X12320182Y-16025698D01*
X12320182Y-16025698D02*
X12339229Y-16016174D01*
X12339229Y-16016174D02*
X12386848Y-16016174D01*
X12386848Y-16016174D02*
X12405896Y-16025698D01*
X12405896Y-16025698D02*
X12415420Y-16035222D01*
X12415420Y-16035222D02*
X12424944Y-16054269D01*
X12424944Y-16054269D02*
X12424944Y-16101888D01*
X12424944Y-16101888D02*
X12415420Y-16120936D01*
X12415420Y-16120936D02*
X12405896Y-16130460D01*
X12405896Y-16130460D02*
X12386848Y-16139984D01*
X12386848Y-16139984D02*
X12339229Y-16139984D01*
X12339229Y-16139984D02*
X12320182Y-16130460D01*
X12320182Y-16130460D02*
X12310658Y-16120936D01*
X12501134Y-15939984D02*
X12501134Y-15978079D01*
X12577325Y-15939984D02*
X12577325Y-15978079D01*
X12872563Y-16216174D02*
X12863039Y-16206650D01*
X12863039Y-16206650D02*
X12843991Y-16178079D01*
X12843991Y-16178079D02*
X12834468Y-16159031D01*
X12834468Y-16159031D02*
X12824944Y-16130460D01*
X12824944Y-16130460D02*
X12815420Y-16082841D01*
X12815420Y-16082841D02*
X12815420Y-16044746D01*
X12815420Y-16044746D02*
X12824944Y-15997127D01*
X12824944Y-15997127D02*
X12834468Y-15968555D01*
X12834468Y-15968555D02*
X12843991Y-15949508D01*
X12843991Y-15949508D02*
X12863039Y-15920936D01*
X12863039Y-15920936D02*
X12872563Y-15911412D01*
X12939229Y-15959031D02*
X12948753Y-15949508D01*
X12948753Y-15949508D02*
X12967801Y-15939984D01*
X12967801Y-15939984D02*
X13015420Y-15939984D01*
X13015420Y-15939984D02*
X13034468Y-15949508D01*
X13034468Y-15949508D02*
X13043991Y-15959031D01*
X13043991Y-15959031D02*
X13053515Y-15978079D01*
X13053515Y-15978079D02*
X13053515Y-15997127D01*
X13053515Y-15997127D02*
X13043991Y-16025698D01*
X13043991Y-16025698D02*
X12929706Y-16139984D01*
X12929706Y-16139984D02*
X13053515Y-16139984D01*
X13291610Y-16139984D02*
X13291610Y-15939984D01*
X13377325Y-16139984D02*
X13377325Y-16035222D01*
X13377325Y-16035222D02*
X13367801Y-16016174D01*
X13367801Y-16016174D02*
X13348753Y-16006650D01*
X13348753Y-16006650D02*
X13320182Y-16006650D01*
X13320182Y-16006650D02*
X13301134Y-16016174D01*
X13301134Y-16016174D02*
X13291610Y-16025698D01*
X13501134Y-16139984D02*
X13482087Y-16130460D01*
X13482087Y-16130460D02*
X13472563Y-16120936D01*
X13472563Y-16120936D02*
X13463039Y-16101888D01*
X13463039Y-16101888D02*
X13463039Y-16044746D01*
X13463039Y-16044746D02*
X13472563Y-16025698D01*
X13472563Y-16025698D02*
X13482087Y-16016174D01*
X13482087Y-16016174D02*
X13501134Y-16006650D01*
X13501134Y-16006650D02*
X13529706Y-16006650D01*
X13529706Y-16006650D02*
X13548753Y-16016174D01*
X13548753Y-16016174D02*
X13558277Y-16025698D01*
X13558277Y-16025698D02*
X13567801Y-16044746D01*
X13567801Y-16044746D02*
X13567801Y-16101888D01*
X13567801Y-16101888D02*
X13558277Y-16120936D01*
X13558277Y-16120936D02*
X13548753Y-16130460D01*
X13548753Y-16130460D02*
X13529706Y-16139984D01*
X13529706Y-16139984D02*
X13501134Y-16139984D01*
X13682087Y-16139984D02*
X13663039Y-16130460D01*
X13663039Y-16130460D02*
X13653515Y-16111412D01*
X13653515Y-16111412D02*
X13653515Y-15939984D01*
X13834468Y-16130460D02*
X13815420Y-16139984D01*
X13815420Y-16139984D02*
X13777325Y-16139984D01*
X13777325Y-16139984D02*
X13758277Y-16130460D01*
X13758277Y-16130460D02*
X13748753Y-16111412D01*
X13748753Y-16111412D02*
X13748753Y-16035222D01*
X13748753Y-16035222D02*
X13758277Y-16016174D01*
X13758277Y-16016174D02*
X13777325Y-16006650D01*
X13777325Y-16006650D02*
X13815420Y-16006650D01*
X13815420Y-16006650D02*
X13834468Y-16016174D01*
X13834468Y-16016174D02*
X13843991Y-16035222D01*
X13843991Y-16035222D02*
X13843991Y-16054269D01*
X13843991Y-16054269D02*
X13748753Y-16073317D01*
X13920182Y-16130460D02*
X13939230Y-16139984D01*
X13939230Y-16139984D02*
X13977325Y-16139984D01*
X13977325Y-16139984D02*
X13996372Y-16130460D01*
X13996372Y-16130460D02*
X14005896Y-16111412D01*
X14005896Y-16111412D02*
X14005896Y-16101888D01*
X14005896Y-16101888D02*
X13996372Y-16082841D01*
X13996372Y-16082841D02*
X13977325Y-16073317D01*
X13977325Y-16073317D02*
X13948753Y-16073317D01*
X13948753Y-16073317D02*
X13929706Y-16063793D01*
X13929706Y-16063793D02*
X13920182Y-16044746D01*
X13920182Y-16044746D02*
X13920182Y-16035222D01*
X13920182Y-16035222D02*
X13929706Y-16016174D01*
X13929706Y-16016174D02*
X13948753Y-16006650D01*
X13948753Y-16006650D02*
X13977325Y-16006650D01*
X13977325Y-16006650D02*
X13996372Y-16016174D01*
X14072563Y-16216174D02*
X14082087Y-16206650D01*
X14082087Y-16206650D02*
X14101134Y-16178079D01*
X14101134Y-16178079D02*
X14110658Y-16159031D01*
X14110658Y-16159031D02*
X14120182Y-16130460D01*
X14120182Y-16130460D02*
X14129706Y-16082841D01*
X14129706Y-16082841D02*
X14129706Y-16044746D01*
X14129706Y-16044746D02*
X14120182Y-15997127D01*
X14120182Y-15997127D02*
X14110658Y-15968555D01*
X14110658Y-15968555D02*
X14101134Y-15949508D01*
X14101134Y-15949508D02*
X14082087Y-15920936D01*
X14082087Y-15920936D02*
X14072563Y-15911412D01*
D12*
X9197500Y-16262500D02*
X9297500Y-16362500D01*
X9297500Y-16262500D02*
X9197500Y-16362500D01*
X9297500Y-16312500D02*
G75*
G02*
X9197500Y-16312500I-50000J0D01*
G01*
X9197500Y-16312500D02*
G75*
G02*
X9297500Y-16312500I50000J0D01*
G01*
D11*
X9663039Y-16403984D02*
X9548753Y-16403984D01*
X9605896Y-16403984D02*
X9605896Y-16203984D01*
X9605896Y-16203984D02*
X9586848Y-16232555D01*
X9586848Y-16232555D02*
X9567801Y-16251603D01*
X9567801Y-16251603D02*
X9548753Y-16261127D01*
X9748753Y-16384936D02*
X9758277Y-16394460D01*
X9758277Y-16394460D02*
X9748753Y-16403984D01*
X9748753Y-16403984D02*
X9739229Y-16394460D01*
X9739229Y-16394460D02*
X9748753Y-16384936D01*
X9748753Y-16384936D02*
X9748753Y-16403984D01*
X9882086Y-16203984D02*
X9901134Y-16203984D01*
X9901134Y-16203984D02*
X9920182Y-16213508D01*
X9920182Y-16213508D02*
X9929705Y-16223031D01*
X9929705Y-16223031D02*
X9939229Y-16242079D01*
X9939229Y-16242079D02*
X9948753Y-16280174D01*
X9948753Y-16280174D02*
X9948753Y-16327793D01*
X9948753Y-16327793D02*
X9939229Y-16365888D01*
X9939229Y-16365888D02*
X9929705Y-16384936D01*
X9929705Y-16384936D02*
X9920182Y-16394460D01*
X9920182Y-16394460D02*
X9901134Y-16403984D01*
X9901134Y-16403984D02*
X9882086Y-16403984D01*
X9882086Y-16403984D02*
X9863039Y-16394460D01*
X9863039Y-16394460D02*
X9853515Y-16384936D01*
X9853515Y-16384936D02*
X9843991Y-16365888D01*
X9843991Y-16365888D02*
X9834467Y-16327793D01*
X9834467Y-16327793D02*
X9834467Y-16280174D01*
X9834467Y-16280174D02*
X9843991Y-16242079D01*
X9843991Y-16242079D02*
X9853515Y-16223031D01*
X9853515Y-16223031D02*
X9863039Y-16213508D01*
X9863039Y-16213508D02*
X9882086Y-16203984D01*
X10072563Y-16203984D02*
X10091610Y-16203984D01*
X10091610Y-16203984D02*
X10110658Y-16213508D01*
X10110658Y-16213508D02*
X10120182Y-16223031D01*
X10120182Y-16223031D02*
X10129705Y-16242079D01*
X10129705Y-16242079D02*
X10139229Y-16280174D01*
X10139229Y-16280174D02*
X10139229Y-16327793D01*
X10139229Y-16327793D02*
X10129705Y-16365888D01*
X10129705Y-16365888D02*
X10120182Y-16384936D01*
X10120182Y-16384936D02*
X10110658Y-16394460D01*
X10110658Y-16394460D02*
X10091610Y-16403984D01*
X10091610Y-16403984D02*
X10072563Y-16403984D01*
X10072563Y-16403984D02*
X10053515Y-16394460D01*
X10053515Y-16394460D02*
X10043991Y-16384936D01*
X10043991Y-16384936D02*
X10034467Y-16365888D01*
X10034467Y-16365888D02*
X10024944Y-16327793D01*
X10024944Y-16327793D02*
X10024944Y-16280174D01*
X10024944Y-16280174D02*
X10034467Y-16242079D01*
X10034467Y-16242079D02*
X10043991Y-16223031D01*
X10043991Y-16223031D02*
X10053515Y-16213508D01*
X10053515Y-16213508D02*
X10072563Y-16203984D01*
X10263039Y-16203984D02*
X10282086Y-16203984D01*
X10282086Y-16203984D02*
X10301134Y-16213508D01*
X10301134Y-16213508D02*
X10310658Y-16223031D01*
X10310658Y-16223031D02*
X10320182Y-16242079D01*
X10320182Y-16242079D02*
X10329705Y-16280174D01*
X10329705Y-16280174D02*
X10329705Y-16327793D01*
X10329705Y-16327793D02*
X10320182Y-16365888D01*
X10320182Y-16365888D02*
X10310658Y-16384936D01*
X10310658Y-16384936D02*
X10301134Y-16394460D01*
X10301134Y-16394460D02*
X10282086Y-16403984D01*
X10282086Y-16403984D02*
X10263039Y-16403984D01*
X10263039Y-16403984D02*
X10243991Y-16394460D01*
X10243991Y-16394460D02*
X10234467Y-16384936D01*
X10234467Y-16384936D02*
X10224944Y-16365888D01*
X10224944Y-16365888D02*
X10215420Y-16327793D01*
X10215420Y-16327793D02*
X10215420Y-16280174D01*
X10215420Y-16280174D02*
X10224944Y-16242079D01*
X10224944Y-16242079D02*
X10234467Y-16223031D01*
X10234467Y-16223031D02*
X10243991Y-16213508D01*
X10243991Y-16213508D02*
X10263039Y-16203984D01*
X10415420Y-16403984D02*
X10415420Y-16270650D01*
X10415420Y-16289698D02*
X10424944Y-16280174D01*
X10424944Y-16280174D02*
X10443991Y-16270650D01*
X10443991Y-16270650D02*
X10472563Y-16270650D01*
X10472563Y-16270650D02*
X10491610Y-16280174D01*
X10491610Y-16280174D02*
X10501134Y-16299222D01*
X10501134Y-16299222D02*
X10501134Y-16403984D01*
X10501134Y-16299222D02*
X10510658Y-16280174D01*
X10510658Y-16280174D02*
X10529705Y-16270650D01*
X10529705Y-16270650D02*
X10558277Y-16270650D01*
X10558277Y-16270650D02*
X10577325Y-16280174D01*
X10577325Y-16280174D02*
X10586848Y-16299222D01*
X10586848Y-16299222D02*
X10586848Y-16403984D01*
X10682086Y-16403984D02*
X10682086Y-16270650D01*
X10682086Y-16289698D02*
X10691610Y-16280174D01*
X10691610Y-16280174D02*
X10710658Y-16270650D01*
X10710658Y-16270650D02*
X10739229Y-16270650D01*
X10739229Y-16270650D02*
X10758277Y-16280174D01*
X10758277Y-16280174D02*
X10767801Y-16299222D01*
X10767801Y-16299222D02*
X10767801Y-16403984D01*
X10767801Y-16299222D02*
X10777325Y-16280174D01*
X10777325Y-16280174D02*
X10796372Y-16270650D01*
X10796372Y-16270650D02*
X10824944Y-16270650D01*
X10824944Y-16270650D02*
X10843991Y-16280174D01*
X10843991Y-16280174D02*
X10853515Y-16299222D01*
X10853515Y-16299222D02*
X10853515Y-16403984D01*
X11243991Y-16194460D02*
X11072563Y-16451603D01*
X11501134Y-16203984D02*
X11520182Y-16203984D01*
X11520182Y-16203984D02*
X11539229Y-16213508D01*
X11539229Y-16213508D02*
X11548753Y-16223031D01*
X11548753Y-16223031D02*
X11558277Y-16242079D01*
X11558277Y-16242079D02*
X11567801Y-16280174D01*
X11567801Y-16280174D02*
X11567801Y-16327793D01*
X11567801Y-16327793D02*
X11558277Y-16365888D01*
X11558277Y-16365888D02*
X11548753Y-16384936D01*
X11548753Y-16384936D02*
X11539229Y-16394460D01*
X11539229Y-16394460D02*
X11520182Y-16403984D01*
X11520182Y-16403984D02*
X11501134Y-16403984D01*
X11501134Y-16403984D02*
X11482086Y-16394460D01*
X11482086Y-16394460D02*
X11472563Y-16384936D01*
X11472563Y-16384936D02*
X11463039Y-16365888D01*
X11463039Y-16365888D02*
X11453515Y-16327793D01*
X11453515Y-16327793D02*
X11453515Y-16280174D01*
X11453515Y-16280174D02*
X11463039Y-16242079D01*
X11463039Y-16242079D02*
X11472563Y-16223031D01*
X11472563Y-16223031D02*
X11482086Y-16213508D01*
X11482086Y-16213508D02*
X11501134Y-16203984D01*
X11653515Y-16384936D02*
X11663039Y-16394460D01*
X11663039Y-16394460D02*
X11653515Y-16403984D01*
X11653515Y-16403984D02*
X11643991Y-16394460D01*
X11643991Y-16394460D02*
X11653515Y-16384936D01*
X11653515Y-16384936D02*
X11653515Y-16403984D01*
X11786848Y-16203984D02*
X11805896Y-16203984D01*
X11805896Y-16203984D02*
X11824944Y-16213508D01*
X11824944Y-16213508D02*
X11834467Y-16223031D01*
X11834467Y-16223031D02*
X11843991Y-16242079D01*
X11843991Y-16242079D02*
X11853515Y-16280174D01*
X11853515Y-16280174D02*
X11853515Y-16327793D01*
X11853515Y-16327793D02*
X11843991Y-16365888D01*
X11843991Y-16365888D02*
X11834467Y-16384936D01*
X11834467Y-16384936D02*
X11824944Y-16394460D01*
X11824944Y-16394460D02*
X11805896Y-16403984D01*
X11805896Y-16403984D02*
X11786848Y-16403984D01*
X11786848Y-16403984D02*
X11767801Y-16394460D01*
X11767801Y-16394460D02*
X11758277Y-16384936D01*
X11758277Y-16384936D02*
X11748753Y-16365888D01*
X11748753Y-16365888D02*
X11739229Y-16327793D01*
X11739229Y-16327793D02*
X11739229Y-16280174D01*
X11739229Y-16280174D02*
X11748753Y-16242079D01*
X11748753Y-16242079D02*
X11758277Y-16223031D01*
X11758277Y-16223031D02*
X11767801Y-16213508D01*
X11767801Y-16213508D02*
X11786848Y-16203984D01*
X11920182Y-16203984D02*
X12043991Y-16203984D01*
X12043991Y-16203984D02*
X11977325Y-16280174D01*
X11977325Y-16280174D02*
X12005896Y-16280174D01*
X12005896Y-16280174D02*
X12024944Y-16289698D01*
X12024944Y-16289698D02*
X12034467Y-16299222D01*
X12034467Y-16299222D02*
X12043991Y-16318269D01*
X12043991Y-16318269D02*
X12043991Y-16365888D01*
X12043991Y-16365888D02*
X12034467Y-16384936D01*
X12034467Y-16384936D02*
X12024944Y-16394460D01*
X12024944Y-16394460D02*
X12005896Y-16403984D01*
X12005896Y-16403984D02*
X11948753Y-16403984D01*
X11948753Y-16403984D02*
X11929706Y-16394460D01*
X11929706Y-16394460D02*
X11920182Y-16384936D01*
X12139229Y-16403984D02*
X12177325Y-16403984D01*
X12177325Y-16403984D02*
X12196372Y-16394460D01*
X12196372Y-16394460D02*
X12205896Y-16384936D01*
X12205896Y-16384936D02*
X12224944Y-16356365D01*
X12224944Y-16356365D02*
X12234467Y-16318269D01*
X12234467Y-16318269D02*
X12234467Y-16242079D01*
X12234467Y-16242079D02*
X12224944Y-16223031D01*
X12224944Y-16223031D02*
X12215420Y-16213508D01*
X12215420Y-16213508D02*
X12196372Y-16203984D01*
X12196372Y-16203984D02*
X12158277Y-16203984D01*
X12158277Y-16203984D02*
X12139229Y-16213508D01*
X12139229Y-16213508D02*
X12129706Y-16223031D01*
X12129706Y-16223031D02*
X12120182Y-16242079D01*
X12120182Y-16242079D02*
X12120182Y-16289698D01*
X12120182Y-16289698D02*
X12129706Y-16308746D01*
X12129706Y-16308746D02*
X12139229Y-16318269D01*
X12139229Y-16318269D02*
X12158277Y-16327793D01*
X12158277Y-16327793D02*
X12196372Y-16327793D01*
X12196372Y-16327793D02*
X12215420Y-16318269D01*
X12215420Y-16318269D02*
X12224944Y-16308746D01*
X12224944Y-16308746D02*
X12234467Y-16289698D01*
X12405896Y-16270650D02*
X12405896Y-16403984D01*
X12358277Y-16194460D02*
X12310658Y-16337317D01*
X12310658Y-16337317D02*
X12434467Y-16337317D01*
X12501134Y-16203984D02*
X12501134Y-16242079D01*
X12577325Y-16203984D02*
X12577325Y-16242079D01*
X12872563Y-16480174D02*
X12863039Y-16470650D01*
X12863039Y-16470650D02*
X12843991Y-16442079D01*
X12843991Y-16442079D02*
X12834468Y-16423031D01*
X12834468Y-16423031D02*
X12824944Y-16394460D01*
X12824944Y-16394460D02*
X12815420Y-16346841D01*
X12815420Y-16346841D02*
X12815420Y-16308746D01*
X12815420Y-16308746D02*
X12824944Y-16261127D01*
X12824944Y-16261127D02*
X12834468Y-16232555D01*
X12834468Y-16232555D02*
X12843991Y-16213508D01*
X12843991Y-16213508D02*
X12863039Y-16184936D01*
X12863039Y-16184936D02*
X12872563Y-16175412D01*
X12939229Y-16223031D02*
X12948753Y-16213508D01*
X12948753Y-16213508D02*
X12967801Y-16203984D01*
X12967801Y-16203984D02*
X13015420Y-16203984D01*
X13015420Y-16203984D02*
X13034468Y-16213508D01*
X13034468Y-16213508D02*
X13043991Y-16223031D01*
X13043991Y-16223031D02*
X13053515Y-16242079D01*
X13053515Y-16242079D02*
X13053515Y-16261127D01*
X13053515Y-16261127D02*
X13043991Y-16289698D01*
X13043991Y-16289698D02*
X12929706Y-16403984D01*
X12929706Y-16403984D02*
X13053515Y-16403984D01*
X13224944Y-16203984D02*
X13186848Y-16203984D01*
X13186848Y-16203984D02*
X13167801Y-16213508D01*
X13167801Y-16213508D02*
X13158277Y-16223031D01*
X13158277Y-16223031D02*
X13139229Y-16251603D01*
X13139229Y-16251603D02*
X13129706Y-16289698D01*
X13129706Y-16289698D02*
X13129706Y-16365888D01*
X13129706Y-16365888D02*
X13139229Y-16384936D01*
X13139229Y-16384936D02*
X13148753Y-16394460D01*
X13148753Y-16394460D02*
X13167801Y-16403984D01*
X13167801Y-16403984D02*
X13205896Y-16403984D01*
X13205896Y-16403984D02*
X13224944Y-16394460D01*
X13224944Y-16394460D02*
X13234468Y-16384936D01*
X13234468Y-16384936D02*
X13243991Y-16365888D01*
X13243991Y-16365888D02*
X13243991Y-16318269D01*
X13243991Y-16318269D02*
X13234468Y-16299222D01*
X13234468Y-16299222D02*
X13224944Y-16289698D01*
X13224944Y-16289698D02*
X13205896Y-16280174D01*
X13205896Y-16280174D02*
X13167801Y-16280174D01*
X13167801Y-16280174D02*
X13148753Y-16289698D01*
X13148753Y-16289698D02*
X13139229Y-16299222D01*
X13139229Y-16299222D02*
X13129706Y-16318269D01*
X13482087Y-16403984D02*
X13482087Y-16203984D01*
X13567801Y-16403984D02*
X13567801Y-16299222D01*
X13567801Y-16299222D02*
X13558277Y-16280174D01*
X13558277Y-16280174D02*
X13539230Y-16270650D01*
X13539230Y-16270650D02*
X13510658Y-16270650D01*
X13510658Y-16270650D02*
X13491610Y-16280174D01*
X13491610Y-16280174D02*
X13482087Y-16289698D01*
X13691610Y-16403984D02*
X13672563Y-16394460D01*
X13672563Y-16394460D02*
X13663039Y-16384936D01*
X13663039Y-16384936D02*
X13653515Y-16365888D01*
X13653515Y-16365888D02*
X13653515Y-16308746D01*
X13653515Y-16308746D02*
X13663039Y-16289698D01*
X13663039Y-16289698D02*
X13672563Y-16280174D01*
X13672563Y-16280174D02*
X13691610Y-16270650D01*
X13691610Y-16270650D02*
X13720182Y-16270650D01*
X13720182Y-16270650D02*
X13739230Y-16280174D01*
X13739230Y-16280174D02*
X13748753Y-16289698D01*
X13748753Y-16289698D02*
X13758277Y-16308746D01*
X13758277Y-16308746D02*
X13758277Y-16365888D01*
X13758277Y-16365888D02*
X13748753Y-16384936D01*
X13748753Y-16384936D02*
X13739230Y-16394460D01*
X13739230Y-16394460D02*
X13720182Y-16403984D01*
X13720182Y-16403984D02*
X13691610Y-16403984D01*
X13872563Y-16403984D02*
X13853515Y-16394460D01*
X13853515Y-16394460D02*
X13843991Y-16375412D01*
X13843991Y-16375412D02*
X13843991Y-16203984D01*
X14024944Y-16394460D02*
X14005896Y-16403984D01*
X14005896Y-16403984D02*
X13967801Y-16403984D01*
X13967801Y-16403984D02*
X13948753Y-16394460D01*
X13948753Y-16394460D02*
X13939230Y-16375412D01*
X13939230Y-16375412D02*
X13939230Y-16299222D01*
X13939230Y-16299222D02*
X13948753Y-16280174D01*
X13948753Y-16280174D02*
X13967801Y-16270650D01*
X13967801Y-16270650D02*
X14005896Y-16270650D01*
X14005896Y-16270650D02*
X14024944Y-16280174D01*
X14024944Y-16280174D02*
X14034468Y-16299222D01*
X14034468Y-16299222D02*
X14034468Y-16318269D01*
X14034468Y-16318269D02*
X13939230Y-16337317D01*
X14110658Y-16394460D02*
X14129706Y-16403984D01*
X14129706Y-16403984D02*
X14167801Y-16403984D01*
X14167801Y-16403984D02*
X14186849Y-16394460D01*
X14186849Y-16394460D02*
X14196372Y-16375412D01*
X14196372Y-16375412D02*
X14196372Y-16365888D01*
X14196372Y-16365888D02*
X14186849Y-16346841D01*
X14186849Y-16346841D02*
X14167801Y-16337317D01*
X14167801Y-16337317D02*
X14139230Y-16337317D01*
X14139230Y-16337317D02*
X14120182Y-16327793D01*
X14120182Y-16327793D02*
X14110658Y-16308746D01*
X14110658Y-16308746D02*
X14110658Y-16299222D01*
X14110658Y-16299222D02*
X14120182Y-16280174D01*
X14120182Y-16280174D02*
X14139230Y-16270650D01*
X14139230Y-16270650D02*
X14167801Y-16270650D01*
X14167801Y-16270650D02*
X14186849Y-16280174D01*
X14263039Y-16480174D02*
X14272563Y-16470650D01*
X14272563Y-16470650D02*
X14291611Y-16442079D01*
X14291611Y-16442079D02*
X14301134Y-16423031D01*
X14301134Y-16423031D02*
X14310658Y-16394460D01*
X14310658Y-16394460D02*
X14320182Y-16346841D01*
X14320182Y-16346841D02*
X14320182Y-16308746D01*
X14320182Y-16308746D02*
X14310658Y-16261127D01*
X14310658Y-16261127D02*
X14301134Y-16232555D01*
X14301134Y-16232555D02*
X14291611Y-16213508D01*
X14291611Y-16213508D02*
X14272563Y-16184936D01*
X14272563Y-16184936D02*
X14263039Y-16175412D01*
D12*
X9197500Y-16526500D02*
X9297500Y-16626500D01*
X9297500Y-16526500D02*
X9197500Y-16626500D01*
X9247500Y-16526500D02*
X9247500Y-16626500D01*
X9197500Y-16576500D02*
X9297500Y-16576500D01*
D11*
X9663039Y-16667984D02*
X9548753Y-16667984D01*
X9605896Y-16667984D02*
X9605896Y-16467984D01*
X9605896Y-16467984D02*
X9586848Y-16496555D01*
X9586848Y-16496555D02*
X9567801Y-16515603D01*
X9567801Y-16515603D02*
X9548753Y-16525127D01*
X9748753Y-16648936D02*
X9758277Y-16658460D01*
X9758277Y-16658460D02*
X9748753Y-16667984D01*
X9748753Y-16667984D02*
X9739229Y-16658460D01*
X9739229Y-16658460D02*
X9748753Y-16648936D01*
X9748753Y-16648936D02*
X9748753Y-16667984D01*
X9882086Y-16467984D02*
X9901134Y-16467984D01*
X9901134Y-16467984D02*
X9920182Y-16477508D01*
X9920182Y-16477508D02*
X9929705Y-16487031D01*
X9929705Y-16487031D02*
X9939229Y-16506079D01*
X9939229Y-16506079D02*
X9948753Y-16544174D01*
X9948753Y-16544174D02*
X9948753Y-16591793D01*
X9948753Y-16591793D02*
X9939229Y-16629888D01*
X9939229Y-16629888D02*
X9929705Y-16648936D01*
X9929705Y-16648936D02*
X9920182Y-16658460D01*
X9920182Y-16658460D02*
X9901134Y-16667984D01*
X9901134Y-16667984D02*
X9882086Y-16667984D01*
X9882086Y-16667984D02*
X9863039Y-16658460D01*
X9863039Y-16658460D02*
X9853515Y-16648936D01*
X9853515Y-16648936D02*
X9843991Y-16629888D01*
X9843991Y-16629888D02*
X9834467Y-16591793D01*
X9834467Y-16591793D02*
X9834467Y-16544174D01*
X9834467Y-16544174D02*
X9843991Y-16506079D01*
X9843991Y-16506079D02*
X9853515Y-16487031D01*
X9853515Y-16487031D02*
X9863039Y-16477508D01*
X9863039Y-16477508D02*
X9882086Y-16467984D01*
X10072563Y-16467984D02*
X10091610Y-16467984D01*
X10091610Y-16467984D02*
X10110658Y-16477508D01*
X10110658Y-16477508D02*
X10120182Y-16487031D01*
X10120182Y-16487031D02*
X10129705Y-16506079D01*
X10129705Y-16506079D02*
X10139229Y-16544174D01*
X10139229Y-16544174D02*
X10139229Y-16591793D01*
X10139229Y-16591793D02*
X10129705Y-16629888D01*
X10129705Y-16629888D02*
X10120182Y-16648936D01*
X10120182Y-16648936D02*
X10110658Y-16658460D01*
X10110658Y-16658460D02*
X10091610Y-16667984D01*
X10091610Y-16667984D02*
X10072563Y-16667984D01*
X10072563Y-16667984D02*
X10053515Y-16658460D01*
X10053515Y-16658460D02*
X10043991Y-16648936D01*
X10043991Y-16648936D02*
X10034467Y-16629888D01*
X10034467Y-16629888D02*
X10024944Y-16591793D01*
X10024944Y-16591793D02*
X10024944Y-16544174D01*
X10024944Y-16544174D02*
X10034467Y-16506079D01*
X10034467Y-16506079D02*
X10043991Y-16487031D01*
X10043991Y-16487031D02*
X10053515Y-16477508D01*
X10053515Y-16477508D02*
X10072563Y-16467984D01*
X10263039Y-16467984D02*
X10282086Y-16467984D01*
X10282086Y-16467984D02*
X10301134Y-16477508D01*
X10301134Y-16477508D02*
X10310658Y-16487031D01*
X10310658Y-16487031D02*
X10320182Y-16506079D01*
X10320182Y-16506079D02*
X10329705Y-16544174D01*
X10329705Y-16544174D02*
X10329705Y-16591793D01*
X10329705Y-16591793D02*
X10320182Y-16629888D01*
X10320182Y-16629888D02*
X10310658Y-16648936D01*
X10310658Y-16648936D02*
X10301134Y-16658460D01*
X10301134Y-16658460D02*
X10282086Y-16667984D01*
X10282086Y-16667984D02*
X10263039Y-16667984D01*
X10263039Y-16667984D02*
X10243991Y-16658460D01*
X10243991Y-16658460D02*
X10234467Y-16648936D01*
X10234467Y-16648936D02*
X10224944Y-16629888D01*
X10224944Y-16629888D02*
X10215420Y-16591793D01*
X10215420Y-16591793D02*
X10215420Y-16544174D01*
X10215420Y-16544174D02*
X10224944Y-16506079D01*
X10224944Y-16506079D02*
X10234467Y-16487031D01*
X10234467Y-16487031D02*
X10243991Y-16477508D01*
X10243991Y-16477508D02*
X10263039Y-16467984D01*
X10415420Y-16667984D02*
X10415420Y-16534650D01*
X10415420Y-16553698D02*
X10424944Y-16544174D01*
X10424944Y-16544174D02*
X10443991Y-16534650D01*
X10443991Y-16534650D02*
X10472563Y-16534650D01*
X10472563Y-16534650D02*
X10491610Y-16544174D01*
X10491610Y-16544174D02*
X10501134Y-16563222D01*
X10501134Y-16563222D02*
X10501134Y-16667984D01*
X10501134Y-16563222D02*
X10510658Y-16544174D01*
X10510658Y-16544174D02*
X10529705Y-16534650D01*
X10529705Y-16534650D02*
X10558277Y-16534650D01*
X10558277Y-16534650D02*
X10577325Y-16544174D01*
X10577325Y-16544174D02*
X10586848Y-16563222D01*
X10586848Y-16563222D02*
X10586848Y-16667984D01*
X10682086Y-16667984D02*
X10682086Y-16534650D01*
X10682086Y-16553698D02*
X10691610Y-16544174D01*
X10691610Y-16544174D02*
X10710658Y-16534650D01*
X10710658Y-16534650D02*
X10739229Y-16534650D01*
X10739229Y-16534650D02*
X10758277Y-16544174D01*
X10758277Y-16544174D02*
X10767801Y-16563222D01*
X10767801Y-16563222D02*
X10767801Y-16667984D01*
X10767801Y-16563222D02*
X10777325Y-16544174D01*
X10777325Y-16544174D02*
X10796372Y-16534650D01*
X10796372Y-16534650D02*
X10824944Y-16534650D01*
X10824944Y-16534650D02*
X10843991Y-16544174D01*
X10843991Y-16544174D02*
X10853515Y-16563222D01*
X10853515Y-16563222D02*
X10853515Y-16667984D01*
X11243991Y-16458460D02*
X11072563Y-16715603D01*
X11501134Y-16467984D02*
X11520182Y-16467984D01*
X11520182Y-16467984D02*
X11539229Y-16477508D01*
X11539229Y-16477508D02*
X11548753Y-16487031D01*
X11548753Y-16487031D02*
X11558277Y-16506079D01*
X11558277Y-16506079D02*
X11567801Y-16544174D01*
X11567801Y-16544174D02*
X11567801Y-16591793D01*
X11567801Y-16591793D02*
X11558277Y-16629888D01*
X11558277Y-16629888D02*
X11548753Y-16648936D01*
X11548753Y-16648936D02*
X11539229Y-16658460D01*
X11539229Y-16658460D02*
X11520182Y-16667984D01*
X11520182Y-16667984D02*
X11501134Y-16667984D01*
X11501134Y-16667984D02*
X11482086Y-16658460D01*
X11482086Y-16658460D02*
X11472563Y-16648936D01*
X11472563Y-16648936D02*
X11463039Y-16629888D01*
X11463039Y-16629888D02*
X11453515Y-16591793D01*
X11453515Y-16591793D02*
X11453515Y-16544174D01*
X11453515Y-16544174D02*
X11463039Y-16506079D01*
X11463039Y-16506079D02*
X11472563Y-16487031D01*
X11472563Y-16487031D02*
X11482086Y-16477508D01*
X11482086Y-16477508D02*
X11501134Y-16467984D01*
X11653515Y-16648936D02*
X11663039Y-16658460D01*
X11663039Y-16658460D02*
X11653515Y-16667984D01*
X11653515Y-16667984D02*
X11643991Y-16658460D01*
X11643991Y-16658460D02*
X11653515Y-16648936D01*
X11653515Y-16648936D02*
X11653515Y-16667984D01*
X11786848Y-16467984D02*
X11805896Y-16467984D01*
X11805896Y-16467984D02*
X11824944Y-16477508D01*
X11824944Y-16477508D02*
X11834467Y-16487031D01*
X11834467Y-16487031D02*
X11843991Y-16506079D01*
X11843991Y-16506079D02*
X11853515Y-16544174D01*
X11853515Y-16544174D02*
X11853515Y-16591793D01*
X11853515Y-16591793D02*
X11843991Y-16629888D01*
X11843991Y-16629888D02*
X11834467Y-16648936D01*
X11834467Y-16648936D02*
X11824944Y-16658460D01*
X11824944Y-16658460D02*
X11805896Y-16667984D01*
X11805896Y-16667984D02*
X11786848Y-16667984D01*
X11786848Y-16667984D02*
X11767801Y-16658460D01*
X11767801Y-16658460D02*
X11758277Y-16648936D01*
X11758277Y-16648936D02*
X11748753Y-16629888D01*
X11748753Y-16629888D02*
X11739229Y-16591793D01*
X11739229Y-16591793D02*
X11739229Y-16544174D01*
X11739229Y-16544174D02*
X11748753Y-16506079D01*
X11748753Y-16506079D02*
X11758277Y-16487031D01*
X11758277Y-16487031D02*
X11767801Y-16477508D01*
X11767801Y-16477508D02*
X11786848Y-16467984D01*
X11920182Y-16467984D02*
X12043991Y-16467984D01*
X12043991Y-16467984D02*
X11977325Y-16544174D01*
X11977325Y-16544174D02*
X12005896Y-16544174D01*
X12005896Y-16544174D02*
X12024944Y-16553698D01*
X12024944Y-16553698D02*
X12034467Y-16563222D01*
X12034467Y-16563222D02*
X12043991Y-16582269D01*
X12043991Y-16582269D02*
X12043991Y-16629888D01*
X12043991Y-16629888D02*
X12034467Y-16648936D01*
X12034467Y-16648936D02*
X12024944Y-16658460D01*
X12024944Y-16658460D02*
X12005896Y-16667984D01*
X12005896Y-16667984D02*
X11948753Y-16667984D01*
X11948753Y-16667984D02*
X11929706Y-16658460D01*
X11929706Y-16658460D02*
X11920182Y-16648936D01*
X12139229Y-16667984D02*
X12177325Y-16667984D01*
X12177325Y-16667984D02*
X12196372Y-16658460D01*
X12196372Y-16658460D02*
X12205896Y-16648936D01*
X12205896Y-16648936D02*
X12224944Y-16620365D01*
X12224944Y-16620365D02*
X12234467Y-16582269D01*
X12234467Y-16582269D02*
X12234467Y-16506079D01*
X12234467Y-16506079D02*
X12224944Y-16487031D01*
X12224944Y-16487031D02*
X12215420Y-16477508D01*
X12215420Y-16477508D02*
X12196372Y-16467984D01*
X12196372Y-16467984D02*
X12158277Y-16467984D01*
X12158277Y-16467984D02*
X12139229Y-16477508D01*
X12139229Y-16477508D02*
X12129706Y-16487031D01*
X12129706Y-16487031D02*
X12120182Y-16506079D01*
X12120182Y-16506079D02*
X12120182Y-16553698D01*
X12120182Y-16553698D02*
X12129706Y-16572746D01*
X12129706Y-16572746D02*
X12139229Y-16582269D01*
X12139229Y-16582269D02*
X12158277Y-16591793D01*
X12158277Y-16591793D02*
X12196372Y-16591793D01*
X12196372Y-16591793D02*
X12215420Y-16582269D01*
X12215420Y-16582269D02*
X12224944Y-16572746D01*
X12224944Y-16572746D02*
X12234467Y-16553698D01*
X12405896Y-16534650D02*
X12405896Y-16667984D01*
X12358277Y-16458460D02*
X12310658Y-16601317D01*
X12310658Y-16601317D02*
X12434467Y-16601317D01*
X12501134Y-16467984D02*
X12501134Y-16506079D01*
X12577325Y-16467984D02*
X12577325Y-16506079D01*
X12872563Y-16744174D02*
X12863039Y-16734650D01*
X12863039Y-16734650D02*
X12843991Y-16706079D01*
X12843991Y-16706079D02*
X12834468Y-16687031D01*
X12834468Y-16687031D02*
X12824944Y-16658460D01*
X12824944Y-16658460D02*
X12815420Y-16610841D01*
X12815420Y-16610841D02*
X12815420Y-16572746D01*
X12815420Y-16572746D02*
X12824944Y-16525127D01*
X12824944Y-16525127D02*
X12834468Y-16496555D01*
X12834468Y-16496555D02*
X12843991Y-16477508D01*
X12843991Y-16477508D02*
X12863039Y-16448936D01*
X12863039Y-16448936D02*
X12872563Y-16439412D01*
X12929706Y-16467984D02*
X13053515Y-16467984D01*
X13053515Y-16467984D02*
X12986848Y-16544174D01*
X12986848Y-16544174D02*
X13015420Y-16544174D01*
X13015420Y-16544174D02*
X13034468Y-16553698D01*
X13034468Y-16553698D02*
X13043991Y-16563222D01*
X13043991Y-16563222D02*
X13053515Y-16582269D01*
X13053515Y-16582269D02*
X13053515Y-16629888D01*
X13053515Y-16629888D02*
X13043991Y-16648936D01*
X13043991Y-16648936D02*
X13034468Y-16658460D01*
X13034468Y-16658460D02*
X13015420Y-16667984D01*
X13015420Y-16667984D02*
X12958277Y-16667984D01*
X12958277Y-16667984D02*
X12939229Y-16658460D01*
X12939229Y-16658460D02*
X12929706Y-16648936D01*
X13224944Y-16467984D02*
X13186848Y-16467984D01*
X13186848Y-16467984D02*
X13167801Y-16477508D01*
X13167801Y-16477508D02*
X13158277Y-16487031D01*
X13158277Y-16487031D02*
X13139229Y-16515603D01*
X13139229Y-16515603D02*
X13129706Y-16553698D01*
X13129706Y-16553698D02*
X13129706Y-16629888D01*
X13129706Y-16629888D02*
X13139229Y-16648936D01*
X13139229Y-16648936D02*
X13148753Y-16658460D01*
X13148753Y-16658460D02*
X13167801Y-16667984D01*
X13167801Y-16667984D02*
X13205896Y-16667984D01*
X13205896Y-16667984D02*
X13224944Y-16658460D01*
X13224944Y-16658460D02*
X13234468Y-16648936D01*
X13234468Y-16648936D02*
X13243991Y-16629888D01*
X13243991Y-16629888D02*
X13243991Y-16582269D01*
X13243991Y-16582269D02*
X13234468Y-16563222D01*
X13234468Y-16563222D02*
X13224944Y-16553698D01*
X13224944Y-16553698D02*
X13205896Y-16544174D01*
X13205896Y-16544174D02*
X13167801Y-16544174D01*
X13167801Y-16544174D02*
X13148753Y-16553698D01*
X13148753Y-16553698D02*
X13139229Y-16563222D01*
X13139229Y-16563222D02*
X13129706Y-16582269D01*
X13482087Y-16667984D02*
X13482087Y-16467984D01*
X13567801Y-16667984D02*
X13567801Y-16563222D01*
X13567801Y-16563222D02*
X13558277Y-16544174D01*
X13558277Y-16544174D02*
X13539230Y-16534650D01*
X13539230Y-16534650D02*
X13510658Y-16534650D01*
X13510658Y-16534650D02*
X13491610Y-16544174D01*
X13491610Y-16544174D02*
X13482087Y-16553698D01*
X13691610Y-16667984D02*
X13672563Y-16658460D01*
X13672563Y-16658460D02*
X13663039Y-16648936D01*
X13663039Y-16648936D02*
X13653515Y-16629888D01*
X13653515Y-16629888D02*
X13653515Y-16572746D01*
X13653515Y-16572746D02*
X13663039Y-16553698D01*
X13663039Y-16553698D02*
X13672563Y-16544174D01*
X13672563Y-16544174D02*
X13691610Y-16534650D01*
X13691610Y-16534650D02*
X13720182Y-16534650D01*
X13720182Y-16534650D02*
X13739230Y-16544174D01*
X13739230Y-16544174D02*
X13748753Y-16553698D01*
X13748753Y-16553698D02*
X13758277Y-16572746D01*
X13758277Y-16572746D02*
X13758277Y-16629888D01*
X13758277Y-16629888D02*
X13748753Y-16648936D01*
X13748753Y-16648936D02*
X13739230Y-16658460D01*
X13739230Y-16658460D02*
X13720182Y-16667984D01*
X13720182Y-16667984D02*
X13691610Y-16667984D01*
X13872563Y-16667984D02*
X13853515Y-16658460D01*
X13853515Y-16658460D02*
X13843991Y-16639412D01*
X13843991Y-16639412D02*
X13843991Y-16467984D01*
X14024944Y-16658460D02*
X14005896Y-16667984D01*
X14005896Y-16667984D02*
X13967801Y-16667984D01*
X13967801Y-16667984D02*
X13948753Y-16658460D01*
X13948753Y-16658460D02*
X13939230Y-16639412D01*
X13939230Y-16639412D02*
X13939230Y-16563222D01*
X13939230Y-16563222D02*
X13948753Y-16544174D01*
X13948753Y-16544174D02*
X13967801Y-16534650D01*
X13967801Y-16534650D02*
X14005896Y-16534650D01*
X14005896Y-16534650D02*
X14024944Y-16544174D01*
X14024944Y-16544174D02*
X14034468Y-16563222D01*
X14034468Y-16563222D02*
X14034468Y-16582269D01*
X14034468Y-16582269D02*
X13939230Y-16601317D01*
X14110658Y-16658460D02*
X14129706Y-16667984D01*
X14129706Y-16667984D02*
X14167801Y-16667984D01*
X14167801Y-16667984D02*
X14186849Y-16658460D01*
X14186849Y-16658460D02*
X14196372Y-16639412D01*
X14196372Y-16639412D02*
X14196372Y-16629888D01*
X14196372Y-16629888D02*
X14186849Y-16610841D01*
X14186849Y-16610841D02*
X14167801Y-16601317D01*
X14167801Y-16601317D02*
X14139230Y-16601317D01*
X14139230Y-16601317D02*
X14120182Y-16591793D01*
X14120182Y-16591793D02*
X14110658Y-16572746D01*
X14110658Y-16572746D02*
X14110658Y-16563222D01*
X14110658Y-16563222D02*
X14120182Y-16544174D01*
X14120182Y-16544174D02*
X14139230Y-16534650D01*
X14139230Y-16534650D02*
X14167801Y-16534650D01*
X14167801Y-16534650D02*
X14186849Y-16544174D01*
X14263039Y-16744174D02*
X14272563Y-16734650D01*
X14272563Y-16734650D02*
X14291611Y-16706079D01*
X14291611Y-16706079D02*
X14301134Y-16687031D01*
X14301134Y-16687031D02*
X14310658Y-16658460D01*
X14310658Y-16658460D02*
X14320182Y-16610841D01*
X14320182Y-16610841D02*
X14320182Y-16572746D01*
X14320182Y-16572746D02*
X14310658Y-16525127D01*
X14310658Y-16525127D02*
X14301134Y-16496555D01*
X14301134Y-16496555D02*
X14291611Y-16477508D01*
X14291611Y-16477508D02*
X14272563Y-16448936D01*
X14272563Y-16448936D02*
X14263039Y-16439412D01*
D13*
X9187500Y-16785500D02*
X9297500Y-16895500D01*
X9297500Y-16785500D02*
X9187500Y-16895500D01*
X9281391Y-16879391D02*
X9281391Y-16801609D01*
X9203609Y-16801609D01*
X9203609Y-16879391D01*
X9281391Y-16879391D01*
D11*
X9663039Y-16931984D02*
X9548753Y-16931984D01*
X9605896Y-16931984D02*
X9605896Y-16731984D01*
X9605896Y-16731984D02*
X9586848Y-16760555D01*
X9586848Y-16760555D02*
X9567801Y-16779603D01*
X9567801Y-16779603D02*
X9548753Y-16789127D01*
X9748753Y-16912936D02*
X9758277Y-16922460D01*
X9758277Y-16922460D02*
X9748753Y-16931984D01*
X9748753Y-16931984D02*
X9739229Y-16922460D01*
X9739229Y-16922460D02*
X9748753Y-16912936D01*
X9748753Y-16912936D02*
X9748753Y-16931984D01*
X9948753Y-16931984D02*
X9834467Y-16931984D01*
X9891610Y-16931984D02*
X9891610Y-16731984D01*
X9891610Y-16731984D02*
X9872563Y-16760555D01*
X9872563Y-16760555D02*
X9853515Y-16779603D01*
X9853515Y-16779603D02*
X9834467Y-16789127D01*
X10072563Y-16731984D02*
X10091610Y-16731984D01*
X10091610Y-16731984D02*
X10110658Y-16741508D01*
X10110658Y-16741508D02*
X10120182Y-16751031D01*
X10120182Y-16751031D02*
X10129705Y-16770079D01*
X10129705Y-16770079D02*
X10139229Y-16808174D01*
X10139229Y-16808174D02*
X10139229Y-16855793D01*
X10139229Y-16855793D02*
X10129705Y-16893889D01*
X10129705Y-16893889D02*
X10120182Y-16912936D01*
X10120182Y-16912936D02*
X10110658Y-16922460D01*
X10110658Y-16922460D02*
X10091610Y-16931984D01*
X10091610Y-16931984D02*
X10072563Y-16931984D01*
X10072563Y-16931984D02*
X10053515Y-16922460D01*
X10053515Y-16922460D02*
X10043991Y-16912936D01*
X10043991Y-16912936D02*
X10034467Y-16893889D01*
X10034467Y-16893889D02*
X10024944Y-16855793D01*
X10024944Y-16855793D02*
X10024944Y-16808174D01*
X10024944Y-16808174D02*
X10034467Y-16770079D01*
X10034467Y-16770079D02*
X10043991Y-16751031D01*
X10043991Y-16751031D02*
X10053515Y-16741508D01*
X10053515Y-16741508D02*
X10072563Y-16731984D01*
X10263039Y-16731984D02*
X10282086Y-16731984D01*
X10282086Y-16731984D02*
X10301134Y-16741508D01*
X10301134Y-16741508D02*
X10310658Y-16751031D01*
X10310658Y-16751031D02*
X10320182Y-16770079D01*
X10320182Y-16770079D02*
X10329705Y-16808174D01*
X10329705Y-16808174D02*
X10329705Y-16855793D01*
X10329705Y-16855793D02*
X10320182Y-16893889D01*
X10320182Y-16893889D02*
X10310658Y-16912936D01*
X10310658Y-16912936D02*
X10301134Y-16922460D01*
X10301134Y-16922460D02*
X10282086Y-16931984D01*
X10282086Y-16931984D02*
X10263039Y-16931984D01*
X10263039Y-16931984D02*
X10243991Y-16922460D01*
X10243991Y-16922460D02*
X10234467Y-16912936D01*
X10234467Y-16912936D02*
X10224944Y-16893889D01*
X10224944Y-16893889D02*
X10215420Y-16855793D01*
X10215420Y-16855793D02*
X10215420Y-16808174D01*
X10215420Y-16808174D02*
X10224944Y-16770079D01*
X10224944Y-16770079D02*
X10234467Y-16751031D01*
X10234467Y-16751031D02*
X10243991Y-16741508D01*
X10243991Y-16741508D02*
X10263039Y-16731984D01*
X10415420Y-16931984D02*
X10415420Y-16798650D01*
X10415420Y-16817698D02*
X10424944Y-16808174D01*
X10424944Y-16808174D02*
X10443991Y-16798650D01*
X10443991Y-16798650D02*
X10472563Y-16798650D01*
X10472563Y-16798650D02*
X10491610Y-16808174D01*
X10491610Y-16808174D02*
X10501134Y-16827222D01*
X10501134Y-16827222D02*
X10501134Y-16931984D01*
X10501134Y-16827222D02*
X10510658Y-16808174D01*
X10510658Y-16808174D02*
X10529705Y-16798650D01*
X10529705Y-16798650D02*
X10558277Y-16798650D01*
X10558277Y-16798650D02*
X10577325Y-16808174D01*
X10577325Y-16808174D02*
X10586848Y-16827222D01*
X10586848Y-16827222D02*
X10586848Y-16931984D01*
X10682086Y-16931984D02*
X10682086Y-16798650D01*
X10682086Y-16817698D02*
X10691610Y-16808174D01*
X10691610Y-16808174D02*
X10710658Y-16798650D01*
X10710658Y-16798650D02*
X10739229Y-16798650D01*
X10739229Y-16798650D02*
X10758277Y-16808174D01*
X10758277Y-16808174D02*
X10767801Y-16827222D01*
X10767801Y-16827222D02*
X10767801Y-16931984D01*
X10767801Y-16827222D02*
X10777325Y-16808174D01*
X10777325Y-16808174D02*
X10796372Y-16798650D01*
X10796372Y-16798650D02*
X10824944Y-16798650D01*
X10824944Y-16798650D02*
X10843991Y-16808174D01*
X10843991Y-16808174D02*
X10853515Y-16827222D01*
X10853515Y-16827222D02*
X10853515Y-16931984D01*
X11243991Y-16722460D02*
X11072563Y-16979603D01*
X11501134Y-16731984D02*
X11520182Y-16731984D01*
X11520182Y-16731984D02*
X11539229Y-16741508D01*
X11539229Y-16741508D02*
X11548753Y-16751031D01*
X11548753Y-16751031D02*
X11558277Y-16770079D01*
X11558277Y-16770079D02*
X11567801Y-16808174D01*
X11567801Y-16808174D02*
X11567801Y-16855793D01*
X11567801Y-16855793D02*
X11558277Y-16893889D01*
X11558277Y-16893889D02*
X11548753Y-16912936D01*
X11548753Y-16912936D02*
X11539229Y-16922460D01*
X11539229Y-16922460D02*
X11520182Y-16931984D01*
X11520182Y-16931984D02*
X11501134Y-16931984D01*
X11501134Y-16931984D02*
X11482086Y-16922460D01*
X11482086Y-16922460D02*
X11472563Y-16912936D01*
X11472563Y-16912936D02*
X11463039Y-16893889D01*
X11463039Y-16893889D02*
X11453515Y-16855793D01*
X11453515Y-16855793D02*
X11453515Y-16808174D01*
X11453515Y-16808174D02*
X11463039Y-16770079D01*
X11463039Y-16770079D02*
X11472563Y-16751031D01*
X11472563Y-16751031D02*
X11482086Y-16741508D01*
X11482086Y-16741508D02*
X11501134Y-16731984D01*
X11653515Y-16912936D02*
X11663039Y-16922460D01*
X11663039Y-16922460D02*
X11653515Y-16931984D01*
X11653515Y-16931984D02*
X11643991Y-16922460D01*
X11643991Y-16922460D02*
X11653515Y-16912936D01*
X11653515Y-16912936D02*
X11653515Y-16931984D01*
X11786848Y-16731984D02*
X11805896Y-16731984D01*
X11805896Y-16731984D02*
X11824944Y-16741508D01*
X11824944Y-16741508D02*
X11834467Y-16751031D01*
X11834467Y-16751031D02*
X11843991Y-16770079D01*
X11843991Y-16770079D02*
X11853515Y-16808174D01*
X11853515Y-16808174D02*
X11853515Y-16855793D01*
X11853515Y-16855793D02*
X11843991Y-16893889D01*
X11843991Y-16893889D02*
X11834467Y-16912936D01*
X11834467Y-16912936D02*
X11824944Y-16922460D01*
X11824944Y-16922460D02*
X11805896Y-16931984D01*
X11805896Y-16931984D02*
X11786848Y-16931984D01*
X11786848Y-16931984D02*
X11767801Y-16922460D01*
X11767801Y-16922460D02*
X11758277Y-16912936D01*
X11758277Y-16912936D02*
X11748753Y-16893889D01*
X11748753Y-16893889D02*
X11739229Y-16855793D01*
X11739229Y-16855793D02*
X11739229Y-16808174D01*
X11739229Y-16808174D02*
X11748753Y-16770079D01*
X11748753Y-16770079D02*
X11758277Y-16751031D01*
X11758277Y-16751031D02*
X11767801Y-16741508D01*
X11767801Y-16741508D02*
X11786848Y-16731984D01*
X12024944Y-16798650D02*
X12024944Y-16931984D01*
X11977325Y-16722460D02*
X11929706Y-16865317D01*
X11929706Y-16865317D02*
X12053515Y-16865317D01*
X12110658Y-16731984D02*
X12234467Y-16731984D01*
X12234467Y-16731984D02*
X12167801Y-16808174D01*
X12167801Y-16808174D02*
X12196372Y-16808174D01*
X12196372Y-16808174D02*
X12215420Y-16817698D01*
X12215420Y-16817698D02*
X12224944Y-16827222D01*
X12224944Y-16827222D02*
X12234467Y-16846270D01*
X12234467Y-16846270D02*
X12234467Y-16893889D01*
X12234467Y-16893889D02*
X12224944Y-16912936D01*
X12224944Y-16912936D02*
X12215420Y-16922460D01*
X12215420Y-16922460D02*
X12196372Y-16931984D01*
X12196372Y-16931984D02*
X12139229Y-16931984D01*
X12139229Y-16931984D02*
X12120182Y-16922460D01*
X12120182Y-16922460D02*
X12110658Y-16912936D01*
X12301134Y-16731984D02*
X12424944Y-16731984D01*
X12424944Y-16731984D02*
X12358277Y-16808174D01*
X12358277Y-16808174D02*
X12386848Y-16808174D01*
X12386848Y-16808174D02*
X12405896Y-16817698D01*
X12405896Y-16817698D02*
X12415420Y-16827222D01*
X12415420Y-16827222D02*
X12424944Y-16846270D01*
X12424944Y-16846270D02*
X12424944Y-16893889D01*
X12424944Y-16893889D02*
X12415420Y-16912936D01*
X12415420Y-16912936D02*
X12405896Y-16922460D01*
X12405896Y-16922460D02*
X12386848Y-16931984D01*
X12386848Y-16931984D02*
X12329706Y-16931984D01*
X12329706Y-16931984D02*
X12310658Y-16922460D01*
X12310658Y-16922460D02*
X12301134Y-16912936D01*
X12501134Y-16731984D02*
X12501134Y-16770079D01*
X12577325Y-16731984D02*
X12577325Y-16770079D01*
X12872563Y-17008174D02*
X12863039Y-16998650D01*
X12863039Y-16998650D02*
X12843991Y-16970079D01*
X12843991Y-16970079D02*
X12834468Y-16951031D01*
X12834468Y-16951031D02*
X12824944Y-16922460D01*
X12824944Y-16922460D02*
X12815420Y-16874841D01*
X12815420Y-16874841D02*
X12815420Y-16836746D01*
X12815420Y-16836746D02*
X12824944Y-16789127D01*
X12824944Y-16789127D02*
X12834468Y-16760555D01*
X12834468Y-16760555D02*
X12843991Y-16741508D01*
X12843991Y-16741508D02*
X12863039Y-16712936D01*
X12863039Y-16712936D02*
X12872563Y-16703412D01*
X13053515Y-16931984D02*
X12939229Y-16931984D01*
X12996372Y-16931984D02*
X12996372Y-16731984D01*
X12996372Y-16731984D02*
X12977325Y-16760555D01*
X12977325Y-16760555D02*
X12958277Y-16779603D01*
X12958277Y-16779603D02*
X12939229Y-16789127D01*
X13148753Y-16931984D02*
X13186848Y-16931984D01*
X13186848Y-16931984D02*
X13205896Y-16922460D01*
X13205896Y-16922460D02*
X13215420Y-16912936D01*
X13215420Y-16912936D02*
X13234468Y-16884365D01*
X13234468Y-16884365D02*
X13243991Y-16846270D01*
X13243991Y-16846270D02*
X13243991Y-16770079D01*
X13243991Y-16770079D02*
X13234468Y-16751031D01*
X13234468Y-16751031D02*
X13224944Y-16741508D01*
X13224944Y-16741508D02*
X13205896Y-16731984D01*
X13205896Y-16731984D02*
X13167801Y-16731984D01*
X13167801Y-16731984D02*
X13148753Y-16741508D01*
X13148753Y-16741508D02*
X13139229Y-16751031D01*
X13139229Y-16751031D02*
X13129706Y-16770079D01*
X13129706Y-16770079D02*
X13129706Y-16817698D01*
X13129706Y-16817698D02*
X13139229Y-16836746D01*
X13139229Y-16836746D02*
X13148753Y-16846270D01*
X13148753Y-16846270D02*
X13167801Y-16855793D01*
X13167801Y-16855793D02*
X13205896Y-16855793D01*
X13205896Y-16855793D02*
X13224944Y-16846270D01*
X13224944Y-16846270D02*
X13234468Y-16836746D01*
X13234468Y-16836746D02*
X13243991Y-16817698D01*
X13482087Y-16931984D02*
X13482087Y-16731984D01*
X13567801Y-16931984D02*
X13567801Y-16827222D01*
X13567801Y-16827222D02*
X13558277Y-16808174D01*
X13558277Y-16808174D02*
X13539230Y-16798650D01*
X13539230Y-16798650D02*
X13510658Y-16798650D01*
X13510658Y-16798650D02*
X13491610Y-16808174D01*
X13491610Y-16808174D02*
X13482087Y-16817698D01*
X13691610Y-16931984D02*
X13672563Y-16922460D01*
X13672563Y-16922460D02*
X13663039Y-16912936D01*
X13663039Y-16912936D02*
X13653515Y-16893889D01*
X13653515Y-16893889D02*
X13653515Y-16836746D01*
X13653515Y-16836746D02*
X13663039Y-16817698D01*
X13663039Y-16817698D02*
X13672563Y-16808174D01*
X13672563Y-16808174D02*
X13691610Y-16798650D01*
X13691610Y-16798650D02*
X13720182Y-16798650D01*
X13720182Y-16798650D02*
X13739230Y-16808174D01*
X13739230Y-16808174D02*
X13748753Y-16817698D01*
X13748753Y-16817698D02*
X13758277Y-16836746D01*
X13758277Y-16836746D02*
X13758277Y-16893889D01*
X13758277Y-16893889D02*
X13748753Y-16912936D01*
X13748753Y-16912936D02*
X13739230Y-16922460D01*
X13739230Y-16922460D02*
X13720182Y-16931984D01*
X13720182Y-16931984D02*
X13691610Y-16931984D01*
X13872563Y-16931984D02*
X13853515Y-16922460D01*
X13853515Y-16922460D02*
X13843991Y-16903412D01*
X13843991Y-16903412D02*
X13843991Y-16731984D01*
X14024944Y-16922460D02*
X14005896Y-16931984D01*
X14005896Y-16931984D02*
X13967801Y-16931984D01*
X13967801Y-16931984D02*
X13948753Y-16922460D01*
X13948753Y-16922460D02*
X13939230Y-16903412D01*
X13939230Y-16903412D02*
X13939230Y-16827222D01*
X13939230Y-16827222D02*
X13948753Y-16808174D01*
X13948753Y-16808174D02*
X13967801Y-16798650D01*
X13967801Y-16798650D02*
X14005896Y-16798650D01*
X14005896Y-16798650D02*
X14024944Y-16808174D01*
X14024944Y-16808174D02*
X14034468Y-16827222D01*
X14034468Y-16827222D02*
X14034468Y-16846270D01*
X14034468Y-16846270D02*
X13939230Y-16865317D01*
X14110658Y-16922460D02*
X14129706Y-16931984D01*
X14129706Y-16931984D02*
X14167801Y-16931984D01*
X14167801Y-16931984D02*
X14186849Y-16922460D01*
X14186849Y-16922460D02*
X14196372Y-16903412D01*
X14196372Y-16903412D02*
X14196372Y-16893889D01*
X14196372Y-16893889D02*
X14186849Y-16874841D01*
X14186849Y-16874841D02*
X14167801Y-16865317D01*
X14167801Y-16865317D02*
X14139230Y-16865317D01*
X14139230Y-16865317D02*
X14120182Y-16855793D01*
X14120182Y-16855793D02*
X14110658Y-16836746D01*
X14110658Y-16836746D02*
X14110658Y-16827222D01*
X14110658Y-16827222D02*
X14120182Y-16808174D01*
X14120182Y-16808174D02*
X14139230Y-16798650D01*
X14139230Y-16798650D02*
X14167801Y-16798650D01*
X14167801Y-16798650D02*
X14186849Y-16808174D01*
X14263039Y-17008174D02*
X14272563Y-16998650D01*
X14272563Y-16998650D02*
X14291611Y-16970079D01*
X14291611Y-16970079D02*
X14301134Y-16951031D01*
X14301134Y-16951031D02*
X14310658Y-16922460D01*
X14310658Y-16922460D02*
X14320182Y-16874841D01*
X14320182Y-16874841D02*
X14320182Y-16836746D01*
X14320182Y-16836746D02*
X14310658Y-16789127D01*
X14310658Y-16789127D02*
X14301134Y-16760555D01*
X14301134Y-16760555D02*
X14291611Y-16741508D01*
X14291611Y-16741508D02*
X14272563Y-16712936D01*
X14272563Y-16712936D02*
X14263039Y-16703412D01*
X9097500Y-17004500D02*
X9297500Y-17204500D01*
X9297500Y-17004500D02*
X9097500Y-17204500D01*
X9197500Y-17204500D02*
X9297500Y-17104500D01*
X9197500Y-17004500D01*
X9097500Y-17104500D01*
X9197500Y-17204500D01*
X9548753Y-17015031D02*
X9558277Y-17005508D01*
X9558277Y-17005508D02*
X9577324Y-16995984D01*
X9577324Y-16995984D02*
X9624944Y-16995984D01*
X9624944Y-16995984D02*
X9643991Y-17005508D01*
X9643991Y-17005508D02*
X9653515Y-17015031D01*
X9653515Y-17015031D02*
X9663039Y-17034079D01*
X9663039Y-17034079D02*
X9663039Y-17053127D01*
X9663039Y-17053127D02*
X9653515Y-17081698D01*
X9653515Y-17081698D02*
X9539229Y-17195984D01*
X9539229Y-17195984D02*
X9663039Y-17195984D01*
X9748753Y-17176936D02*
X9758277Y-17186460D01*
X9758277Y-17186460D02*
X9748753Y-17195984D01*
X9748753Y-17195984D02*
X9739229Y-17186460D01*
X9739229Y-17186460D02*
X9748753Y-17176936D01*
X9748753Y-17176936D02*
X9748753Y-17195984D01*
X9882086Y-16995984D02*
X9901134Y-16995984D01*
X9901134Y-16995984D02*
X9920182Y-17005508D01*
X9920182Y-17005508D02*
X9929705Y-17015031D01*
X9929705Y-17015031D02*
X9939229Y-17034079D01*
X9939229Y-17034079D02*
X9948753Y-17072174D01*
X9948753Y-17072174D02*
X9948753Y-17119793D01*
X9948753Y-17119793D02*
X9939229Y-17157889D01*
X9939229Y-17157889D02*
X9929705Y-17176936D01*
X9929705Y-17176936D02*
X9920182Y-17186460D01*
X9920182Y-17186460D02*
X9901134Y-17195984D01*
X9901134Y-17195984D02*
X9882086Y-17195984D01*
X9882086Y-17195984D02*
X9863039Y-17186460D01*
X9863039Y-17186460D02*
X9853515Y-17176936D01*
X9853515Y-17176936D02*
X9843991Y-17157889D01*
X9843991Y-17157889D02*
X9834467Y-17119793D01*
X9834467Y-17119793D02*
X9834467Y-17072174D01*
X9834467Y-17072174D02*
X9843991Y-17034079D01*
X9843991Y-17034079D02*
X9853515Y-17015031D01*
X9853515Y-17015031D02*
X9863039Y-17005508D01*
X9863039Y-17005508D02*
X9882086Y-16995984D01*
X10072563Y-16995984D02*
X10091610Y-16995984D01*
X10091610Y-16995984D02*
X10110658Y-17005508D01*
X10110658Y-17005508D02*
X10120182Y-17015031D01*
X10120182Y-17015031D02*
X10129705Y-17034079D01*
X10129705Y-17034079D02*
X10139229Y-17072174D01*
X10139229Y-17072174D02*
X10139229Y-17119793D01*
X10139229Y-17119793D02*
X10129705Y-17157889D01*
X10129705Y-17157889D02*
X10120182Y-17176936D01*
X10120182Y-17176936D02*
X10110658Y-17186460D01*
X10110658Y-17186460D02*
X10091610Y-17195984D01*
X10091610Y-17195984D02*
X10072563Y-17195984D01*
X10072563Y-17195984D02*
X10053515Y-17186460D01*
X10053515Y-17186460D02*
X10043991Y-17176936D01*
X10043991Y-17176936D02*
X10034467Y-17157889D01*
X10034467Y-17157889D02*
X10024944Y-17119793D01*
X10024944Y-17119793D02*
X10024944Y-17072174D01*
X10024944Y-17072174D02*
X10034467Y-17034079D01*
X10034467Y-17034079D02*
X10043991Y-17015031D01*
X10043991Y-17015031D02*
X10053515Y-17005508D01*
X10053515Y-17005508D02*
X10072563Y-16995984D01*
X10263039Y-16995984D02*
X10282086Y-16995984D01*
X10282086Y-16995984D02*
X10301134Y-17005508D01*
X10301134Y-17005508D02*
X10310658Y-17015031D01*
X10310658Y-17015031D02*
X10320182Y-17034079D01*
X10320182Y-17034079D02*
X10329705Y-17072174D01*
X10329705Y-17072174D02*
X10329705Y-17119793D01*
X10329705Y-17119793D02*
X10320182Y-17157889D01*
X10320182Y-17157889D02*
X10310658Y-17176936D01*
X10310658Y-17176936D02*
X10301134Y-17186460D01*
X10301134Y-17186460D02*
X10282086Y-17195984D01*
X10282086Y-17195984D02*
X10263039Y-17195984D01*
X10263039Y-17195984D02*
X10243991Y-17186460D01*
X10243991Y-17186460D02*
X10234467Y-17176936D01*
X10234467Y-17176936D02*
X10224944Y-17157889D01*
X10224944Y-17157889D02*
X10215420Y-17119793D01*
X10215420Y-17119793D02*
X10215420Y-17072174D01*
X10215420Y-17072174D02*
X10224944Y-17034079D01*
X10224944Y-17034079D02*
X10234467Y-17015031D01*
X10234467Y-17015031D02*
X10243991Y-17005508D01*
X10243991Y-17005508D02*
X10263039Y-16995984D01*
X10415420Y-17195984D02*
X10415420Y-17062650D01*
X10415420Y-17081698D02*
X10424944Y-17072174D01*
X10424944Y-17072174D02*
X10443991Y-17062650D01*
X10443991Y-17062650D02*
X10472563Y-17062650D01*
X10472563Y-17062650D02*
X10491610Y-17072174D01*
X10491610Y-17072174D02*
X10501134Y-17091222D01*
X10501134Y-17091222D02*
X10501134Y-17195984D01*
X10501134Y-17091222D02*
X10510658Y-17072174D01*
X10510658Y-17072174D02*
X10529705Y-17062650D01*
X10529705Y-17062650D02*
X10558277Y-17062650D01*
X10558277Y-17062650D02*
X10577325Y-17072174D01*
X10577325Y-17072174D02*
X10586848Y-17091222D01*
X10586848Y-17091222D02*
X10586848Y-17195984D01*
X10682086Y-17195984D02*
X10682086Y-17062650D01*
X10682086Y-17081698D02*
X10691610Y-17072174D01*
X10691610Y-17072174D02*
X10710658Y-17062650D01*
X10710658Y-17062650D02*
X10739229Y-17062650D01*
X10739229Y-17062650D02*
X10758277Y-17072174D01*
X10758277Y-17072174D02*
X10767801Y-17091222D01*
X10767801Y-17091222D02*
X10767801Y-17195984D01*
X10767801Y-17091222D02*
X10777325Y-17072174D01*
X10777325Y-17072174D02*
X10796372Y-17062650D01*
X10796372Y-17062650D02*
X10824944Y-17062650D01*
X10824944Y-17062650D02*
X10843991Y-17072174D01*
X10843991Y-17072174D02*
X10853515Y-17091222D01*
X10853515Y-17091222D02*
X10853515Y-17195984D01*
X11243991Y-16986460D02*
X11072563Y-17243603D01*
X11501134Y-16995984D02*
X11520182Y-16995984D01*
X11520182Y-16995984D02*
X11539229Y-17005508D01*
X11539229Y-17005508D02*
X11548753Y-17015031D01*
X11548753Y-17015031D02*
X11558277Y-17034079D01*
X11558277Y-17034079D02*
X11567801Y-17072174D01*
X11567801Y-17072174D02*
X11567801Y-17119793D01*
X11567801Y-17119793D02*
X11558277Y-17157889D01*
X11558277Y-17157889D02*
X11548753Y-17176936D01*
X11548753Y-17176936D02*
X11539229Y-17186460D01*
X11539229Y-17186460D02*
X11520182Y-17195984D01*
X11520182Y-17195984D02*
X11501134Y-17195984D01*
X11501134Y-17195984D02*
X11482086Y-17186460D01*
X11482086Y-17186460D02*
X11472563Y-17176936D01*
X11472563Y-17176936D02*
X11463039Y-17157889D01*
X11463039Y-17157889D02*
X11453515Y-17119793D01*
X11453515Y-17119793D02*
X11453515Y-17072174D01*
X11453515Y-17072174D02*
X11463039Y-17034079D01*
X11463039Y-17034079D02*
X11472563Y-17015031D01*
X11472563Y-17015031D02*
X11482086Y-17005508D01*
X11482086Y-17005508D02*
X11501134Y-16995984D01*
X11653515Y-17176936D02*
X11663039Y-17186460D01*
X11663039Y-17186460D02*
X11653515Y-17195984D01*
X11653515Y-17195984D02*
X11643991Y-17186460D01*
X11643991Y-17186460D02*
X11653515Y-17176936D01*
X11653515Y-17176936D02*
X11653515Y-17195984D01*
X11786848Y-16995984D02*
X11805896Y-16995984D01*
X11805896Y-16995984D02*
X11824944Y-17005508D01*
X11824944Y-17005508D02*
X11834467Y-17015031D01*
X11834467Y-17015031D02*
X11843991Y-17034079D01*
X11843991Y-17034079D02*
X11853515Y-17072174D01*
X11853515Y-17072174D02*
X11853515Y-17119793D01*
X11853515Y-17119793D02*
X11843991Y-17157889D01*
X11843991Y-17157889D02*
X11834467Y-17176936D01*
X11834467Y-17176936D02*
X11824944Y-17186460D01*
X11824944Y-17186460D02*
X11805896Y-17195984D01*
X11805896Y-17195984D02*
X11786848Y-17195984D01*
X11786848Y-17195984D02*
X11767801Y-17186460D01*
X11767801Y-17186460D02*
X11758277Y-17176936D01*
X11758277Y-17176936D02*
X11748753Y-17157889D01*
X11748753Y-17157889D02*
X11739229Y-17119793D01*
X11739229Y-17119793D02*
X11739229Y-17072174D01*
X11739229Y-17072174D02*
X11748753Y-17034079D01*
X11748753Y-17034079D02*
X11758277Y-17015031D01*
X11758277Y-17015031D02*
X11767801Y-17005508D01*
X11767801Y-17005508D02*
X11786848Y-16995984D01*
X11920182Y-16995984D02*
X12053515Y-16995984D01*
X12053515Y-16995984D02*
X11967801Y-17195984D01*
X12158277Y-17081698D02*
X12139229Y-17072174D01*
X12139229Y-17072174D02*
X12129706Y-17062650D01*
X12129706Y-17062650D02*
X12120182Y-17043603D01*
X12120182Y-17043603D02*
X12120182Y-17034079D01*
X12120182Y-17034079D02*
X12129706Y-17015031D01*
X12129706Y-17015031D02*
X12139229Y-17005508D01*
X12139229Y-17005508D02*
X12158277Y-16995984D01*
X12158277Y-16995984D02*
X12196372Y-16995984D01*
X12196372Y-16995984D02*
X12215420Y-17005508D01*
X12215420Y-17005508D02*
X12224944Y-17015031D01*
X12224944Y-17015031D02*
X12234467Y-17034079D01*
X12234467Y-17034079D02*
X12234467Y-17043603D01*
X12234467Y-17043603D02*
X12224944Y-17062650D01*
X12224944Y-17062650D02*
X12215420Y-17072174D01*
X12215420Y-17072174D02*
X12196372Y-17081698D01*
X12196372Y-17081698D02*
X12158277Y-17081698D01*
X12158277Y-17081698D02*
X12139229Y-17091222D01*
X12139229Y-17091222D02*
X12129706Y-17100746D01*
X12129706Y-17100746D02*
X12120182Y-17119793D01*
X12120182Y-17119793D02*
X12120182Y-17157889D01*
X12120182Y-17157889D02*
X12129706Y-17176936D01*
X12129706Y-17176936D02*
X12139229Y-17186460D01*
X12139229Y-17186460D02*
X12158277Y-17195984D01*
X12158277Y-17195984D02*
X12196372Y-17195984D01*
X12196372Y-17195984D02*
X12215420Y-17186460D01*
X12215420Y-17186460D02*
X12224944Y-17176936D01*
X12224944Y-17176936D02*
X12234467Y-17157889D01*
X12234467Y-17157889D02*
X12234467Y-17119793D01*
X12234467Y-17119793D02*
X12224944Y-17100746D01*
X12224944Y-17100746D02*
X12215420Y-17091222D01*
X12215420Y-17091222D02*
X12196372Y-17081698D01*
X12301134Y-16995984D02*
X12434467Y-16995984D01*
X12434467Y-16995984D02*
X12348753Y-17195984D01*
X12501134Y-16995984D02*
X12501134Y-17034079D01*
X12577325Y-16995984D02*
X12577325Y-17034079D01*
X12872563Y-17272174D02*
X12863039Y-17262650D01*
X12863039Y-17262650D02*
X12843991Y-17234079D01*
X12843991Y-17234079D02*
X12834468Y-17215031D01*
X12834468Y-17215031D02*
X12824944Y-17186460D01*
X12824944Y-17186460D02*
X12815420Y-17138841D01*
X12815420Y-17138841D02*
X12815420Y-17100746D01*
X12815420Y-17100746D02*
X12824944Y-17053127D01*
X12824944Y-17053127D02*
X12834468Y-17024555D01*
X12834468Y-17024555D02*
X12843991Y-17005508D01*
X12843991Y-17005508D02*
X12863039Y-16976936D01*
X12863039Y-16976936D02*
X12872563Y-16967412D01*
X12939229Y-17015031D02*
X12948753Y-17005508D01*
X12948753Y-17005508D02*
X12967801Y-16995984D01*
X12967801Y-16995984D02*
X13015420Y-16995984D01*
X13015420Y-16995984D02*
X13034468Y-17005508D01*
X13034468Y-17005508D02*
X13043991Y-17015031D01*
X13043991Y-17015031D02*
X13053515Y-17034079D01*
X13053515Y-17034079D02*
X13053515Y-17053127D01*
X13053515Y-17053127D02*
X13043991Y-17081698D01*
X13043991Y-17081698D02*
X12929706Y-17195984D01*
X12929706Y-17195984D02*
X13053515Y-17195984D01*
X13291610Y-17195984D02*
X13291610Y-16995984D01*
X13377325Y-17195984D02*
X13377325Y-17091222D01*
X13377325Y-17091222D02*
X13367801Y-17072174D01*
X13367801Y-17072174D02*
X13348753Y-17062650D01*
X13348753Y-17062650D02*
X13320182Y-17062650D01*
X13320182Y-17062650D02*
X13301134Y-17072174D01*
X13301134Y-17072174D02*
X13291610Y-17081698D01*
X13501134Y-17195984D02*
X13482087Y-17186460D01*
X13482087Y-17186460D02*
X13472563Y-17176936D01*
X13472563Y-17176936D02*
X13463039Y-17157889D01*
X13463039Y-17157889D02*
X13463039Y-17100746D01*
X13463039Y-17100746D02*
X13472563Y-17081698D01*
X13472563Y-17081698D02*
X13482087Y-17072174D01*
X13482087Y-17072174D02*
X13501134Y-17062650D01*
X13501134Y-17062650D02*
X13529706Y-17062650D01*
X13529706Y-17062650D02*
X13548753Y-17072174D01*
X13548753Y-17072174D02*
X13558277Y-17081698D01*
X13558277Y-17081698D02*
X13567801Y-17100746D01*
X13567801Y-17100746D02*
X13567801Y-17157889D01*
X13567801Y-17157889D02*
X13558277Y-17176936D01*
X13558277Y-17176936D02*
X13548753Y-17186460D01*
X13548753Y-17186460D02*
X13529706Y-17195984D01*
X13529706Y-17195984D02*
X13501134Y-17195984D01*
X13682087Y-17195984D02*
X13663039Y-17186460D01*
X13663039Y-17186460D02*
X13653515Y-17167412D01*
X13653515Y-17167412D02*
X13653515Y-16995984D01*
X13834468Y-17186460D02*
X13815420Y-17195984D01*
X13815420Y-17195984D02*
X13777325Y-17195984D01*
X13777325Y-17195984D02*
X13758277Y-17186460D01*
X13758277Y-17186460D02*
X13748753Y-17167412D01*
X13748753Y-17167412D02*
X13748753Y-17091222D01*
X13748753Y-17091222D02*
X13758277Y-17072174D01*
X13758277Y-17072174D02*
X13777325Y-17062650D01*
X13777325Y-17062650D02*
X13815420Y-17062650D01*
X13815420Y-17062650D02*
X13834468Y-17072174D01*
X13834468Y-17072174D02*
X13843991Y-17091222D01*
X13843991Y-17091222D02*
X13843991Y-17110270D01*
X13843991Y-17110270D02*
X13748753Y-17129317D01*
X13920182Y-17186460D02*
X13939230Y-17195984D01*
X13939230Y-17195984D02*
X13977325Y-17195984D01*
X13977325Y-17195984D02*
X13996372Y-17186460D01*
X13996372Y-17186460D02*
X14005896Y-17167412D01*
X14005896Y-17167412D02*
X14005896Y-17157889D01*
X14005896Y-17157889D02*
X13996372Y-17138841D01*
X13996372Y-17138841D02*
X13977325Y-17129317D01*
X13977325Y-17129317D02*
X13948753Y-17129317D01*
X13948753Y-17129317D02*
X13929706Y-17119793D01*
X13929706Y-17119793D02*
X13920182Y-17100746D01*
X13920182Y-17100746D02*
X13920182Y-17091222D01*
X13920182Y-17091222D02*
X13929706Y-17072174D01*
X13929706Y-17072174D02*
X13948753Y-17062650D01*
X13948753Y-17062650D02*
X13977325Y-17062650D01*
X13977325Y-17062650D02*
X13996372Y-17072174D01*
X14072563Y-17272174D02*
X14082087Y-17262650D01*
X14082087Y-17262650D02*
X14101134Y-17234079D01*
X14101134Y-17234079D02*
X14110658Y-17215031D01*
X14110658Y-17215031D02*
X14120182Y-17186460D01*
X14120182Y-17186460D02*
X14129706Y-17138841D01*
X14129706Y-17138841D02*
X14129706Y-17100746D01*
X14129706Y-17100746D02*
X14120182Y-17053127D01*
X14120182Y-17053127D02*
X14110658Y-17024555D01*
X14110658Y-17024555D02*
X14101134Y-17005508D01*
X14101134Y-17005508D02*
X14082087Y-16976936D01*
X14082087Y-16976936D02*
X14072563Y-16967412D01*
M02*
