M48
; DRILL file {KiCad 8.0.5} date 2024-11-14T17:20:30-0800
; FORMAT={-:-/ absolute / metric / decimal}
; #@! TF.CreationDate,2024-11-14T17:20:30-08:00
; #@! TF.GenerationSoftware,Kicad,Pcbnew,8.0.5
; #@! TF.FileFunction,Plated,1,2,PTH
FMAT,2
METRIC
; #@! TA.AperFunction,Plated,PTH,ViaDrill
T1C0.300
; #@! TA.AperFunction,Plated,PTH,ComponentDrill
T2C0.330
; #@! TA.AperFunction,Plated,PTH,ViaDrill
T3C0.500
; #@! TA.AperFunction,Plated,PTH,ComponentDrill
T4C0.500
; #@! TA.AperFunction,Plated,PTH,ViaDrill
T5C0.750
; #@! TA.AperFunction,Plated,PTH,ViaDrill
T6C1.000
; #@! TA.AperFunction,Plated,PTH,ComponentDrill
T7C1.000
; #@! TA.AperFunction,Plated,PTH,ComponentDrill
T8C1.100
; #@! TA.AperFunction,Plated,PTH,ComponentDrill
T9C2.000
%
G90
G05
T1
X111.0Y-73.0
X113.5Y-73.0
X113.5Y-95.0
X114.5Y-118.0
X116.0Y-91.5
X118.0Y-118.0
X178.0Y-92.0
X178.25Y-102.0
X179.5Y-90.0
X181.75Y-102.0
T2
X112.645Y-106.005
X112.645Y-107.305
X113.03Y-83.22
X113.03Y-84.52
X113.945Y-106.005
X113.945Y-107.305
X114.33Y-83.22
X114.33Y-84.52
X115.245Y-106.005
X115.245Y-107.305
X115.63Y-83.22
X115.63Y-84.52
T3
X159.5Y-99.0
X159.5Y-104.5
X163.5Y-101.0
X165.5Y-101.0
X166.0Y-108.0
X170.0Y-108.0
X172.0Y-96.5
X177.5Y-96.5
T4
X186.487Y-105.1
X186.487Y-107.0
T5
X171.0Y-114.5
X171.0Y-119.5
T6
X106.175Y-96.0
X106.255Y-98.608
X109.5Y-102.0
X109.5Y-104.0
X109.5Y-106.0
X109.5Y-108.0
X109.5Y-110.0
X111.0Y-79.0
X111.0Y-81.0
X111.0Y-83.0
X111.0Y-85.0
X111.0Y-87.0
X111.0Y-89.0
X118.0Y-81.0
X118.0Y-83.0
X118.0Y-85.0
X118.0Y-87.0
X118.0Y-89.0
X118.0Y-102.0
X118.0Y-104.0
X118.0Y-106.0
X118.0Y-108.0
X118.0Y-110.0
X157.0Y-79.5
X168.5Y-124.5
X193.5Y-105.0
T7
X125.6Y-74.68
X125.6Y-77.22
X125.6Y-79.76
X125.6Y-82.3
X125.6Y-84.84
X125.6Y-87.38
X125.6Y-89.92
X125.6Y-92.46
X125.6Y-95.0
X125.6Y-97.54
X125.6Y-100.08
X125.6Y-102.62
X125.6Y-105.16
X125.6Y-107.7
X125.6Y-110.24
X125.6Y-112.78
X125.6Y-115.32
X125.6Y-117.86
X151.0Y-74.68
X151.0Y-77.22
X151.0Y-79.76
X151.0Y-82.3
X151.0Y-84.84
X151.0Y-87.38
X151.0Y-89.92
X151.0Y-92.46
X151.0Y-95.0
X151.0Y-97.54
X151.0Y-100.08
X151.0Y-102.62
X151.0Y-105.16
X151.0Y-107.7
X151.0Y-110.24
X151.0Y-112.78
X151.0Y-115.32
X151.0Y-117.86
T8
X104.46Y-125.5
X107.0Y-125.5
X107.46Y-66.0
X110.0Y-66.0
X115.46Y-125.5
X117.0Y-66.0
X118.0Y-125.5
X119.54Y-66.0
X157.88Y-117.5
X157.92Y-73.5
X160.42Y-117.5
X160.46Y-73.5
X162.96Y-117.5
X163.0Y-73.5
X165.5Y-117.5
X174.88Y-117.5
X177.42Y-117.5
X179.96Y-117.5
X182.5Y-117.5
T9
X171.0Y-74.0
X177.0Y-74.0
M30
