G04 #@! TF.GenerationSoftware,KiCad,Pcbnew,8.0.5*
G04 #@! TF.CreationDate,2024-11-14T17:14:10-08:00*
G04 #@! TF.ProjectId,Predator-Bot-V1,50726564-6174-46f7-922d-426f742d5631,0.01*
G04 #@! TF.SameCoordinates,Original*
G04 #@! TF.FileFunction,Soldermask,Top*
G04 #@! TF.FilePolarity,Negative*
%FSLAX46Y46*%
G04 Gerber Fmt 4.6, Leading zero omitted, Abs format (unit mm)*
G04 Created by KiCad (PCBNEW 8.0.5) date 2024-11-14 17:14:10*
%MOMM*%
%LPD*%
G01*
G04 APERTURE LIST*
G04 Aperture macros list*
%AMRoundRect*
0 Rectangle with rounded corners*
0 $1 Rounding radius*
0 $2 $3 $4 $5 $6 $7 $8 $9 X,Y pos of 4 corners*
0 Add a 4 corners polygon primitive as box body*
4,1,4,$2,$3,$4,$5,$6,$7,$8,$9,$2,$3,0*
0 Add four circle primitives for the rounded corners*
1,1,$1+$1,$2,$3*
1,1,$1+$1,$4,$5*
1,1,$1+$1,$6,$7*
1,1,$1+$1,$8,$9*
0 Add four rect primitives between the rounded corners*
20,1,$1+$1,$2,$3,$4,$5,0*
20,1,$1+$1,$4,$5,$6,$7,0*
20,1,$1+$1,$6,$7,$8,$9,0*
20,1,$1+$1,$8,$9,$2,$3,0*%
G04 Aperture macros list end*
%ADD10RoundRect,0.250000X0.250000X0.475000X-0.250000X0.475000X-0.250000X-0.475000X0.250000X-0.475000X0*%
%ADD11R,3.100000X2.400000*%
%ADD12RoundRect,0.070000X-0.250000X1.100000X-0.250000X-1.100000X0.250000X-1.100000X0.250000X1.100000X0*%
%ADD13C,0.770000*%
%ADD14RoundRect,0.250000X-0.262500X-0.450000X0.262500X-0.450000X0.262500X0.450000X-0.262500X0.450000X0*%
%ADD15C,3.200000*%
%ADD16R,1.700000X1.700000*%
%ADD17O,1.700000X1.700000*%
%ADD18C,1.700000*%
%ADD19R,0.254000X0.675000*%
%ADD20R,0.675000X0.254000*%
%ADD21RoundRect,0.250000X0.450000X-0.262500X0.450000X0.262500X-0.450000X0.262500X-0.450000X-0.262500X0*%
%ADD22C,2.200000*%
%ADD23R,2.200000X2.200000*%
%ADD24C,1.100000*%
%ADD25C,1.000000*%
%ADD26C,3.500000*%
%ADD27RoundRect,0.250000X-0.450000X0.262500X-0.450000X-0.262500X0.450000X-0.262500X0.450000X0.262500X0*%
%ADD28RoundRect,0.250000X-0.250000X-0.475000X0.250000X-0.475000X0.250000X0.475000X-0.250000X0.475000X0*%
%ADD29C,3.000000*%
%ADD30RoundRect,0.250000X0.475000X-0.250000X0.475000X0.250000X-0.475000X0.250000X-0.475000X-0.250000X0*%
%ADD31RoundRect,0.070000X0.250000X-1.100000X0.250000X1.100000X-0.250000X1.100000X-0.250000X-1.100000X0*%
G04 APERTURE END LIST*
D10*
X190100000Y-101000000D03*
X192000000Y-101000000D03*
D11*
X113945000Y-106655000D03*
D12*
X115850000Y-103780000D03*
X114580000Y-103780000D03*
X113310000Y-103780000D03*
X112040000Y-103780000D03*
X112040000Y-109530000D03*
X113310000Y-109530000D03*
X114580000Y-109530000D03*
X115850000Y-109530000D03*
D13*
X115245000Y-106005000D03*
X113945000Y-106005000D03*
X112645000Y-106005000D03*
X115245000Y-107305000D03*
X113945000Y-107305000D03*
X112645000Y-107305000D03*
D14*
X111000000Y-93500000D03*
X109175000Y-93500000D03*
D15*
X126300000Y-70000000D03*
X126300000Y-123000000D03*
X150300000Y-70000000D03*
X150300000Y-123000000D03*
D16*
X125600000Y-74680000D03*
D17*
X125600000Y-77220000D03*
X125600000Y-79760000D03*
X125600000Y-82300000D03*
X125600000Y-84840000D03*
X125600000Y-87380000D03*
X125600000Y-89920000D03*
X125600000Y-92460000D03*
X125600000Y-95000000D03*
X125600000Y-97540000D03*
X125600000Y-100080000D03*
X125600000Y-102620000D03*
X125600000Y-105160000D03*
X125600000Y-107700000D03*
X125600000Y-110240000D03*
X125600000Y-112780000D03*
X125600000Y-115320000D03*
X125600000Y-117860000D03*
X151000000Y-117860000D03*
X151000000Y-115320000D03*
X151000000Y-112780000D03*
X151000000Y-110240000D03*
X151000000Y-107700000D03*
X151000000Y-105160000D03*
X151000000Y-102620000D03*
X151000000Y-100080000D03*
X151000000Y-97540000D03*
X151000000Y-95000000D03*
X151000000Y-92460000D03*
X151000000Y-89920000D03*
X151000000Y-87380000D03*
X151000000Y-84840000D03*
X151000000Y-82300000D03*
X151000000Y-79760000D03*
X151000000Y-77220000D03*
D18*
X151000000Y-74680000D03*
D19*
X179250000Y-98662500D03*
D20*
X179387500Y-97750000D03*
X179387500Y-97250000D03*
X179387500Y-96750000D03*
X179387500Y-96250000D03*
D19*
X179250000Y-95337500D03*
X178750000Y-95337500D03*
X178250000Y-95337500D03*
X177750000Y-95337500D03*
X177250000Y-95337500D03*
X176750000Y-95337500D03*
X176250000Y-95337500D03*
X175750000Y-95337500D03*
X175250000Y-95337500D03*
X174750000Y-95337500D03*
D20*
X174612500Y-96250000D03*
X174612500Y-96750000D03*
X174612500Y-97250000D03*
X174612500Y-97750000D03*
D19*
X174750000Y-98662500D03*
X175250000Y-98662500D03*
X175750000Y-98662500D03*
X176250000Y-98662500D03*
X176750000Y-98662500D03*
X177250000Y-98662500D03*
X177750000Y-98662500D03*
X178250000Y-98662500D03*
X178750000Y-98662500D03*
D21*
X188500000Y-93325000D03*
X188500000Y-91500000D03*
D22*
X107000000Y-125500000D03*
D23*
X104460000Y-125500000D03*
D24*
X107000000Y-128040000D03*
X104460000Y-128040000D03*
D14*
X109175000Y-98500000D03*
X111000000Y-98500000D03*
D21*
X164500000Y-95000000D03*
X164500000Y-93175000D03*
D10*
X107000000Y-119500000D03*
X105100000Y-119500000D03*
D25*
X186486526Y-105100000D03*
X186486526Y-107000000D03*
D23*
X174880000Y-117500000D03*
D22*
X177420000Y-117500000D03*
X179960000Y-117500000D03*
X182500000Y-117500000D03*
D26*
X191500000Y-60000000D03*
D27*
X183500000Y-91500000D03*
X183500000Y-93325000D03*
D28*
X118600000Y-75000000D03*
X120500000Y-75000000D03*
D26*
X100000000Y-60000000D03*
D22*
X117000000Y-66000000D03*
D23*
X119540000Y-66000000D03*
D24*
X117000000Y-63460000D03*
X119540000Y-63460000D03*
D10*
X190100000Y-109500000D03*
X192000000Y-109500000D03*
D24*
X163000000Y-70960000D03*
X160460000Y-70960000D03*
X157920000Y-70960000D03*
D23*
X163000000Y-73500000D03*
D22*
X160460000Y-73500000D03*
X157920000Y-73500000D03*
D29*
X171000000Y-74000000D03*
D27*
X169500000Y-90675000D03*
X169500000Y-92500000D03*
D26*
X100000000Y-135000000D03*
X191500000Y-135000000D03*
D30*
X178000000Y-86400000D03*
X178000000Y-84500000D03*
D28*
X118600000Y-71245000D03*
X120500000Y-71245000D03*
D22*
X107460000Y-66000000D03*
D23*
X110000000Y-66000000D03*
D24*
X107460000Y-63460000D03*
X110000000Y-63460000D03*
D13*
X115630000Y-83220000D03*
X114330000Y-83220000D03*
X113030000Y-83220000D03*
X115630000Y-84520000D03*
X114330000Y-84520000D03*
X113030000Y-84520000D03*
D31*
X112425000Y-80995000D03*
X113695000Y-80995000D03*
X114965000Y-80995000D03*
X116235000Y-80995000D03*
X116235000Y-86745000D03*
X114965000Y-86745000D03*
X113695000Y-86745000D03*
X112425000Y-86745000D03*
D11*
X114330000Y-83870000D03*
D21*
X155500000Y-95000000D03*
X155500000Y-93175000D03*
D29*
X177000000Y-74000000D03*
D22*
X118000000Y-125500000D03*
D23*
X115460000Y-125500000D03*
D24*
X118000000Y-128040000D03*
X115460000Y-128040000D03*
D22*
X165500000Y-117500000D03*
X162960000Y-117500000D03*
X160420000Y-117500000D03*
D23*
X157880000Y-117500000D03*
D10*
X107000000Y-116000000D03*
X105100000Y-116000000D03*
D28*
X183500000Y-98000000D03*
X185400000Y-98000000D03*
M02*
