G04 #@! TF.GenerationSoftware,KiCad,Pcbnew,8.0.5*
G04 #@! TF.CreationDate,2024-11-14T17:14:10-08:00*
G04 #@! TF.ProjectId,Predator-Bot-V1,50726564-6174-46f7-922d-426f742d5631,0.01*
G04 #@! TF.SameCoordinates,Original*
G04 #@! TF.FileFunction,Paste,Top*
G04 #@! TF.FilePolarity,Positive*
%FSLAX46Y46*%
G04 Gerber Fmt 4.6, Leading zero omitted, Abs format (unit mm)*
G04 Created by KiCad (PCBNEW 8.0.5) date 2024-11-14 17:14:10*
%MOMM*%
%LPD*%
G01*
G04 APERTURE LIST*
G04 Aperture macros list*
%AMRoundRect*
0 Rectangle with rounded corners*
0 $1 Rounding radius*
0 $2 $3 $4 $5 $6 $7 $8 $9 X,Y pos of 4 corners*
0 Add a 4 corners polygon primitive as box body*
4,1,4,$2,$3,$4,$5,$6,$7,$8,$9,$2,$3,0*
0 Add four circle primitives for the rounded corners*
1,1,$1+$1,$2,$3*
1,1,$1+$1,$4,$5*
1,1,$1+$1,$6,$7*
1,1,$1+$1,$8,$9*
0 Add four rect primitives between the rounded corners*
20,1,$1+$1,$2,$3,$4,$5,0*
20,1,$1+$1,$4,$5,$6,$7,0*
20,1,$1+$1,$6,$7,$8,$9,0*
20,1,$1+$1,$8,$9,$2,$3,0*%
G04 Aperture macros list end*
%ADD10RoundRect,0.250000X0.250000X0.475000X-0.250000X0.475000X-0.250000X-0.475000X0.250000X-0.475000X0*%
%ADD11R,3.100000X2.400000*%
%ADD12R,0.500000X2.200000*%
%ADD13RoundRect,0.250000X-0.262500X-0.450000X0.262500X-0.450000X0.262500X0.450000X-0.262500X0.450000X0*%
%ADD14R,0.254000X0.675000*%
%ADD15R,0.675000X0.254000*%
%ADD16RoundRect,0.250000X0.450000X-0.262500X0.450000X0.262500X-0.450000X0.262500X-0.450000X-0.262500X0*%
%ADD17RoundRect,0.250000X-0.450000X0.262500X-0.450000X-0.262500X0.450000X-0.262500X0.450000X0.262500X0*%
%ADD18RoundRect,0.250000X-0.250000X-0.475000X0.250000X-0.475000X0.250000X0.475000X-0.250000X0.475000X0*%
%ADD19RoundRect,0.250000X0.475000X-0.250000X0.475000X0.250000X-0.475000X0.250000X-0.475000X-0.250000X0*%
G04 APERTURE END LIST*
D10*
X190100000Y-101000000D03*
X192000000Y-101000000D03*
D11*
X113945000Y-106655000D03*
D12*
X115850000Y-103780000D03*
X114580000Y-103780000D03*
X113310000Y-103780000D03*
X112040000Y-103780000D03*
X112040000Y-109530000D03*
X113310000Y-109530000D03*
X114580000Y-109530000D03*
X115850000Y-109530000D03*
D13*
X111000000Y-93500000D03*
X109175000Y-93500000D03*
D14*
X179250000Y-98662500D03*
D15*
X179387500Y-97750000D03*
X179387500Y-97250000D03*
X179387500Y-96750000D03*
X179387500Y-96250000D03*
D14*
X179250000Y-95337500D03*
X178750000Y-95337500D03*
X178250000Y-95337500D03*
X177750000Y-95337500D03*
X177250000Y-95337500D03*
X176750000Y-95337500D03*
X176250000Y-95337500D03*
X175750000Y-95337500D03*
X175250000Y-95337500D03*
X174750000Y-95337500D03*
D15*
X174612500Y-96250000D03*
X174612500Y-96750000D03*
X174612500Y-97250000D03*
X174612500Y-97750000D03*
D14*
X174750000Y-98662500D03*
X175250000Y-98662500D03*
X175750000Y-98662500D03*
X176250000Y-98662500D03*
X176750000Y-98662500D03*
X177250000Y-98662500D03*
X177750000Y-98662500D03*
X178250000Y-98662500D03*
X178750000Y-98662500D03*
D16*
X188500000Y-93325000D03*
X188500000Y-91500000D03*
D13*
X109175000Y-98500000D03*
X111000000Y-98500000D03*
D16*
X164500000Y-95000000D03*
X164500000Y-93175000D03*
D10*
X107000000Y-119500000D03*
X105100000Y-119500000D03*
D17*
X183500000Y-91500000D03*
X183500000Y-93325000D03*
D18*
X118600000Y-75000000D03*
X120500000Y-75000000D03*
D10*
X190100000Y-109500000D03*
X192000000Y-109500000D03*
D17*
X169500000Y-90675000D03*
X169500000Y-92500000D03*
D19*
X178000000Y-86400000D03*
X178000000Y-84500000D03*
D18*
X118600000Y-71245000D03*
X120500000Y-71245000D03*
D12*
X112425000Y-80995000D03*
X113695000Y-80995000D03*
X114965000Y-80995000D03*
X116235000Y-80995000D03*
X116235000Y-86745000D03*
X114965000Y-86745000D03*
X113695000Y-86745000D03*
X112425000Y-86745000D03*
D11*
X114330000Y-83870000D03*
D16*
X155500000Y-95000000D03*
X155500000Y-93175000D03*
D10*
X107000000Y-116000000D03*
X105100000Y-116000000D03*
D18*
X183500000Y-98000000D03*
X185400000Y-98000000D03*
M02*
